{"glyphs":{"0":{"ha":899,"x_min":78,"x_max":821,"o":"m 450 -21 q 168 126 258 -21 q 78 510 78 274 q 165 895 78 753 q 450 1038 253 1038 q 821 510 821 1038 q 731 124 821 269 q 450 -21 640 -21 m 450 121 q 608 230 564 121 q 651 510 651 339 q 608 793 651 689 q 450 897 565 897 q 291 793 335 897 q 247 510 247 689 q 450 121 247 121 z "},"1":{"ha":514,"x_min":179,"x_max":336,"o":"m 179 1006 l 336 1050 l 336 0 l 179 0 l 179 1006 z "},"2":{"ha":897,"x_min":99,"x_max":793,"o":"m 442 429 q 551 592 507 517 q 594 731 594 667 q 553 849 594 808 q 431 890 513 890 q 310 849 356 890 q 233 747 264 807 l 104 817 q 232 974 153 910 q 435 1038 311 1038 q 671 958 589 1038 q 753 749 753 878 q 586 376 753 581 l 397 138 l 793 138 l 793 0 l 99 0 l 442 429 z "},"3":{"ha":885,"x_min":76,"x_max":785,"o":"m 385 -21 q 206 5 296 -21 q 76 71 117 31 l 142 203 q 247 145 183 169 q 378 121 311 121 q 615 314 615 121 q 551 446 615 396 q 376 496 486 496 q 247 488 300 496 l 503 885 l 119 885 l 119 1021 l 779 1021 l 490 608 q 645 567 578 606 q 749 465 713 528 q 785 325 785 401 q 738 147 785 225 q 600 24 690 68 q 385 -21 510 -21 z "},"4":{"ha":908,"x_min":63,"x_max":833,"o":"m 529 256 l 63 256 l 356 1056 l 500 1001 l 279 401 l 529 401 l 538 633 l 692 633 l 692 401 l 833 401 l 833 256 l 692 256 l 692 0 l 529 0 l 529 256 z "},"5":{"ha":897,"x_min":115,"x_max":788,"o":"m 414 -21 q 245 3 322 -21 q 115 72 168 26 l 186 203 q 276 151 217 176 q 410 125 336 125 q 565 178 504 125 q 625 324 625 232 q 570 466 625 410 q 393 522 515 522 q 263 511 331 522 q 167 485 194 500 l 188 1021 l 711 1021 l 711 885 l 339 885 l 325 643 q 442 654 365 654 q 695 570 603 654 q 788 339 788 486 q 744 151 788 233 q 615 24 700 69 q 414 -21 531 -21 z "},"6":{"ha":897,"x_min":103,"x_max":803,"o":"m 444 -21 q 272 20 350 -21 q 148 138 193 61 q 103 318 103 215 q 125 460 103 390 q 219 663 147 531 q 450 1056 292 794 l 583 978 q 368 633 447 772 q 357 614 363 624 q 347 600 351 604 q 407 633 369 621 q 493 646 444 646 q 656 602 585 646 q 765 485 726 558 q 803 328 803 413 q 757 140 803 219 q 630 20 711 61 q 444 -21 549 -21 m 454 115 q 592 171 542 115 q 643 314 643 226 q 591 459 643 406 q 458 513 539 513 q 316 458 369 513 q 263 311 263 404 q 317 171 263 226 q 454 115 372 115 z "},"7":{"ha":740,"x_min":28,"x_max":699,"o":"m 503 885 l 28 885 l 28 1021 l 699 1021 l 340 0 l 163 0 l 503 885 z "},"8":{"ha":897,"x_min":94,"x_max":800,"o":"m 447 -21 q 269 18 350 -21 q 142 128 189 57 q 94 294 94 200 q 141 457 94 393 q 260 551 188 521 q 172 638 206 583 q 138 761 138 693 q 178 907 138 844 q 289 1003 218 969 q 447 1038 360 1038 q 606 1003 535 1038 q 717 908 676 969 q 757 764 757 846 q 722 635 757 689 q 629 550 686 582 q 751 455 703 518 q 800 294 800 392 q 753 128 800 200 q 624 18 706 57 q 447 -21 543 -21 m 447 615 q 554 660 510 615 q 599 768 599 706 q 557 874 599 833 q 447 915 515 915 q 336 874 378 915 q 294 768 294 833 q 338 660 294 704 q 447 615 381 615 m 447 115 q 588 167 535 115 q 642 299 642 219 q 586 430 642 378 q 447 482 531 482 q 307 431 363 482 q 251 299 251 381 q 305 167 251 219 q 447 115 358 115 z "},"9":{"ha":897,"x_min":99,"x_max":804,"o":"m 492 313 q 522 364 497 322 q 561 422 547 406 q 413 376 510 376 q 249 419 321 376 q 138 538 178 463 q 99 704 99 613 q 144 878 99 803 q 273 996 190 954 q 464 1038 356 1038 q 636 997 558 1038 q 759 878 714 956 q 804 697 804 800 q 786 568 804 631 q 703 378 768 506 q 493 0 638 250 l 313 0 l 492 313 m 450 510 q 590 561 535 510 q 644 701 644 613 q 590 847 644 790 q 454 903 536 903 q 312 847 365 903 q 258 703 258 790 q 314 561 258 613 q 450 510 369 510 z "},"\r":{"ha":0,"x_min":0,"x_max":0,"o":""}," ":{"ha":340,"x_min":0,"x_max":0,"o":""},"A":{"ha":951,"x_min":-22,"x_max":974,"o":"m 482 1022 l 974 0 l 794 0 l 707 200 l 239 200 l 151 0 l -22 0 l 467 1022 l 482 1022 m 413 588 l 301 340 l 646 340 l 536 586 l 476 726 l 474 726 l 413 588 z "},"Á":{"ha":951,"x_min":-22,"x_max":974,"o":"m 482 1022 l 974 0 l 794 0 l 707 200 l 239 200 l 151 0 l -22 0 l 467 1022 l 482 1022 m 413 588 l 301 340 l 646 340 l 536 586 l 476 726 l 474 726 l 413 588 m 363 1176 l 635 1383 l 718 1268 l 422 1085 l 363 1176 z "},"Ă":{"ha":951,"x_min":-22,"x_max":974,"o":"m 482 1022 l 974 0 l 794 0 l 707 200 l 239 200 l 151 0 l -22 0 l 467 1022 l 482 1022 m 413 588 l 301 340 l 646 340 l 536 586 l 476 726 l 474 726 l 413 588 m 476 1096 q 292 1166 360 1096 q 224 1346 224 1236 l 357 1346 q 385 1256 357 1293 q 476 1218 414 1218 q 563 1257 529 1218 q 596 1346 596 1296 l 728 1346 q 660 1166 728 1236 q 476 1096 592 1096 z "},"Ắ":{"ha":951,"x_min":-22,"x_max":974,"o":"m 482 1022 l 974 0 l 794 0 l 707 200 l 239 200 l 151 0 l -22 0 l 467 1022 l 482 1022 m 413 588 l 301 340 l 646 340 l 536 586 l 476 726 l 474 726 l 413 588 m 476 1096 q 292 1166 360 1096 q 224 1346 224 1236 l 357 1346 q 385 1256 357 1293 q 476 1218 414 1218 q 563 1257 529 1218 q 596 1346 596 1296 l 728 1346 q 660 1166 728 1236 q 476 1096 592 1096 m 363 1475 l 635 1682 l 718 1567 l 422 1383 l 363 1475 z "},"Ặ":{"ha":951,"x_min":-22,"x_max":974,"o":"m 482 1022 l 974 0 l 794 0 l 707 200 l 239 200 l 151 0 l -22 0 l 467 1022 l 482 1022 m 413 588 l 301 340 l 646 340 l 536 586 l 476 726 l 474 726 l 413 588 m 476 -303 q 404 -274 433 -303 q 375 -201 375 -244 q 404 -135 375 -162 q 476 -107 433 -107 q 547 -135 518 -107 q 576 -201 576 -162 q 548 -274 576 -244 q 476 -303 519 -303 m 476 1096 q 292 1166 360 1096 q 224 1346 224 1236 l 357 1346 q 385 1256 357 1293 q 476 1218 414 1218 q 563 1257 529 1218 q 596 1346 596 1296 l 728 1346 q 660 1166 728 1236 q 476 1096 592 1096 z "},"Ằ":{"ha":951,"x_min":-22,"x_max":974,"o":"m 482 1022 l 974 0 l 794 0 l 707 200 l 239 200 l 151 0 l -22 0 l 467 1022 l 482 1022 m 413 588 l 301 340 l 646 340 l 536 586 l 476 726 l 474 726 l 413 588 m 476 1096 q 292 1166 360 1096 q 224 1346 224 1236 l 357 1346 q 385 1256 357 1293 q 476 1218 414 1218 q 563 1257 529 1218 q 596 1346 596 1296 l 728 1346 q 660 1166 728 1236 q 476 1096 592 1096 m 235 1567 l 318 1682 l 590 1475 l 531 1383 l 235 1567 z "},"Ẳ":{"ha":951,"x_min":-22,"x_max":974,"o":"m 482 1022 l 974 0 l 794 0 l 707 200 l 239 200 l 151 0 l -22 0 l 467 1022 l 482 1022 m 413 588 l 301 340 l 646 340 l 536 586 l 476 726 l 474 726 l 413 588 m 476 1096 q 292 1166 360 1096 q 224 1346 224 1236 l 357 1346 q 385 1256 357 1293 q 476 1218 414 1218 q 563 1257 529 1218 q 596 1346 596 1296 l 728 1346 q 660 1166 728 1236 q 476 1096 592 1096 m 492 1385 q 448 1386 468 1385 q 408 1393 428 1388 l 385 1481 q 426 1476 404 1476 q 501 1492 468 1476 q 535 1542 535 1507 q 513 1578 535 1565 q 451 1590 492 1590 q 393 1584 414 1590 q 339 1561 372 1578 l 310 1647 q 372 1683 332 1667 q 471 1700 413 1700 q 603 1663 543 1700 q 663 1542 663 1626 q 642 1468 663 1504 q 583 1408 621 1432 q 492 1385 544 1385 z "},"Ẵ":{"ha":951,"x_min":-22,"x_max":974,"o":"m 482 1022 l 974 0 l 794 0 l 707 200 l 239 200 l 151 0 l -22 0 l 467 1022 l 482 1022 m 413 588 l 301 340 l 646 340 l 536 586 l 476 726 l 474 726 l 413 588 m 476 1096 q 292 1166 360 1096 q 224 1346 224 1236 l 357 1346 q 385 1256 357 1293 q 476 1218 414 1218 q 563 1257 529 1218 q 596 1346 596 1296 l 728 1346 q 660 1166 728 1236 q 476 1096 592 1096 m 569 1418 q 503 1431 529 1418 q 450 1467 478 1443 q 406 1497 424 1488 q 364 1506 389 1506 q 326 1490 339 1506 q 292 1426 313 1474 l 232 1519 q 288 1601 243 1567 q 385 1636 332 1636 q 459 1622 432 1636 q 515 1582 486 1608 q 550 1556 536 1564 q 585 1547 564 1547 q 671 1611 646 1547 l 724 1531 q 671 1449 717 1481 q 569 1418 625 1418 z "},"Â":{"ha":951,"x_min":-22,"x_max":974,"o":"m 482 1022 l 974 0 l 794 0 l 707 200 l 239 200 l 151 0 l -22 0 l 467 1022 l 482 1022 m 413 588 l 301 340 l 646 340 l 536 586 l 476 726 l 474 726 l 413 588 m 213 1163 l 476 1376 l 739 1163 l 664 1088 l 476 1208 l 289 1088 l 213 1163 z "},"Ấ":{"ha":951,"x_min":-22,"x_max":974,"o":"m 482 1022 l 974 0 l 794 0 l 707 200 l 239 200 l 151 0 l -22 0 l 467 1022 l 482 1022 m 413 588 l 301 340 l 646 340 l 536 586 l 476 726 l 474 726 l 413 588 m 611 1247 l 776 1483 l 894 1413 l 713 1196 l 611 1247 m 235 1074 l 478 1282 l 719 1074 l 650 1003 l 478 1126 l 306 1003 l 235 1074 z "},"Ậ":{"ha":951,"x_min":-22,"x_max":974,"o":"m 482 1022 l 974 0 l 794 0 l 707 200 l 239 200 l 151 0 l -22 0 l 467 1022 l 482 1022 m 413 588 l 301 340 l 646 340 l 536 586 l 476 726 l 474 726 l 413 588 m 476 -303 q 404 -274 433 -303 q 375 -201 375 -244 q 404 -135 375 -162 q 476 -107 433 -107 q 547 -135 518 -107 q 576 -201 576 -162 q 548 -274 576 -244 q 476 -303 519 -303 m 213 1163 l 476 1376 l 739 1163 l 664 1088 l 476 1208 l 289 1088 l 213 1163 z "},"Ầ":{"ha":951,"x_min":-22,"x_max":974,"o":"m 482 1022 l 974 0 l 794 0 l 707 200 l 239 200 l 151 0 l -22 0 l 467 1022 l 482 1022 m 413 588 l 301 340 l 646 340 l 536 586 l 476 726 l 474 726 l 413 588 m 550 1413 l 668 1483 l 833 1247 l 732 1196 l 550 1413 m 235 1074 l 478 1282 l 719 1074 l 650 1003 l 478 1126 l 306 1003 l 235 1074 z "},"Ẩ":{"ha":951,"x_min":-22,"x_max":974,"o":"m 482 1022 l 974 0 l 794 0 l 707 200 l 239 200 l 151 0 l -22 0 l 467 1022 l 482 1022 m 413 588 l 301 340 l 646 340 l 536 586 l 476 726 l 474 726 l 413 588 m 492 1321 q 451 1322 469 1321 q 414 1328 433 1324 l 393 1396 q 431 1393 404 1393 q 492 1407 467 1393 q 517 1454 517 1421 q 494 1493 517 1476 q 436 1510 472 1510 q 350 1483 403 1510 l 324 1563 q 385 1595 340 1579 q 472 1611 429 1611 q 594 1577 540 1611 q 649 1465 649 1543 q 630 1397 649 1431 q 575 1342 611 1364 q 492 1321 539 1321 m 235 1074 l 478 1282 l 719 1074 l 650 1003 l 478 1126 l 306 1003 l 235 1074 z "},"Ẫ":{"ha":951,"x_min":-22,"x_max":974,"o":"m 482 1022 l 974 0 l 794 0 l 707 200 l 239 200 l 151 0 l -22 0 l 467 1022 l 482 1022 m 413 588 l 301 340 l 646 340 l 536 586 l 476 726 l 474 726 l 413 588 m 556 1301 q 497 1313 518 1301 q 451 1346 475 1324 q 423 1368 435 1361 q 393 1375 411 1375 q 345 1358 369 1375 q 306 1308 321 1342 l 253 1381 q 303 1452 264 1418 q 396 1486 342 1486 q 458 1474 435 1486 q 503 1442 481 1463 q 531 1419 518 1426 q 561 1411 543 1411 q 608 1428 583 1411 q 647 1481 632 1444 l 700 1406 q 651 1333 690 1365 q 556 1301 611 1301 m 235 1074 l 478 1282 l 719 1074 l 650 1003 l 478 1126 l 306 1003 l 235 1074 z "},"Ȁ":{"ha":951,"x_min":-22,"x_max":974,"o":"m 482 1022 l 974 0 l 794 0 l 707 200 l 239 200 l 151 0 l -22 0 l 467 1022 l 482 1022 m 413 588 l 301 340 l 646 340 l 536 586 l 476 726 l 474 726 l 413 588 m 400 1338 l 536 1406 l 675 1119 l 575 1076 l 400 1338 m 97 1336 l 233 1404 l 386 1119 l 286 1076 l 97 1336 z "},"Ä":{"ha":951,"x_min":-22,"x_max":974,"o":"m 482 1022 l 974 0 l 794 0 l 707 200 l 239 200 l 151 0 l -22 0 l 467 1022 l 482 1022 m 413 588 l 301 340 l 646 340 l 536 586 l 476 726 l 474 726 l 413 588 m 308 1111 q 238 1140 267 1111 q 208 1210 208 1169 q 237 1280 208 1251 q 308 1308 265 1308 q 380 1280 351 1308 q 408 1210 408 1251 q 379 1140 408 1169 q 308 1111 350 1111 m 643 1111 q 572 1140 601 1111 q 543 1210 543 1169 q 572 1280 543 1251 q 643 1308 600 1308 q 715 1280 686 1308 q 744 1210 744 1251 q 715 1140 744 1169 q 643 1111 686 1111 z "},"Ạ":{"ha":951,"x_min":-22,"x_max":974,"o":"m 482 1022 l 974 0 l 794 0 l 707 200 l 239 200 l 151 0 l -22 0 l 467 1022 l 482 1022 m 413 588 l 301 340 l 646 340 l 536 586 l 476 726 l 474 726 l 413 588 m 476 -303 q 404 -274 433 -303 q 375 -201 375 -244 q 404 -135 375 -162 q 476 -107 433 -107 q 547 -135 518 -107 q 576 -201 576 -162 q 548 -274 576 -244 q 476 -303 519 -303 z "},"À":{"ha":951,"x_min":-22,"x_max":974,"o":"m 482 1022 l 974 0 l 794 0 l 707 200 l 239 200 l 151 0 l -22 0 l 467 1022 l 482 1022 m 413 588 l 301 340 l 646 340 l 536 586 l 476 726 l 474 726 l 413 588 m 235 1268 l 318 1383 l 590 1176 l 531 1085 l 235 1268 z "},"Ả":{"ha":951,"x_min":-22,"x_max":974,"o":"m 482 1022 l 974 0 l 794 0 l 707 200 l 239 200 l 151 0 l -22 0 l 467 1022 l 482 1022 m 413 588 l 301 340 l 646 340 l 536 586 l 476 726 l 474 726 l 413 588 m 492 1086 q 448 1088 468 1086 q 408 1094 428 1089 l 385 1182 q 426 1178 404 1178 q 501 1193 468 1178 q 535 1243 535 1208 q 513 1279 535 1267 q 451 1292 492 1292 q 393 1285 414 1292 q 339 1263 372 1279 l 310 1349 q 372 1385 332 1368 q 471 1401 413 1401 q 603 1365 543 1401 q 663 1243 663 1328 q 642 1169 663 1206 q 583 1110 621 1133 q 492 1086 544 1086 z "},"Ȃ":{"ha":951,"x_min":-22,"x_max":974,"o":"m 482 1022 l 974 0 l 794 0 l 707 200 l 239 200 l 151 0 l -22 0 l 467 1022 l 482 1022 m 413 588 l 301 340 l 646 340 l 536 586 l 476 726 l 474 726 l 413 588 m 224 1104 q 292 1284 224 1214 q 476 1354 360 1354 q 660 1284 592 1354 q 728 1104 728 1214 l 596 1104 q 563 1193 596 1154 q 476 1232 529 1232 q 385 1194 414 1232 q 357 1104 357 1157 l 224 1104 z "},"Ā":{"ha":951,"x_min":-22,"x_max":974,"o":"m 482 1022 l 974 0 l 794 0 l 707 200 l 239 200 l 151 0 l -22 0 l 467 1022 l 482 1022 m 413 588 l 301 340 l 646 340 l 536 586 l 476 726 l 474 726 l 413 588 m 242 1249 l 711 1249 l 711 1133 l 242 1133 l 242 1249 z "},"Ą":{"ha":951,"x_min":-22,"x_max":974,"o":"m 968 0 q 860 -55 907 -18 q 813 -150 813 -92 q 836 -208 813 -183 q 910 -233 860 -233 q 956 -231 936 -233 l 956 -360 q 888 -367 914 -367 q 734 -322 790 -367 q 678 -181 678 -276 q 799 0 678 -75 l 794 0 l 707 200 l 239 200 l 151 0 l -22 0 l 467 1022 l 482 1022 l 974 0 l 968 0 m 646 340 l 536 586 l 476 726 l 474 726 l 413 588 l 301 340 l 646 340 z "},"Å":{"ha":951,"x_min":-22,"x_max":974,"o":"m 482 1022 l 974 0 l 794 0 l 707 200 l 239 200 l 151 0 l -22 0 l 467 1022 l 482 1022 m 413 588 l 301 340 l 646 340 l 536 586 l 476 726 l 474 726 l 413 588 m 476 1054 q 374 1077 421 1054 q 299 1141 326 1100 q 271 1235 271 1182 q 331 1362 271 1313 q 476 1411 392 1411 q 578 1389 531 1411 q 653 1326 625 1367 q 682 1235 682 1285 q 653 1142 682 1183 q 578 1078 625 1101 q 476 1054 531 1054 m 476 1154 q 535 1177 511 1154 q 560 1235 560 1200 q 535 1290 560 1268 q 476 1311 511 1311 q 418 1290 442 1311 q 394 1235 394 1268 q 418 1177 394 1200 q 476 1154 442 1154 z "},"Ǻ":{"ha":951,"x_min":-22,"x_max":974,"o":"m 476 1054 q 374 1077 421 1054 q 299 1141 326 1100 q 271 1235 271 1182 q 302 1331 271 1290 q 386 1394 333 1372 l 635 1583 l 718 1468 l 585 1385 q 656 1323 629 1363 q 682 1235 682 1283 q 653 1142 682 1183 q 578 1078 625 1101 q 476 1054 531 1054 m 476 1311 q 464 1310 468 1311 l 422 1285 l 418 1290 q 394 1235 394 1267 q 418 1177 394 1200 q 476 1154 442 1154 q 535 1177 511 1154 q 560 1235 560 1200 q 535 1290 560 1268 q 476 1311 511 1311 m 974 0 l 794 0 l 707 200 l 239 200 l 151 0 l -22 0 l 467 1022 l 482 1022 l 974 0 m 646 340 l 536 586 l 476 726 l 474 726 l 413 588 l 301 340 l 646 340 z "},"Ã":{"ha":951,"x_min":-22,"x_max":974,"o":"m 482 1022 l 974 0 l 794 0 l 707 200 l 239 200 l 151 0 l -22 0 l 467 1022 l 482 1022 m 413 588 l 301 340 l 646 340 l 536 586 l 476 726 l 474 726 l 413 588 m 569 1119 q 503 1132 529 1119 q 450 1168 478 1144 q 406 1198 424 1189 q 364 1207 389 1207 q 326 1191 339 1207 q 292 1128 313 1175 l 232 1221 q 288 1303 243 1268 q 385 1338 332 1338 q 459 1324 432 1338 q 515 1283 486 1310 q 550 1257 536 1265 q 585 1249 564 1249 q 671 1313 646 1249 l 724 1232 q 671 1151 717 1182 q 569 1119 625 1119 z "},"Æ":{"ha":1132,"x_min":-60,"x_max":1083,"o":"m 625 1021 l 625 1022 l 1051 1021 l 1051 885 l 776 885 l 776 608 l 994 608 l 994 465 l 776 465 l 776 138 l 1083 138 l 1083 0 l 625 0 l 625 258 l 294 258 l 131 0 l -60 0 l 625 1021 m 625 390 l 625 794 l 578 710 l 379 390 l 625 390 z "},"Ǽ":{"ha":1132,"x_min":-60,"x_max":1100,"o":"m 625 1021 l 625 1022 l 1051 1021 l 1051 885 l 776 885 l 776 608 l 994 608 l 994 465 l 776 465 l 776 138 l 1083 138 l 1083 0 l 625 0 l 625 258 l 294 258 l 131 0 l -60 0 l 625 1021 m 625 390 l 625 794 l 578 710 l 379 390 l 625 390 m 744 1176 l 1017 1383 l 1100 1268 l 804 1085 l 744 1176 z "},"B":{"ha":869,"x_min":108,"x_max":796,"o":"m 108 1021 l 368 1021 q 660 947 588 1021 q 732 769 732 874 q 701 638 732 700 q 604 546 671 576 q 749 458 703 521 q 796 311 796 396 q 768 156 796 222 q 653 44 740 89 q 400 0 565 0 l 108 0 l 108 1021 m 393 588 q 533 635 492 588 q 575 757 575 683 q 386 889 575 889 l 261 889 l 261 588 l 393 588 m 421 131 q 591 181 547 131 q 635 310 635 232 q 585 424 635 383 q 433 464 535 464 l 261 464 l 261 131 l 421 131 z "},"C":{"ha":901,"x_min":60,"x_max":858,"o":"m 572 -10 q 298 61 414 -10 q 121 251 182 132 q 60 513 60 369 q 126 783 60 664 q 311 970 192 903 q 582 1038 431 1038 q 709 1023 650 1038 q 807 990 768 1008 q 858 958 846 971 l 790 819 q 569 894 706 894 q 396 847 474 894 q 274 713 318 800 q 229 510 229 625 q 269 318 229 404 q 385 182 308 232 q 567 132 461 132 q 803 201 689 132 l 849 69 q 737 16 818 42 q 572 -10 656 -10 z "},"Ć":{"ha":901,"x_min":60,"x_max":858,"o":"m 572 -10 q 298 61 414 -10 q 121 251 182 132 q 60 513 60 369 q 126 783 60 664 q 311 970 192 903 q 582 1038 431 1038 q 709 1023 650 1038 q 807 990 768 1008 q 858 958 846 971 l 790 819 q 569 894 706 894 q 396 847 474 894 q 274 713 318 800 q 229 510 229 625 q 269 318 229 404 q 385 182 308 232 q 567 132 461 132 q 803 201 689 132 l 849 69 q 737 16 818 42 q 572 -10 656 -10 m 432 1176 l 704 1383 l 788 1268 l 492 1085 l 432 1176 z "},"Č":{"ha":901,"x_min":60,"x_max":858,"o":"m 572 -10 q 298 61 414 -10 q 121 251 182 132 q 60 513 60 369 q 126 783 60 664 q 311 970 192 903 q 582 1038 431 1038 q 709 1023 650 1038 q 807 990 768 1008 q 858 958 846 971 l 790 819 q 569 894 706 894 q 396 847 474 894 q 274 713 318 800 q 229 510 229 625 q 269 318 229 404 q 385 182 308 232 q 567 132 461 132 q 803 201 689 132 l 849 69 q 737 16 818 42 q 572 -10 656 -10 m 282 1290 l 358 1365 l 546 1244 l 733 1365 l 808 1290 l 546 1076 l 282 1290 z "},"Ç":{"ha":901,"x_min":60,"x_max":858,"o":"m 849 69 q 753 22 822 46 q 610 -8 685 -3 q 638 -58 613 -26 q 672 -115 660 -87 q 685 -181 685 -142 q 628 -322 685 -276 q 475 -367 572 -367 q 400 -360 442 -367 l 413 -231 q 451 -233 432 -233 q 550 -171 550 -233 q 544 -145 550 -158 q 534 -124 539 -132 q 528 -114 529 -117 q 508 -79 515 -96 q 500 -42 500 -62 q 507 -7 500 -14 q 267 81 368 8 q 113 267 165 154 q 60 513 60 381 q 126 783 60 664 q 311 970 192 903 q 582 1038 431 1038 q 709 1023 650 1038 q 807 990 768 1008 q 858 958 846 971 l 790 819 q 569 894 706 894 q 396 847 474 894 q 274 713 318 800 q 229 510 229 625 q 269 318 229 404 q 385 182 308 232 q 567 132 461 132 q 803 201 689 132 l 849 69 z "},"Ḉ":{"ha":901,"x_min":60,"x_max":858,"o":"m 492 1085 l 432 1176 l 704 1383 l 788 1268 l 492 1085 m 849 69 q 753 22 822 46 q 610 -8 685 -3 q 638 -58 613 -26 q 672 -115 660 -87 q 685 -181 685 -142 q 628 -322 685 -276 q 475 -367 572 -367 q 400 -360 442 -367 l 413 -231 q 451 -233 432 -233 q 550 -171 550 -233 q 544 -145 550 -158 q 534 -124 539 -132 q 528 -114 529 -117 q 508 -79 515 -96 q 500 -42 500 -62 q 507 -7 500 -14 q 267 81 368 8 q 113 267 165 154 q 60 513 60 381 q 126 783 60 664 q 311 970 192 903 q 582 1038 431 1038 q 709 1023 650 1038 q 807 990 768 1008 q 858 958 846 971 l 790 819 q 569 894 706 894 q 396 847 474 894 q 274 713 318 800 q 229 510 229 625 q 269 318 229 404 q 385 182 308 232 q 567 132 461 132 q 803 201 689 132 l 849 69 z "},"Ĉ":{"ha":901,"x_min":60,"x_max":858,"o":"m 572 -10 q 298 61 414 -10 q 121 251 182 132 q 60 513 60 369 q 126 783 60 664 q 311 970 192 903 q 582 1038 431 1038 q 709 1023 650 1038 q 807 990 768 1008 q 858 958 846 971 l 790 819 q 569 894 706 894 q 396 847 474 894 q 274 713 318 800 q 229 510 229 625 q 269 318 229 404 q 385 182 308 232 q 567 132 461 132 q 803 201 689 132 l 849 69 q 737 16 818 42 q 572 -10 656 -10 m 282 1163 l 546 1376 l 808 1163 l 733 1088 l 546 1208 l 358 1088 l 282 1163 z "},"Ċ":{"ha":901,"x_min":60,"x_max":858,"o":"m 572 -10 q 298 61 414 -10 q 121 251 182 132 q 60 513 60 369 q 126 783 60 664 q 311 970 192 903 q 582 1038 431 1038 q 709 1023 650 1038 q 807 990 768 1008 q 858 958 846 971 l 790 819 q 569 894 706 894 q 396 847 474 894 q 274 713 318 800 q 229 510 229 625 q 269 318 229 404 q 385 182 308 232 q 567 132 461 132 q 803 201 689 132 l 849 69 q 737 16 818 42 q 572 -10 656 -10 m 546 1122 q 474 1151 503 1122 q 446 1221 446 1179 q 474 1292 446 1264 q 546 1321 503 1321 q 617 1292 589 1321 q 646 1221 646 1264 q 617 1151 646 1179 q 546 1122 588 1122 z "},"D":{"ha":956,"x_min":108,"x_max":908,"o":"m 108 1021 l 354 1021 q 785 875 663 1021 q 908 528 908 729 q 856 269 908 388 q 681 75 803 150 q 363 0 560 0 l 108 0 l 108 1021 m 379 138 q 658 247 571 138 q 744 521 744 356 q 657 783 744 682 q 379 885 569 885 l 264 885 l 264 138 l 379 138 z "},"Ǆ":{"ha":1706,"x_min":108,"x_max":1667,"o":"m 108 1021 l 354 1021 q 785 875 663 1021 q 908 528 908 729 q 856 269 908 388 q 681 75 803 150 q 363 0 560 0 l 108 0 l 108 1021 m 379 138 q 658 247 571 138 q 744 521 744 356 q 657 783 744 682 q 379 885 569 885 l 264 885 l 264 138 l 379 138 m 1422 888 l 976 888 l 976 1021 l 1667 1021 l 1163 136 l 1646 136 l 1646 0 l 911 0 l 1422 888 m 1043 1290 l 1119 1365 l 1307 1244 l 1494 1365 l 1569 1290 l 1307 1076 l 1043 1290 z "},"Ð":{"ha":1022,"x_min":28,"x_max":940,"o":"m 136 457 l 28 457 l 28 599 l 136 599 l 136 1021 l 324 1021 q 799 881 658 1021 q 940 524 940 742 q 799 139 940 278 q 324 0 658 0 l 136 0 l 136 457 m 367 138 q 683 234 589 138 q 778 513 778 331 q 367 885 778 885 l 292 885 l 292 599 l 489 599 l 489 457 l 292 457 l 292 138 l 367 138 z "},"Ď":{"ha":956,"x_min":108,"x_max":908,"o":"m 108 1021 l 354 1021 q 785 875 663 1021 q 908 528 908 729 q 856 269 908 388 q 681 75 803 150 q 363 0 560 0 l 108 0 l 108 1021 m 379 138 q 658 247 571 138 q 744 521 744 356 q 657 783 744 682 q 379 885 569 885 l 264 885 l 264 138 l 379 138 m 154 1290 l 231 1365 l 418 1244 l 606 1365 l 681 1290 l 418 1076 l 154 1290 z "},"Đ":{"ha":1022,"x_min":28,"x_max":940,"o":"m 136 457 l 28 457 l 28 599 l 136 599 l 136 1021 l 324 1021 q 799 881 658 1021 q 940 524 940 742 q 799 139 940 278 q 324 0 658 0 l 136 0 l 136 457 m 367 138 q 683 234 589 138 q 778 513 778 331 q 367 885 778 885 l 292 885 l 292 599 l 489 599 l 489 457 l 292 457 l 292 138 l 367 138 z "},"Ḍ":{"ha":956,"x_min":108,"x_max":908,"o":"m 108 1021 l 354 1021 q 785 875 663 1021 q 908 528 908 729 q 856 269 908 388 q 681 75 803 150 q 363 0 560 0 l 108 0 l 108 1021 m 379 138 q 658 247 571 138 q 744 521 744 356 q 657 783 744 682 q 379 885 569 885 l 264 885 l 264 138 l 379 138 m 465 -303 q 393 -274 422 -303 q 364 -201 364 -244 q 393 -135 364 -162 q 465 -107 422 -107 q 536 -135 507 -107 q 565 -201 565 -162 q 537 -274 565 -244 q 465 -303 508 -303 z "},"Ḏ":{"ha":956,"x_min":108,"x_max":908,"o":"m 108 1021 l 354 1021 q 785 875 663 1021 q 908 528 908 729 q 856 269 908 388 q 681 75 803 150 q 363 0 560 0 l 108 0 l 108 1021 m 379 138 q 658 247 571 138 q 744 521 744 356 q 657 783 744 682 q 379 885 569 885 l 264 885 l 264 138 l 379 138 m 228 -112 l 697 -112 l 697 -228 l 228 -228 l 228 -112 z "},"ǅ":{"ha":1583,"x_min":108,"x_max":1540,"o":"m 108 1021 l 354 1021 q 785 875 663 1021 q 908 528 908 729 q 856 269 908 388 q 681 75 803 150 q 363 0 560 0 l 108 0 l 108 1021 m 379 138 q 658 247 571 138 q 744 521 744 356 q 657 783 744 682 q 379 885 569 885 l 264 885 l 264 138 l 379 138 z "},"E":{"ha":649,"x_min":107,"x_max":600,"o":"m 107 1021 l 554 1021 l 554 885 l 261 885 l 261 603 l 497 603 l 497 464 l 261 464 l 261 138 l 600 138 l 600 0 l 107 0 l 107 1021 z "},"É":{"ha":649,"x_min":107,"x_max":600,"o":"m 107 1021 l 554 1021 l 554 885 l 261 885 l 261 603 l 497 603 l 497 464 l 261 464 l 261 138 l 600 138 l 600 0 l 107 0 l 107 1021 m 221 1176 l 493 1383 l 576 1268 l 281 1085 l 221 1176 z "},"Ĕ":{"ha":649,"x_min":82,"x_max":600,"o":"m 107 1021 l 554 1021 l 554 885 l 261 885 l 261 603 l 497 603 l 497 464 l 261 464 l 261 138 l 600 138 l 600 0 l 107 0 l 107 1021 m 335 1096 q 150 1166 218 1096 q 82 1346 82 1236 l 215 1346 q 244 1256 215 1293 q 335 1218 272 1218 q 421 1257 388 1218 q 454 1346 454 1296 l 586 1346 q 518 1166 586 1236 q 335 1096 450 1096 z "},"Ě":{"ha":649,"x_min":71,"x_max":600,"o":"m 107 1021 l 554 1021 l 554 885 l 261 885 l 261 603 l 497 603 l 497 464 l 261 464 l 261 138 l 600 138 l 600 0 l 107 0 l 107 1021 m 71 1290 l 147 1365 l 335 1244 l 522 1365 l 597 1290 l 335 1076 l 71 1290 z "},"Ḝ":{"ha":649,"x_min":82,"x_max":600,"o":"m 335 1096 q 150 1166 218 1096 q 82 1346 82 1236 l 215 1346 q 244 1256 215 1293 q 335 1218 272 1218 q 421 1257 388 1218 q 454 1346 454 1296 l 586 1346 q 518 1166 586 1236 q 335 1096 450 1096 m 600 0 l 361 0 q 367 -26 361 -14 q 389 -58 374 -37 q 424 -115 411 -87 q 436 -181 436 -142 q 380 -322 436 -276 q 226 -367 324 -367 q 151 -360 193 -367 l 164 -231 q 203 -233 183 -233 q 301 -171 301 -233 q 296 -145 301 -158 q 285 -124 290 -132 q 279 -114 281 -117 q 259 -79 267 -96 q 251 -42 251 -62 q 257 -8 251 -14 q 263 0 263 -1 l 107 0 l 107 1021 l 554 1021 l 554 885 l 261 885 l 261 603 l 497 603 l 497 464 l 261 464 l 261 138 l 600 138 l 600 0 z "},"Ê":{"ha":649,"x_min":71,"x_max":600,"o":"m 107 1021 l 554 1021 l 554 885 l 261 885 l 261 603 l 497 603 l 497 464 l 261 464 l 261 138 l 600 138 l 600 0 l 107 0 l 107 1021 m 71 1163 l 335 1376 l 597 1163 l 522 1088 l 335 1208 l 147 1088 l 71 1163 z "},"Ế":{"ha":649,"x_min":71,"x_max":600,"o":"m 107 1021 l 554 1021 l 554 885 l 261 885 l 261 603 l 497 603 l 497 464 l 261 464 l 261 138 l 600 138 l 600 0 l 107 0 l 107 1021 m 71 1163 l 335 1376 l 597 1163 l 522 1088 l 335 1208 l 147 1088 l 71 1163 m 221 1503 l 493 1710 l 576 1594 l 281 1411 l 221 1503 z "},"Ệ":{"ha":649,"x_min":71,"x_max":600,"o":"m 107 1021 l 554 1021 l 554 885 l 261 885 l 261 603 l 497 603 l 497 464 l 261 464 l 261 138 l 600 138 l 600 0 l 107 0 l 107 1021 m 317 -317 q 244 -287 274 -317 q 215 -215 215 -258 q 244 -149 215 -176 q 317 -121 274 -121 q 388 -149 358 -121 q 417 -215 417 -176 q 388 -287 417 -258 q 317 -317 360 -317 m 71 1163 l 335 1376 l 597 1163 l 522 1088 l 335 1208 l 147 1088 l 71 1163 z "},"Ề":{"ha":649,"x_min":71,"x_max":600,"o":"m 107 1021 l 554 1021 l 554 885 l 261 885 l 261 603 l 497 603 l 497 464 l 261 464 l 261 138 l 600 138 l 600 0 l 107 0 l 107 1021 m 71 1163 l 335 1376 l 597 1163 l 522 1088 l 335 1208 l 147 1088 l 71 1163 m 93 1594 l 176 1710 l 449 1503 l 389 1411 l 93 1594 z "},"Ể":{"ha":649,"x_min":71,"x_max":600,"o":"m 107 1021 l 554 1021 l 554 885 l 261 885 l 261 603 l 497 603 l 497 464 l 261 464 l 261 138 l 600 138 l 600 0 l 107 0 l 107 1021 m 71 1163 l 335 1376 l 597 1163 l 522 1088 l 335 1208 l 147 1088 l 71 1163 m 350 1413 q 306 1414 326 1413 q 267 1421 286 1415 l 243 1508 q 285 1504 263 1504 q 360 1519 326 1504 q 393 1569 393 1535 q 372 1606 393 1593 q 310 1618 350 1618 q 251 1612 272 1618 q 197 1589 231 1606 l 168 1675 q 231 1711 190 1694 q 329 1728 271 1728 q 461 1691 401 1728 q 521 1569 521 1654 q 500 1496 521 1532 q 441 1436 479 1460 q 350 1413 403 1413 z "},"Ễ":{"ha":649,"x_min":71,"x_max":600,"o":"m 107 1021 l 554 1021 l 554 885 l 261 885 l 261 603 l 497 603 l 497 464 l 261 464 l 261 138 l 600 138 l 600 0 l 107 0 l 107 1021 m 71 1163 l 335 1376 l 597 1163 l 522 1088 l 335 1208 l 147 1088 l 71 1163 m 428 1446 q 362 1458 388 1446 q 308 1494 336 1471 q 265 1524 282 1515 q 222 1533 247 1533 q 184 1517 197 1533 q 150 1454 171 1501 l 90 1547 q 146 1629 101 1594 q 243 1664 190 1664 q 317 1650 290 1664 q 374 1610 344 1636 q 408 1583 394 1592 q 443 1575 422 1575 q 529 1639 504 1575 l 582 1558 q 529 1477 575 1508 q 428 1446 483 1446 z "},"Ȅ":{"ha":649,"x_min":-44,"x_max":600,"o":"m 107 1021 l 554 1021 l 554 885 l 261 885 l 261 603 l 497 603 l 497 464 l 261 464 l 261 138 l 600 138 l 600 0 l 107 0 l 107 1021 m 258 1338 l 394 1406 l 533 1119 l 433 1076 l 258 1338 m -44 1336 l 92 1404 l 244 1119 l 144 1076 l -44 1336 z "},"Ë":{"ha":649,"x_min":67,"x_max":603,"o":"m 107 1021 l 554 1021 l 554 885 l 261 885 l 261 603 l 497 603 l 497 464 l 261 464 l 261 138 l 600 138 l 600 0 l 107 0 l 107 1021 m 167 1111 q 96 1140 125 1111 q 67 1210 67 1169 q 95 1280 67 1251 q 167 1308 124 1308 q 238 1280 210 1308 q 267 1210 267 1251 q 238 1140 267 1169 q 167 1111 208 1111 m 501 1111 q 431 1140 460 1111 q 401 1210 401 1169 q 430 1280 401 1251 q 501 1308 458 1308 q 574 1280 544 1308 q 603 1210 603 1251 q 574 1140 603 1169 q 501 1111 544 1111 z "},"Ė":{"ha":649,"x_min":107,"x_max":600,"o":"m 107 1021 l 554 1021 l 554 885 l 261 885 l 261 603 l 497 603 l 497 464 l 261 464 l 261 138 l 600 138 l 600 0 l 107 0 l 107 1021 m 335 1122 q 263 1151 292 1122 q 235 1221 235 1179 q 263 1292 235 1264 q 335 1321 292 1321 q 406 1292 378 1321 q 435 1221 435 1264 q 406 1151 435 1179 q 335 1122 376 1122 z "},"Ẹ":{"ha":649,"x_min":107,"x_max":600,"o":"m 107 1021 l 554 1021 l 554 885 l 261 885 l 261 603 l 497 603 l 497 464 l 261 464 l 261 138 l 600 138 l 600 0 l 107 0 l 107 1021 m 317 -317 q 244 -287 274 -317 q 215 -215 215 -258 q 244 -149 215 -176 q 317 -121 274 -121 q 388 -149 358 -121 q 417 -215 417 -176 q 388 -287 417 -258 q 317 -317 360 -317 z "},"È":{"ha":649,"x_min":93,"x_max":600,"o":"m 107 1021 l 554 1021 l 554 885 l 261 885 l 261 603 l 497 603 l 497 464 l 261 464 l 261 138 l 600 138 l 600 0 l 107 0 l 107 1021 m 93 1268 l 176 1383 l 449 1176 l 389 1085 l 93 1268 z "},"Ẻ":{"ha":649,"x_min":107,"x_max":600,"o":"m 107 1021 l 554 1021 l 554 885 l 261 885 l 261 603 l 497 603 l 497 464 l 261 464 l 261 138 l 600 138 l 600 0 l 107 0 l 107 1021 m 350 1086 q 306 1088 326 1086 q 267 1094 286 1089 l 243 1182 q 285 1178 263 1178 q 360 1193 326 1178 q 393 1243 393 1208 q 372 1279 393 1267 q 310 1292 350 1292 q 251 1285 272 1292 q 197 1263 231 1279 l 168 1349 q 231 1385 190 1368 q 329 1401 271 1401 q 461 1365 401 1401 q 521 1243 521 1328 q 500 1169 521 1206 q 441 1110 479 1133 q 350 1086 403 1086 z "},"Ȇ":{"ha":649,"x_min":82,"x_max":600,"o":"m 107 1021 l 554 1021 l 554 885 l 261 885 l 261 603 l 497 603 l 497 464 l 261 464 l 261 138 l 600 138 l 600 0 l 107 0 l 107 1021 m 82 1104 q 150 1284 82 1214 q 335 1354 218 1354 q 518 1284 450 1354 q 586 1104 586 1214 l 454 1104 q 421 1193 454 1154 q 335 1232 388 1232 q 244 1194 272 1232 q 215 1104 215 1157 l 82 1104 z "},"Ē":{"ha":649,"x_min":100,"x_max":600,"o":"m 107 1021 l 554 1021 l 554 885 l 261 885 l 261 603 l 497 603 l 497 464 l 261 464 l 261 138 l 600 138 l 600 0 l 107 0 l 107 1021 m 100 1249 l 569 1249 l 569 1133 l 100 1133 l 100 1249 z "},"Ḗ":{"ha":649,"x_min":100,"x_max":600,"o":"m 107 1021 l 554 1021 l 554 885 l 261 885 l 261 603 l 497 603 l 497 464 l 261 464 l 261 138 l 600 138 l 600 0 l 107 0 l 107 1021 m 100 1249 l 569 1249 l 569 1133 l 100 1133 l 100 1249 m 221 1447 l 493 1654 l 576 1539 l 281 1356 l 221 1447 z "},"Ḕ":{"ha":649,"x_min":93,"x_max":600,"o":"m 107 1021 l 554 1021 l 554 885 l 261 885 l 261 603 l 497 603 l 497 464 l 261 464 l 261 138 l 600 138 l 600 0 l 107 0 l 107 1021 m 100 1249 l 569 1249 l 569 1133 l 100 1133 l 100 1249 m 93 1539 l 176 1654 l 449 1447 l 389 1356 l 93 1539 z "},"Ę":{"ha":650,"x_min":107,"x_max":601,"o":"m 444 -150 q 468 -208 444 -183 q 542 -233 492 -233 q 588 -231 568 -233 l 588 -360 q 567 -364 582 -361 q 533 -367 553 -367 q 372 -322 433 -367 q 310 -181 310 -276 q 344 -76 310 -121 q 428 0 379 -31 l 107 0 l 107 1021 l 554 1021 l 554 885 l 261 885 l 261 603 l 497 603 l 497 464 l 261 464 l 261 138 l 600 138 l 600 1 l 601 0 q 494 -50 544 -10 q 444 -150 444 -90 z "},"Ẽ":{"ha":649,"x_min":90,"x_max":600,"o":"m 107 1021 l 554 1021 l 554 885 l 261 885 l 261 603 l 497 603 l 497 464 l 261 464 l 261 138 l 600 138 l 600 0 l 107 0 l 107 1021 m 428 1119 q 362 1132 388 1119 q 308 1168 336 1144 q 265 1198 282 1189 q 222 1207 247 1207 q 184 1191 197 1207 q 150 1128 171 1175 l 90 1221 q 146 1303 101 1268 q 243 1338 190 1338 q 317 1324 290 1338 q 374 1283 344 1310 q 408 1257 394 1265 q 443 1249 422 1249 q 529 1313 504 1249 l 582 1232 q 529 1151 575 1182 q 428 1119 483 1119 z "},"F":{"ha":649,"x_min":107,"x_max":586,"o":"m 107 1021 l 586 1021 l 586 886 l 261 886 l 261 597 l 514 597 l 514 461 l 261 461 l 261 0 l 107 0 l 107 1021 z "},"G":{"ha":1033,"x_min":60,"x_max":968,"o":"m 585 -14 q 314 56 433 -14 q 127 247 194 125 q 60 519 60 368 q 128 785 60 667 q 317 969 196 903 q 589 1036 438 1036 q 737 1022 671 1036 q 844 988 803 1007 q 901 956 886 969 l 840 825 q 586 894 754 894 q 393 846 475 894 q 268 714 311 797 q 225 528 225 631 q 272 319 225 411 q 401 177 318 228 q 588 126 483 126 q 713 142 653 126 q 814 193 772 158 l 814 390 l 604 390 l 604 533 l 968 533 l 968 133 q 817 28 918 71 q 585 -14 717 -14 z "},"Ğ":{"ha":1033,"x_min":60,"x_max":968,"o":"m 585 -14 q 314 56 433 -14 q 127 247 194 125 q 60 519 60 368 q 128 785 60 667 q 317 969 196 903 q 589 1036 438 1036 q 737 1022 671 1036 q 844 988 803 1007 q 901 956 886 969 l 840 825 q 586 894 754 894 q 393 846 475 894 q 268 714 311 797 q 225 528 225 631 q 272 319 225 411 q 401 177 318 228 q 588 126 483 126 q 713 142 653 126 q 814 193 772 158 l 814 390 l 604 390 l 604 533 l 968 533 l 968 133 q 817 28 918 71 q 585 -14 717 -14 m 539 1096 q 354 1166 422 1096 q 286 1346 286 1236 l 419 1346 q 448 1256 419 1293 q 539 1218 476 1218 q 625 1257 592 1218 q 658 1346 658 1296 l 790 1346 q 722 1166 790 1236 q 539 1096 654 1096 z "},"Ǧ":{"ha":1033,"x_min":60,"x_max":968,"o":"m 585 -14 q 314 56 433 -14 q 127 247 194 125 q 60 519 60 368 q 128 785 60 667 q 317 969 196 903 q 589 1036 438 1036 q 737 1022 671 1036 q 844 988 803 1007 q 901 956 886 969 l 840 825 q 586 894 754 894 q 393 846 475 894 q 268 714 311 797 q 225 528 225 631 q 272 319 225 411 q 401 177 318 228 q 588 126 483 126 q 713 142 653 126 q 814 193 772 158 l 814 390 l 604 390 l 604 533 l 968 533 l 968 133 q 817 28 918 71 q 585 -14 717 -14 m 275 1290 l 351 1365 l 539 1244 l 726 1365 l 801 1290 l 539 1076 l 275 1290 z "},"Ĝ":{"ha":1033,"x_min":60,"x_max":968,"o":"m 585 -14 q 314 56 433 -14 q 127 247 194 125 q 60 519 60 368 q 128 785 60 667 q 317 969 196 903 q 589 1036 438 1036 q 737 1022 671 1036 q 844 988 803 1007 q 901 956 886 969 l 840 825 q 586 894 754 894 q 393 846 475 894 q 268 714 311 797 q 225 528 225 631 q 272 319 225 411 q 401 177 318 228 q 588 126 483 126 q 713 142 653 126 q 814 193 772 158 l 814 390 l 604 390 l 604 533 l 968 533 l 968 133 q 817 28 918 71 q 585 -14 717 -14 m 275 1163 l 539 1376 l 801 1163 l 726 1088 l 539 1208 l 351 1088 l 275 1163 z "},"Ģ":{"ha":1033,"x_min":60,"x_max":968,"o":"m 585 -14 q 314 56 433 -14 q 127 247 194 125 q 60 519 60 368 q 128 785 60 667 q 317 969 196 903 q 589 1036 438 1036 q 737 1022 671 1036 q 844 988 803 1007 q 901 956 886 969 l 840 825 q 586 894 754 894 q 393 846 475 894 q 268 714 311 797 q 225 528 225 631 q 272 319 225 411 q 401 177 318 228 q 588 126 483 126 q 713 142 653 126 q 814 193 772 158 l 814 390 l 604 390 l 604 533 l 968 533 l 968 133 q 817 28 918 71 q 585 -14 717 -14 m 483 -381 q 501 -331 488 -369 q 518 -257 514 -292 q 474 -175 474 -228 q 503 -104 474 -132 q 575 -76 532 -76 q 646 -104 618 -76 q 674 -175 674 -132 q 638 -292 674 -229 q 569 -381 601 -354 l 483 -381 z "},"Ġ":{"ha":1033,"x_min":60,"x_max":968,"o":"m 585 -14 q 314 56 433 -14 q 127 247 194 125 q 60 519 60 368 q 128 785 60 667 q 317 969 196 903 q 589 1036 438 1036 q 737 1022 671 1036 q 844 988 803 1007 q 901 956 886 969 l 840 825 q 586 894 754 894 q 393 846 475 894 q 268 714 311 797 q 225 528 225 631 q 272 319 225 411 q 401 177 318 228 q 588 126 483 126 q 713 142 653 126 q 814 193 772 158 l 814 390 l 604 390 l 604 533 l 968 533 l 968 133 q 817 28 918 71 q 585 -14 717 -14 m 539 1122 q 467 1151 496 1122 q 439 1221 439 1179 q 467 1292 439 1264 q 539 1321 496 1321 q 610 1292 582 1321 q 639 1221 639 1264 q 610 1151 639 1179 q 539 1122 581 1122 z "},"Ḡ":{"ha":1033,"x_min":60,"x_max":968,"o":"m 585 -14 q 314 56 433 -14 q 127 247 194 125 q 60 519 60 368 q 128 785 60 667 q 317 969 196 903 q 589 1036 438 1036 q 737 1022 671 1036 q 844 988 803 1007 q 901 956 886 969 l 840 825 q 586 894 754 894 q 393 846 475 894 q 268 714 311 797 q 225 528 225 631 q 272 319 225 411 q 401 177 318 228 q 588 126 483 126 q 713 142 653 126 q 814 193 772 158 l 814 390 l 604 390 l 604 533 l 968 533 l 968 133 q 817 28 918 71 q 585 -14 717 -14 m 304 1249 l 774 1249 l 774 1133 l 304 1133 l 304 1249 z "},"H":{"ha":885,"x_min":107,"x_max":778,"o":"m 107 1021 l 263 1021 l 263 604 l 622 604 l 622 1021 l 778 1021 l 778 0 l 622 0 l 622 474 l 263 474 l 263 0 l 107 0 l 107 1021 z "},"Ħ":{"ha":910,"x_min":50,"x_max":860,"o":"m 860 624 l 790 624 l 790 0 l 635 0 l 635 371 l 275 371 l 275 0 l 119 0 l 119 624 l 50 624 l 50 732 l 119 732 l 119 1021 l 275 1021 l 275 732 l 635 732 l 635 1021 l 790 1021 l 790 732 l 860 732 l 860 624 m 635 624 l 275 624 l 275 501 l 635 501 l 635 624 z "},"Ḫ":{"ha":885,"x_min":107,"x_max":778,"o":"m 107 1021 l 263 1021 l 263 604 l 622 604 l 622 1021 l 778 1021 l 778 0 l 622 0 l 622 474 l 263 474 l 263 0 l 107 0 l 107 1021 m 442 -314 q 264 -249 328 -314 q 200 -76 200 -185 l 328 -76 q 355 -160 328 -128 q 442 -193 382 -193 q 526 -159 494 -193 q 557 -76 557 -125 l 683 -76 q 618 -249 683 -185 q 442 -314 553 -314 z "},"Ĥ":{"ha":885,"x_min":107,"x_max":778,"o":"m 107 1021 l 263 1021 l 263 604 l 622 604 l 622 1021 l 778 1021 l 778 0 l 622 0 l 622 474 l 263 474 l 263 0 l 107 0 l 107 1021 m 178 1163 l 442 1376 l 704 1163 l 629 1088 l 442 1208 l 254 1088 l 178 1163 z "},"Ḥ":{"ha":885,"x_min":107,"x_max":778,"o":"m 107 1021 l 263 1021 l 263 604 l 622 604 l 622 1021 l 778 1021 l 778 0 l 622 0 l 622 474 l 263 474 l 263 0 l 107 0 l 107 1021 m 444 -317 q 372 -287 401 -317 q 343 -215 343 -258 q 372 -149 343 -176 q 444 -121 401 -121 q 515 -149 486 -121 q 544 -215 544 -176 q 516 -287 544 -258 q 444 -317 488 -317 z "},"I":{"ha":408,"x_min":126,"x_max":282,"o":"m 126 1021 l 282 1021 l 282 0 l 126 0 l 126 1021 z "},"Ĳ":{"ha":1049,"x_min":126,"x_max":931,"o":"m 126 1021 l 282 1021 l 282 0 l 126 0 l 126 1021 m 676 -14 q 558 1 618 -14 q 458 50 499 15 l 521 193 q 577 149 546 164 q 654 135 608 135 q 724 150 697 135 q 763 206 750 165 q 776 321 776 246 l 776 1021 l 931 1021 l 931 282 q 860 56 931 126 q 676 -14 790 -14 z "},"Í":{"ha":408,"x_min":90,"x_max":446,"o":"m 126 1021 l 282 1021 l 282 0 l 126 0 l 126 1021 m 90 1176 l 363 1383 l 446 1268 l 150 1085 l 90 1176 z "},"Ĭ":{"ha":408,"x_min":-49,"x_max":456,"o":"m 126 1021 l 282 1021 l 282 0 l 126 0 l 126 1021 m 204 1096 q 19 1166 88 1096 q -49 1346 -49 1236 l 85 1346 q 113 1256 85 1293 q 204 1218 142 1218 q 290 1257 257 1218 q 324 1346 324 1296 l 456 1346 q 388 1166 456 1236 q 204 1096 319 1096 z "},"Î":{"ha":408,"x_min":-60,"x_max":467,"o":"m 126 1021 l 282 1021 l 282 0 l 126 0 l 126 1021 m -60 1163 l 204 1376 l 467 1163 l 392 1088 l 204 1208 l 17 1088 l -60 1163 z "},"Ȉ":{"ha":408,"x_min":-175,"x_max":403,"o":"m 126 1021 l 282 1021 l 282 0 l 126 0 l 126 1021 m 128 1338 l 264 1406 l 403 1119 l 303 1076 l 128 1338 m -175 1336 l -39 1404 l 114 1119 l 14 1076 l -175 1336 z "},"Ï":{"ha":408,"x_min":-64,"x_max":472,"o":"m 126 1021 l 282 1021 l 282 0 l 126 0 l 126 1021 m 36 1111 q -35 1140 -6 1111 q -64 1210 -64 1169 q -35 1280 -64 1251 q 36 1308 -7 1308 q 108 1280 79 1308 q 136 1210 136 1251 q 107 1140 136 1169 q 36 1111 78 1111 m 371 1111 q 300 1140 329 1111 q 271 1210 271 1169 q 299 1280 271 1251 q 371 1308 328 1308 q 443 1280 414 1308 q 472 1210 472 1251 q 443 1140 472 1169 q 371 1111 414 1111 z "},"Ḯ":{"ha":408,"x_min":-64,"x_max":472,"o":"m 126 1021 l 282 1021 l 282 0 l 126 0 l 126 1021 m 36 1111 q -35 1140 -6 1111 q -64 1210 -64 1169 q -35 1280 -64 1251 q 36 1308 -7 1308 q 108 1280 79 1308 q 136 1210 136 1251 q 107 1140 136 1169 q 36 1111 78 1111 m 371 1111 q 300 1140 329 1111 q 271 1210 271 1169 q 299 1280 271 1251 q 371 1308 328 1308 q 443 1280 414 1308 q 472 1210 472 1251 q 443 1140 472 1169 q 371 1111 414 1111 m 90 1447 l 363 1654 l 446 1539 l 150 1356 l 90 1447 z "},"İ":{"ha":408,"x_min":104,"x_max":304,"o":"m 126 1021 l 282 1021 l 282 0 l 126 0 l 126 1021 m 204 1122 q 133 1151 161 1122 q 104 1221 104 1179 q 133 1292 104 1264 q 204 1321 161 1321 q 276 1292 247 1321 q 304 1221 304 1264 q 275 1151 304 1179 q 204 1122 246 1122 z "},"Ị":{"ha":408,"x_min":110,"x_max":311,"o":"m 126 1021 l 282 1021 l 282 0 l 126 0 l 126 1021 m 211 -317 q 139 -287 168 -317 q 110 -215 110 -258 q 139 -149 110 -176 q 211 -121 168 -121 q 282 -149 253 -121 q 311 -215 311 -176 q 283 -287 311 -258 q 211 -317 254 -317 z "},"Ì":{"ha":408,"x_min":-37,"x_max":318,"o":"m 126 1021 l 282 1021 l 282 0 l 126 0 l 126 1021 m -37 1268 l 46 1383 l 318 1176 l 258 1085 l -37 1268 z "},"Ỉ":{"ha":408,"x_min":38,"x_max":390,"o":"m 126 1021 l 282 1021 l 282 0 l 126 0 l 126 1021 m 219 1086 q 176 1088 196 1086 q 136 1094 156 1089 l 113 1182 q 154 1178 132 1178 q 229 1193 196 1178 q 263 1243 263 1208 q 241 1279 263 1267 q 179 1292 219 1292 q 121 1285 142 1292 q 67 1263 100 1279 l 38 1349 q 100 1385 60 1368 q 199 1401 140 1401 q 331 1365 271 1401 q 390 1243 390 1328 q 369 1169 390 1206 q 310 1110 349 1133 q 219 1086 272 1086 z "},"Ȋ":{"ha":408,"x_min":-49,"x_max":456,"o":"m 126 1021 l 282 1021 l 282 0 l 126 0 l 126 1021 m -49 1104 q 19 1284 -49 1214 q 204 1354 88 1354 q 388 1284 319 1354 q 456 1104 456 1214 l 324 1104 q 290 1193 324 1154 q 204 1232 257 1232 q 113 1194 142 1232 q 85 1104 85 1157 l -49 1104 z "},"Ī":{"ha":408,"x_min":-31,"x_max":439,"o":"m 126 1021 l 282 1021 l 282 0 l 126 0 l 126 1021 m -31 1249 l 439 1249 l 439 1133 l -31 1133 l -31 1249 z "},"Į":{"ha":408,"x_min":4,"x_max":282,"o":"m 282 0 q 181 -53 224 -17 q 139 -150 139 -90 q 163 -208 139 -183 q 236 -233 186 -233 q 282 -231 263 -233 l 282 -360 q 214 -367 240 -367 q 60 -322 117 -367 q 4 -181 4 -276 q 41 -69 4 -115 q 126 8 78 -22 l 126 1021 l 282 1021 l 282 0 z "},"Ĩ":{"ha":408,"x_min":-40,"x_max":451,"o":"m 126 1021 l 282 1021 l 282 0 l 126 0 l 126 1021 m 297 1119 q 231 1132 257 1119 q 178 1168 206 1144 q 134 1198 151 1189 q 92 1207 117 1207 q 53 1191 67 1207 q 19 1128 40 1175 l -40 1221 q 15 1303 -29 1268 q 113 1338 60 1338 q 187 1324 160 1338 q 243 1283 214 1310 q 278 1257 264 1265 q 313 1249 292 1249 q 399 1313 374 1249 l 451 1232 q 399 1151 444 1182 q 297 1119 353 1119 z "},"J":{"ha":640,"x_min":50,"x_max":522,"o":"m 268 -14 q 150 1 210 -14 q 50 50 90 15 l 113 193 q 169 149 138 164 q 246 135 200 135 q 315 150 289 135 q 355 206 342 165 q 368 321 368 246 l 368 1021 l 522 1021 l 522 282 q 452 56 522 126 q 268 -14 382 -14 z "},"Ĵ":{"ha":640,"x_min":50,"x_max":707,"o":"m 268 -14 q 150 1 210 -14 q 50 50 90 15 l 113 193 q 169 149 138 164 q 246 135 200 135 q 315 150 289 135 q 355 206 342 165 q 368 321 368 246 l 368 1021 l 522 1021 l 522 282 q 452 56 522 126 q 268 -14 382 -14 m 181 1163 l 444 1376 l 707 1163 l 632 1088 l 444 1208 l 257 1088 l 181 1163 z "},"K":{"ha":826,"x_min":108,"x_max":847,"o":"m 344 457 l 261 354 l 261 0 l 108 0 l 108 1021 l 261 1021 l 261 565 l 611 1021 l 797 1021 l 446 572 l 847 0 l 657 0 l 344 457 z "},"Ķ":{"ha":826,"x_min":108,"x_max":847,"o":"m 344 457 l 261 354 l 261 0 l 108 0 l 108 1021 l 261 1021 l 261 565 l 611 1021 l 797 1021 l 446 572 l 847 0 l 657 0 l 344 457 m 317 -381 q 334 -331 321 -369 q 351 -257 347 -292 q 307 -175 307 -228 q 336 -104 307 -132 q 408 -76 365 -76 q 479 -104 451 -76 q 507 -175 507 -132 q 471 -292 507 -229 q 403 -381 435 -354 l 317 -381 z "},"L":{"ha":600,"x_min":108,"x_max":558,"o":"m 108 1021 l 265 1021 l 265 139 l 558 139 l 558 0 l 108 0 l 108 1021 z "},"Ǉ":{"ha":1240,"x_min":108,"x_max":1122,"o":"m 108 1021 l 265 1021 l 265 139 l 558 139 l 558 0 l 108 0 l 108 1021 m 868 -14 q 750 1 810 -14 q 650 50 690 15 l 713 193 q 769 149 738 164 q 846 135 800 135 q 915 150 889 135 q 955 206 942 165 q 968 321 968 246 l 968 1021 l 1122 1021 l 1122 282 q 1052 56 1122 126 q 868 -14 982 -14 z "},"Ĺ":{"ha":600,"x_min":94,"x_max":558,"o":"m 108 1021 l 265 1021 l 265 139 l 558 139 l 558 0 l 108 0 l 108 1021 m 94 1176 l 367 1383 l 450 1268 l 154 1085 l 94 1176 z "},"Ľ":{"ha":600,"x_min":108,"x_max":581,"o":"m 108 1021 l 265 1021 l 265 139 l 558 139 l 558 0 l 108 0 l 108 1021 m 444 1021 l 581 1021 l 542 681 l 444 681 l 444 1021 z "},"Ļ":{"ha":600,"x_min":108,"x_max":558,"o":"m 108 1021 l 265 1021 l 265 139 l 558 139 l 558 0 l 108 0 l 108 1021 m 213 -381 q 230 -331 217 -369 q 247 -257 243 -292 q 203 -175 203 -228 q 232 -104 203 -132 q 304 -76 261 -76 q 375 -104 347 -76 q 403 -175 403 -132 q 367 -292 403 -229 q 299 -381 331 -354 l 213 -381 z "},"Ŀ":{"ha":636,"x_min":108,"x_max":622,"o":"m 519 382 q 449 411 478 382 q 421 483 421 440 q 449 553 421 525 q 519 582 476 582 q 592 553 563 582 q 622 483 622 525 q 593 411 622 440 q 519 382 564 382 m 108 1021 l 265 1021 l 265 139 l 558 139 l 558 0 l 108 0 l 108 1021 z "},"Ḷ":{"ha":600,"x_min":108,"x_max":558,"o":"m 108 1021 l 265 1021 l 265 139 l 558 139 l 558 0 l 108 0 l 108 1021 m 313 -317 q 240 -287 269 -317 q 211 -215 211 -258 q 240 -149 211 -176 q 313 -121 269 -121 q 383 -149 354 -121 q 413 -215 413 -176 q 384 -287 413 -258 q 313 -317 356 -317 z "},"ǈ":{"ha":988,"x_min":108,"x_max":894,"o":"m 108 1021 l 265 1021 l 265 139 l 558 139 l 558 0 l 108 0 l 108 1021 z "},"Ḻ":{"ha":600,"x_min":75,"x_max":558,"o":"m 108 1021 l 265 1021 l 265 139 l 558 139 l 558 0 l 108 0 l 108 1021 m 75 -126 l 544 -126 l 544 -242 l 75 -242 l 75 -126 z "},"Ł":{"ha":642,"x_min":42,"x_max":600,"o":"m 151 372 l 42 321 l 42 450 l 151 501 l 151 1021 l 307 1021 l 307 574 l 485 649 l 485 518 l 307 443 l 307 138 l 600 138 l 600 0 l 151 0 l 151 372 z "},"M":{"ha":1243,"x_min":29,"x_max":1214,"o":"m 371 476 l 307 621 l 278 476 l 183 0 l 29 0 l 240 1021 l 257 1021 l 538 469 l 621 285 l 704 469 l 979 1021 l 994 1021 l 1214 0 l 1061 0 l 958 476 l 928 621 l 872 476 l 625 0 l 617 0 l 371 476 z "},"Ṃ":{"ha":1243,"x_min":29,"x_max":1214,"o":"m 371 476 l 307 621 l 278 476 l 183 0 l 29 0 l 240 1021 l 257 1021 l 538 469 l 621 285 l 704 469 l 979 1021 l 994 1021 l 1214 0 l 1061 0 l 958 476 l 928 621 l 872 476 l 625 0 l 617 0 l 371 476 m 621 -303 q 549 -274 578 -303 q 519 -201 519 -244 q 549 -135 519 -162 q 621 -107 578 -107 q 692 -135 663 -107 q 721 -201 721 -162 q 692 -274 721 -244 q 621 -303 664 -303 z "},"N":{"ha":986,"x_min":108,"x_max":878,"o":"m 260 661 l 264 550 l 264 0 l 108 0 l 108 1022 l 128 1022 l 728 353 l 722 469 l 722 1021 l 878 1021 l 878 0 l 857 0 l 260 661 z "},"Ǌ":{"ha":1626,"x_min":108,"x_max":1508,"o":"m 260 661 l 264 550 l 264 0 l 108 0 l 108 1022 l 128 1022 l 728 353 l 722 469 l 722 1021 l 878 1021 l 878 0 l 857 0 l 260 661 m 1254 -14 q 1136 1 1196 -14 q 1036 50 1076 15 l 1099 193 q 1155 149 1124 164 q 1232 135 1186 135 q 1301 150 1275 135 q 1341 206 1328 165 q 1354 321 1354 246 l 1354 1021 l 1508 1021 l 1508 282 q 1438 56 1508 126 q 1254 -14 1368 -14 z "},"Ń":{"ha":986,"x_min":108,"x_max":878,"o":"m 260 661 l 264 550 l 264 0 l 108 0 l 108 1022 l 128 1022 l 728 353 l 722 469 l 722 1021 l 878 1021 l 878 0 l 857 0 l 260 661 m 369 1176 l 642 1383 l 725 1268 l 429 1085 l 369 1176 z "},"Ň":{"ha":986,"x_min":108,"x_max":878,"o":"m 260 661 l 264 550 l 264 0 l 108 0 l 108 1022 l 128 1022 l 728 353 l 722 469 l 722 1021 l 878 1021 l 878 0 l 857 0 l 260 661 m 219 1290 l 296 1365 l 483 1244 l 671 1365 l 746 1290 l 483 1076 l 219 1290 z "},"Ņ":{"ha":986,"x_min":108,"x_max":878,"o":"m 260 661 l 264 550 l 264 0 l 108 0 l 108 1022 l 128 1022 l 728 353 l 722 469 l 722 1021 l 878 1021 l 878 0 l 857 0 l 260 661 m 396 -367 q 413 -317 400 -356 q 431 -243 426 -278 q 386 -161 386 -214 q 415 -90 386 -118 q 488 -62 444 -62 q 558 -90 531 -62 q 586 -161 586 -118 q 550 -278 586 -215 q 482 -367 514 -340 l 396 -367 z "},"Ṅ":{"ha":986,"x_min":108,"x_max":878,"o":"m 260 661 l 264 550 l 264 0 l 108 0 l 108 1022 l 128 1022 l 728 353 l 722 469 l 722 1021 l 878 1021 l 878 0 l 857 0 l 260 661 m 483 1122 q 412 1151 440 1122 q 383 1221 383 1179 q 412 1292 383 1264 q 483 1321 440 1321 q 555 1292 526 1321 q 583 1221 583 1264 q 554 1151 583 1179 q 483 1122 525 1122 z "},"Ṇ":{"ha":986,"x_min":108,"x_max":878,"o":"m 260 661 l 264 550 l 264 0 l 108 0 l 108 1022 l 128 1022 l 728 353 l 722 469 l 722 1021 l 878 1021 l 878 0 l 857 0 l 260 661 m 496 -303 q 424 -274 453 -303 q 394 -201 394 -244 q 424 -135 394 -162 q 496 -107 453 -107 q 567 -135 538 -107 q 596 -201 596 -162 q 567 -274 596 -244 q 496 -303 539 -303 z "},"Ŋ":{"ha":981,"x_min":107,"x_max":874,"o":"m 717 369 l 717 1019 l 874 1019 l 874 -61 q 797 -277 874 -211 q 613 -343 721 -343 q 481 -329 543 -343 q 372 -286 418 -315 l 439 -140 q 508 -182 468 -165 q 588 -199 547 -199 q 680 -156 649 -199 q 711 -24 711 -114 l 711 151 l 264 640 l 264 -1 l 107 -1 l 107 1021 l 121 1021 l 717 369 z "},"ǋ":{"ha":1360,"x_min":108,"x_max":1267,"o":"m 260 661 l 264 550 l 264 0 l 108 0 l 108 1022 l 128 1022 l 728 353 l 722 469 l 722 1021 l 878 1021 l 878 0 l 857 0 l 260 661 z "},"Ṉ":{"ha":986,"x_min":108,"x_max":878,"o":"m 260 661 l 264 550 l 264 0 l 108 0 l 108 1022 l 128 1022 l 728 353 l 722 469 l 722 1021 l 878 1021 l 878 0 l 857 0 l 260 661 m 258 -112 l 728 -112 l 728 -228 l 258 -228 l 258 -112 z "},"Ñ":{"ha":986,"x_min":108,"x_max":878,"o":"m 260 661 l 264 550 l 264 0 l 108 0 l 108 1022 l 128 1022 l 728 353 l 722 469 l 722 1021 l 878 1021 l 878 0 l 857 0 l 260 661 m 576 1119 q 510 1132 536 1119 q 457 1168 485 1144 q 413 1198 431 1189 q 371 1207 396 1207 q 333 1191 346 1207 q 299 1128 319 1175 l 239 1221 q 294 1303 250 1268 q 392 1338 339 1338 q 466 1324 439 1338 q 522 1283 493 1310 q 557 1257 543 1265 q 592 1249 571 1249 q 678 1313 653 1249 l 731 1232 q 678 1151 724 1182 q 576 1119 632 1119 z "},"O":{"ha":1156,"x_min":65,"x_max":1090,"o":"m 578 -14 q 322 51 439 -14 q 135 235 204 115 q 65 513 65 354 q 135 791 65 672 q 322 974 204 910 q 578 1038 439 1038 q 834 974 717 1038 q 1021 791 951 910 q 1090 513 1090 672 q 1021 235 1090 354 q 834 51 951 115 q 578 -14 717 -14 m 578 126 q 753 172 674 126 q 878 303 832 217 q 925 511 925 390 q 878 720 925 633 q 753 851 832 807 q 578 896 675 896 q 401 851 481 896 q 276 720 322 807 q 231 511 231 633 q 278 303 231 390 q 405 172 325 217 q 578 126 485 126 z "},"Ó":{"ha":1156,"x_min":65,"x_max":1090,"o":"m 578 -14 q 322 51 439 -14 q 135 235 204 115 q 65 513 65 354 q 135 791 65 672 q 322 974 204 910 q 578 1038 439 1038 q 834 974 717 1038 q 1021 791 951 910 q 1090 513 1090 672 q 1021 235 1090 354 q 834 51 951 115 q 578 -14 717 -14 m 578 126 q 753 172 674 126 q 878 303 832 217 q 925 511 925 390 q 878 720 925 633 q 753 851 832 807 q 578 896 675 896 q 401 851 481 896 q 276 720 322 807 q 231 511 231 633 q 278 303 231 390 q 405 172 325 217 q 578 126 485 126 m 464 1176 l 736 1383 l 819 1268 l 524 1085 l 464 1176 z "},"Ŏ":{"ha":1156,"x_min":65,"x_max":1090,"o":"m 578 -14 q 322 51 439 -14 q 135 235 204 115 q 65 513 65 354 q 135 791 65 672 q 322 974 204 910 q 578 1038 439 1038 q 834 974 717 1038 q 1021 791 951 910 q 1090 513 1090 672 q 1021 235 1090 354 q 834 51 951 115 q 578 -14 717 -14 m 578 126 q 753 172 674 126 q 878 303 832 217 q 925 511 925 390 q 878 720 925 633 q 753 851 832 807 q 578 896 675 896 q 401 851 481 896 q 276 720 322 807 q 231 511 231 633 q 278 303 231 390 q 405 172 325 217 q 578 126 485 126 m 578 1096 q 393 1166 461 1096 q 325 1346 325 1236 l 458 1346 q 487 1256 458 1293 q 578 1218 515 1218 q 664 1257 631 1218 q 697 1346 697 1296 l 829 1346 q 761 1166 829 1236 q 578 1096 693 1096 z "},"Ô":{"ha":1156,"x_min":65,"x_max":1090,"o":"m 578 -14 q 322 51 439 -14 q 135 235 204 115 q 65 513 65 354 q 135 791 65 672 q 322 974 204 910 q 578 1038 439 1038 q 834 974 717 1038 q 1021 791 951 910 q 1090 513 1090 672 q 1021 235 1090 354 q 834 51 951 115 q 578 -14 717 -14 m 578 126 q 753 172 674 126 q 878 303 832 217 q 925 511 925 390 q 878 720 925 633 q 753 851 832 807 q 578 896 675 896 q 401 851 481 896 q 276 720 322 807 q 231 511 231 633 q 278 303 231 390 q 405 172 325 217 q 578 126 485 126 m 314 1163 l 578 1376 l 840 1163 l 765 1088 l 578 1208 l 390 1088 l 314 1163 z "},"Ố":{"ha":1156,"x_min":65,"x_max":1090,"o":"m 578 -14 q 322 51 439 -14 q 135 235 204 115 q 65 513 65 354 q 135 791 65 672 q 322 974 204 910 q 578 1038 439 1038 q 834 974 717 1038 q 1021 791 951 910 q 1090 513 1090 672 q 1021 235 1090 354 q 834 51 951 115 q 578 -14 717 -14 m 578 126 q 753 172 674 126 q 878 303 832 217 q 925 511 925 390 q 878 720 925 633 q 753 851 832 807 q 578 896 675 896 q 401 851 481 896 q 276 720 322 807 q 231 511 231 633 q 278 303 231 390 q 405 172 325 217 q 578 126 485 126 m 314 1163 l 578 1376 l 840 1163 l 765 1088 l 578 1208 l 390 1088 l 314 1163 m 464 1503 l 736 1710 l 819 1594 l 524 1411 l 464 1503 z "},"Ộ":{"ha":1156,"x_min":65,"x_max":1090,"o":"m 578 -14 q 322 51 439 -14 q 135 235 204 115 q 65 513 65 354 q 135 791 65 672 q 322 974 204 910 q 578 1038 439 1038 q 834 974 717 1038 q 1021 791 951 910 q 1090 513 1090 672 q 1021 235 1090 354 q 834 51 951 115 q 578 -14 717 -14 m 578 126 q 753 172 674 126 q 878 303 832 217 q 925 511 925 390 q 878 720 925 633 q 753 851 832 807 q 578 896 675 896 q 401 851 481 896 q 276 720 322 807 q 231 511 231 633 q 278 303 231 390 q 405 172 325 217 q 578 126 485 126 m 581 -303 q 508 -274 538 -303 q 479 -201 479 -244 q 508 -135 479 -162 q 581 -107 538 -107 q 651 -135 622 -107 q 681 -201 681 -162 q 652 -274 681 -244 q 581 -303 624 -303 m 314 1163 l 578 1376 l 840 1163 l 765 1088 l 578 1208 l 390 1088 l 314 1163 z "},"Ồ":{"ha":1156,"x_min":65,"x_max":1090,"o":"m 578 -14 q 322 51 439 -14 q 135 235 204 115 q 65 513 65 354 q 135 791 65 672 q 322 974 204 910 q 578 1038 439 1038 q 834 974 717 1038 q 1021 791 951 910 q 1090 513 1090 672 q 1021 235 1090 354 q 834 51 951 115 q 578 -14 717 -14 m 578 126 q 753 172 674 126 q 878 303 832 217 q 925 511 925 390 q 878 720 925 633 q 753 851 832 807 q 578 896 675 896 q 401 851 481 896 q 276 720 322 807 q 231 511 231 633 q 278 303 231 390 q 405 172 325 217 q 578 126 485 126 m 314 1163 l 578 1376 l 840 1163 l 765 1088 l 578 1208 l 390 1088 l 314 1163 m 336 1594 l 419 1710 l 692 1503 l 632 1411 l 336 1594 z "},"Ổ":{"ha":1156,"x_min":65,"x_max":1090,"o":"m 578 -14 q 322 51 439 -14 q 135 235 204 115 q 65 513 65 354 q 135 791 65 672 q 322 974 204 910 q 578 1038 439 1038 q 834 974 717 1038 q 1021 791 951 910 q 1090 513 1090 672 q 1021 235 1090 354 q 834 51 951 115 q 578 -14 717 -14 m 578 126 q 753 172 674 126 q 878 303 832 217 q 925 511 925 390 q 878 720 925 633 q 753 851 832 807 q 578 896 675 896 q 401 851 481 896 q 276 720 322 807 q 231 511 231 633 q 278 303 231 390 q 405 172 325 217 q 578 126 485 126 m 314 1163 l 578 1376 l 840 1163 l 765 1088 l 578 1208 l 390 1088 l 314 1163 m 593 1413 q 549 1414 569 1413 q 510 1421 529 1415 l 486 1508 q 528 1504 506 1504 q 603 1519 569 1504 q 636 1569 636 1535 q 615 1606 636 1593 q 553 1618 593 1618 q 494 1612 515 1618 q 440 1589 474 1606 l 411 1675 q 474 1711 433 1694 q 572 1728 514 1728 q 704 1691 644 1728 q 764 1569 764 1654 q 743 1496 764 1532 q 684 1436 722 1460 q 593 1413 646 1413 z "},"Ỗ":{"ha":1156,"x_min":65,"x_max":1090,"o":"m 578 -14 q 322 51 439 -14 q 135 235 204 115 q 65 513 65 354 q 135 791 65 672 q 322 974 204 910 q 578 1038 439 1038 q 834 974 717 1038 q 1021 791 951 910 q 1090 513 1090 672 q 1021 235 1090 354 q 834 51 951 115 q 578 -14 717 -14 m 578 126 q 753 172 674 126 q 878 303 832 217 q 925 511 925 390 q 878 720 925 633 q 753 851 832 807 q 578 896 675 896 q 401 851 481 896 q 276 720 322 807 q 231 511 231 633 q 278 303 231 390 q 405 172 325 217 q 578 126 485 126 m 314 1163 l 578 1376 l 840 1163 l 765 1088 l 578 1208 l 390 1088 l 314 1163 m 671 1446 q 605 1458 631 1446 q 551 1494 579 1471 q 508 1524 525 1515 q 465 1533 490 1533 q 427 1517 440 1533 q 393 1454 414 1501 l 333 1547 q 389 1629 344 1594 q 486 1664 433 1664 q 560 1650 533 1664 q 617 1610 588 1636 q 651 1583 638 1592 q 686 1575 665 1575 q 772 1639 747 1575 l 825 1558 q 772 1477 818 1508 q 671 1446 726 1446 z "},"Ȍ":{"ha":1156,"x_min":65,"x_max":1090,"o":"m 578 -14 q 322 51 439 -14 q 135 235 204 115 q 65 513 65 354 q 135 791 65 672 q 322 974 204 910 q 578 1038 439 1038 q 834 974 717 1038 q 1021 791 951 910 q 1090 513 1090 672 q 1021 235 1090 354 q 834 51 951 115 q 578 -14 717 -14 m 578 126 q 753 172 674 126 q 878 303 832 217 q 925 511 925 390 q 878 720 925 633 q 753 851 832 807 q 578 896 675 896 q 401 851 481 896 q 276 720 322 807 q 231 511 231 633 q 278 303 231 390 q 405 172 325 217 q 578 126 485 126 m 501 1338 l 638 1406 l 776 1119 l 676 1076 l 501 1338 m 199 1336 l 335 1404 l 488 1119 l 388 1076 l 199 1336 z "},"Ö":{"ha":1156,"x_min":65,"x_max":1090,"o":"m 578 -14 q 322 51 439 -14 q 135 235 204 115 q 65 513 65 354 q 135 791 65 672 q 322 974 204 910 q 578 1038 439 1038 q 834 974 717 1038 q 1021 791 951 910 q 1090 513 1090 672 q 1021 235 1090 354 q 834 51 951 115 q 578 -14 717 -14 m 578 126 q 753 172 674 126 q 878 303 832 217 q 925 511 925 390 q 878 720 925 633 q 753 851 832 807 q 578 896 675 896 q 401 851 481 896 q 276 720 322 807 q 231 511 231 633 q 278 303 231 390 q 405 172 325 217 q 578 126 485 126 m 410 1111 q 339 1140 368 1111 q 310 1210 310 1169 q 338 1280 310 1251 q 410 1308 367 1308 q 481 1280 453 1308 q 510 1210 510 1251 q 481 1140 510 1169 q 410 1111 451 1111 m 744 1111 q 674 1140 703 1111 q 644 1210 644 1169 q 673 1280 644 1251 q 744 1308 701 1308 q 817 1280 788 1308 q 846 1210 846 1251 q 817 1140 846 1169 q 744 1111 788 1111 z "},"Ȫ":{"ha":1156,"x_min":65,"x_max":1090,"o":"m 578 -14 q 322 51 439 -14 q 135 235 204 115 q 65 513 65 354 q 135 791 65 672 q 322 974 204 910 q 578 1038 439 1038 q 834 974 717 1038 q 1021 791 951 910 q 1090 513 1090 672 q 1021 235 1090 354 q 834 51 951 115 q 578 -14 717 -14 m 578 126 q 753 172 674 126 q 878 303 832 217 q 925 511 925 390 q 878 720 925 633 q 753 851 832 807 q 578 896 675 896 q 401 851 481 896 q 276 720 322 807 q 231 511 231 633 q 278 303 231 390 q 405 172 325 217 q 578 126 485 126 m 410 1111 q 339 1140 368 1111 q 310 1210 310 1169 q 338 1280 310 1251 q 410 1308 367 1308 q 481 1280 453 1308 q 510 1210 510 1251 q 481 1140 510 1169 q 410 1111 451 1111 m 744 1111 q 674 1140 703 1111 q 644 1210 644 1169 q 673 1280 644 1251 q 744 1308 701 1308 q 817 1280 788 1308 q 846 1210 846 1251 q 817 1140 846 1169 q 744 1111 788 1111 m 343 1519 l 813 1519 l 813 1404 l 343 1404 l 343 1519 z "},"Ȱ":{"ha":1156,"x_min":65,"x_max":1090,"o":"m 578 -14 q 322 51 439 -14 q 135 235 204 115 q 65 513 65 354 q 135 791 65 672 q 322 974 204 910 q 578 1038 439 1038 q 834 974 717 1038 q 1021 791 951 910 q 1090 513 1090 672 q 1021 235 1090 354 q 834 51 951 115 q 578 -14 717 -14 m 578 126 q 753 172 674 126 q 878 303 832 217 q 925 511 925 390 q 878 720 925 633 q 753 851 832 807 q 578 896 675 896 q 401 851 481 896 q 276 720 322 807 q 231 511 231 633 q 278 303 231 390 q 405 172 325 217 q 578 126 485 126 m 578 1122 q 506 1151 535 1122 q 478 1221 478 1179 q 506 1292 478 1264 q 578 1321 535 1321 q 649 1292 621 1321 q 678 1221 678 1264 q 649 1151 678 1179 q 578 1122 619 1122 m 343 1515 l 813 1515 l 813 1400 l 343 1400 l 343 1515 z "},"Ọ":{"ha":1156,"x_min":65,"x_max":1090,"o":"m 578 -14 q 322 51 439 -14 q 135 235 204 115 q 65 513 65 354 q 135 791 65 672 q 322 974 204 910 q 578 1038 439 1038 q 834 974 717 1038 q 1021 791 951 910 q 1090 513 1090 672 q 1021 235 1090 354 q 834 51 951 115 q 578 -14 717 -14 m 578 126 q 753 172 674 126 q 878 303 832 217 q 925 511 925 390 q 878 720 925 633 q 753 851 832 807 q 578 896 675 896 q 401 851 481 896 q 276 720 322 807 q 231 511 231 633 q 278 303 231 390 q 405 172 325 217 q 578 126 485 126 m 581 -303 q 508 -274 538 -303 q 479 -201 479 -244 q 508 -135 479 -162 q 581 -107 538 -107 q 651 -135 622 -107 q 681 -201 681 -162 q 652 -274 681 -244 q 581 -303 624 -303 z "},"Ò":{"ha":1156,"x_min":65,"x_max":1090,"o":"m 578 -14 q 322 51 439 -14 q 135 235 204 115 q 65 513 65 354 q 135 791 65 672 q 322 974 204 910 q 578 1038 439 1038 q 834 974 717 1038 q 1021 791 951 910 q 1090 513 1090 672 q 1021 235 1090 354 q 834 51 951 115 q 578 -14 717 -14 m 578 126 q 753 172 674 126 q 878 303 832 217 q 925 511 925 390 q 878 720 925 633 q 753 851 832 807 q 578 896 675 896 q 401 851 481 896 q 276 720 322 807 q 231 511 231 633 q 278 303 231 390 q 405 172 325 217 q 578 126 485 126 m 336 1268 l 419 1383 l 692 1176 l 632 1085 l 336 1268 z "},"Ỏ":{"ha":1156,"x_min":65,"x_max":1090,"o":"m 578 -14 q 322 51 439 -14 q 135 235 204 115 q 65 513 65 354 q 135 791 65 672 q 322 974 204 910 q 578 1038 439 1038 q 834 974 717 1038 q 1021 791 951 910 q 1090 513 1090 672 q 1021 235 1090 354 q 834 51 951 115 q 578 -14 717 -14 m 578 126 q 753 172 674 126 q 878 303 832 217 q 925 511 925 390 q 878 720 925 633 q 753 851 832 807 q 578 896 675 896 q 401 851 481 896 q 276 720 322 807 q 231 511 231 633 q 278 303 231 390 q 405 172 325 217 q 578 126 485 126 m 593 1086 q 549 1088 569 1086 q 510 1094 529 1089 l 486 1182 q 528 1178 506 1178 q 603 1193 569 1178 q 636 1243 636 1208 q 615 1279 636 1267 q 553 1292 593 1292 q 494 1285 515 1292 q 440 1263 474 1279 l 411 1349 q 474 1385 433 1368 q 572 1401 514 1401 q 704 1365 644 1401 q 764 1243 764 1328 q 743 1169 764 1206 q 684 1110 722 1133 q 593 1086 646 1086 z "},"Ơ":{"ha":1156,"x_min":65,"x_max":1122,"o":"m 933 901 q 1049 733 1007 832 q 1090 513 1090 633 q 1021 235 1090 354 q 834 51 951 115 q 578 -14 717 -14 q 322 51 439 -14 q 135 235 204 115 q 65 513 65 354 q 135 791 65 672 q 322 974 204 910 q 578 1038 439 1038 q 840 971 719 1038 q 949 1014 906 978 q 993 1106 993 1050 q 982 1185 993 1157 l 1113 1185 q 1120 1147 1118 1167 q 1122 1085 1122 1126 q 1097 999 1122 1042 q 1027 930 1071 957 q 933 901 983 903 m 578 126 q 753 172 674 126 q 878 303 832 217 q 925 511 925 390 q 878 720 925 633 q 753 851 832 807 q 578 896 675 896 q 401 851 481 896 q 276 720 322 807 q 231 511 231 633 q 278 303 231 390 q 405 172 325 217 q 578 126 485 126 z "},"Ớ":{"ha":1156,"x_min":65,"x_max":1122,"o":"m 933 901 q 1049 733 1007 832 q 1090 513 1090 633 q 1021 235 1090 354 q 834 51 951 115 q 578 -14 717 -14 q 322 51 439 -14 q 135 235 204 115 q 65 513 65 354 q 135 791 65 672 q 322 974 204 910 q 578 1038 439 1038 q 840 971 719 1038 q 949 1014 906 978 q 993 1106 993 1050 q 982 1185 993 1157 l 1113 1185 q 1120 1147 1118 1167 q 1122 1085 1122 1126 q 1097 999 1122 1042 q 1027 930 1071 957 q 933 901 983 903 m 578 126 q 753 172 674 126 q 878 303 832 217 q 925 511 925 390 q 878 720 925 633 q 753 851 832 807 q 578 896 675 896 q 401 851 481 896 q 276 720 322 807 q 231 511 231 633 q 278 303 231 390 q 405 172 325 217 q 578 126 485 126 m 464 1176 l 736 1383 l 819 1268 l 524 1085 l 464 1176 z "},"Ợ":{"ha":1156,"x_min":65,"x_max":1122,"o":"m 933 901 q 1049 733 1007 832 q 1090 513 1090 633 q 1021 235 1090 354 q 834 51 951 115 q 578 -14 717 -14 q 322 51 439 -14 q 135 235 204 115 q 65 513 65 354 q 135 791 65 672 q 322 974 204 910 q 578 1038 439 1038 q 840 971 719 1038 q 949 1014 906 978 q 993 1106 993 1050 q 982 1185 993 1157 l 1113 1185 q 1120 1147 1118 1167 q 1122 1085 1122 1126 q 1097 999 1122 1042 q 1027 930 1071 957 q 933 901 983 903 m 578 126 q 753 172 674 126 q 878 303 832 217 q 925 511 925 390 q 878 720 925 633 q 753 851 832 807 q 578 896 675 896 q 401 851 481 896 q 276 720 322 807 q 231 511 231 633 q 278 303 231 390 q 405 172 325 217 q 578 126 485 126 m 581 -317 q 508 -287 538 -317 q 479 -215 479 -258 q 508 -149 479 -176 q 581 -121 538 -121 q 651 -149 622 -121 q 681 -215 681 -176 q 652 -287 681 -258 q 581 -317 624 -317 z "},"Ờ":{"ha":1156,"x_min":65,"x_max":1122,"o":"m 933 901 q 1049 733 1007 832 q 1090 513 1090 633 q 1021 235 1090 354 q 834 51 951 115 q 578 -14 717 -14 q 322 51 439 -14 q 135 235 204 115 q 65 513 65 354 q 135 791 65 672 q 322 974 204 910 q 578 1038 439 1038 q 840 971 719 1038 q 949 1014 906 978 q 993 1106 993 1050 q 982 1185 993 1157 l 1113 1185 q 1120 1147 1118 1167 q 1122 1085 1122 1126 q 1097 999 1122 1042 q 1027 930 1071 957 q 933 901 983 903 m 578 126 q 753 172 674 126 q 878 303 832 217 q 925 511 925 390 q 878 720 925 633 q 753 851 832 807 q 578 896 675 896 q 401 851 481 896 q 276 720 322 807 q 231 511 231 633 q 278 303 231 390 q 405 172 325 217 q 578 126 485 126 m 336 1268 l 419 1383 l 692 1176 l 632 1085 l 336 1268 z "},"Ở":{"ha":1156,"x_min":65,"x_max":1122,"o":"m 933 901 q 1049 733 1007 832 q 1090 513 1090 633 q 1021 235 1090 354 q 834 51 951 115 q 578 -14 717 -14 q 322 51 439 -14 q 135 235 204 115 q 65 513 65 354 q 135 791 65 672 q 322 974 204 910 q 578 1038 439 1038 q 840 971 719 1038 q 949 1014 906 978 q 993 1106 993 1050 q 982 1185 993 1157 l 1113 1185 q 1120 1147 1118 1167 q 1122 1085 1122 1126 q 1097 999 1122 1042 q 1027 930 1071 957 q 933 901 983 903 m 578 126 q 753 172 674 126 q 878 303 832 217 q 925 511 925 390 q 878 720 925 633 q 753 851 832 807 q 578 896 675 896 q 401 851 481 896 q 276 720 322 807 q 231 511 231 633 q 278 303 231 390 q 405 172 325 217 q 578 126 485 126 m 593 1086 q 549 1088 569 1086 q 510 1094 529 1089 l 486 1182 q 528 1178 506 1178 q 603 1193 569 1178 q 636 1243 636 1208 q 615 1279 636 1267 q 553 1292 593 1292 q 494 1285 515 1292 q 440 1263 474 1279 l 411 1349 q 474 1385 433 1368 q 572 1401 514 1401 q 704 1365 644 1401 q 764 1243 764 1328 q 743 1169 764 1206 q 684 1110 722 1133 q 593 1086 646 1086 z "},"Ỡ":{"ha":1156,"x_min":65,"x_max":1122,"o":"m 933 901 q 1049 733 1007 832 q 1090 513 1090 633 q 1021 235 1090 354 q 834 51 951 115 q 578 -14 717 -14 q 322 51 439 -14 q 135 235 204 115 q 65 513 65 354 q 135 791 65 672 q 322 974 204 910 q 578 1038 439 1038 q 840 971 719 1038 q 949 1014 906 978 q 993 1106 993 1050 q 982 1185 993 1157 l 1113 1185 q 1120 1147 1118 1167 q 1122 1085 1122 1126 q 1097 999 1122 1042 q 1027 930 1071 957 q 933 901 983 903 m 578 126 q 753 172 674 126 q 878 303 832 217 q 925 511 925 390 q 878 720 925 633 q 753 851 832 807 q 578 896 675 896 q 401 851 481 896 q 276 720 322 807 q 231 511 231 633 q 278 303 231 390 q 405 172 325 217 q 578 126 485 126 m 671 1119 q 605 1132 631 1119 q 551 1168 579 1144 q 508 1198 525 1189 q 465 1207 490 1207 q 427 1191 440 1207 q 393 1128 414 1175 l 333 1221 q 389 1303 344 1268 q 486 1338 433 1338 q 560 1324 533 1338 q 617 1283 588 1310 q 651 1257 638 1265 q 686 1249 665 1249 q 772 1313 747 1249 l 825 1232 q 772 1151 818 1182 q 671 1119 726 1119 z "},"Ő":{"ha":1156,"x_min":65,"x_max":1090,"o":"m 578 -14 q 322 51 439 -14 q 135 235 204 115 q 65 513 65 354 q 135 791 65 672 q 322 974 204 910 q 578 1038 439 1038 q 834 974 717 1038 q 1021 791 951 910 q 1090 513 1090 672 q 1021 235 1090 354 q 834 51 951 115 q 578 -14 717 -14 m 578 126 q 753 172 674 126 q 878 303 832 217 q 925 511 925 390 q 878 720 925 633 q 753 851 832 807 q 578 896 675 896 q 401 851 481 896 q 276 720 322 807 q 231 511 231 633 q 278 303 231 390 q 405 172 325 217 q 578 126 485 126 m 358 1104 l 496 1393 l 635 1325 l 458 1060 l 358 1104 m 646 1104 l 785 1393 l 924 1325 l 746 1060 l 646 1104 z "},"Ȏ":{"ha":1156,"x_min":65,"x_max":1090,"o":"m 578 -14 q 322 51 439 -14 q 135 235 204 115 q 65 513 65 354 q 135 791 65 672 q 322 974 204 910 q 578 1038 439 1038 q 834 974 717 1038 q 1021 791 951 910 q 1090 513 1090 672 q 1021 235 1090 354 q 834 51 951 115 q 578 -14 717 -14 m 578 126 q 753 172 674 126 q 878 303 832 217 q 925 511 925 390 q 878 720 925 633 q 753 851 832 807 q 578 896 675 896 q 401 851 481 896 q 276 720 322 807 q 231 511 231 633 q 278 303 231 390 q 405 172 325 217 q 578 126 485 126 m 325 1104 q 393 1284 325 1214 q 578 1354 461 1354 q 761 1284 693 1354 q 829 1104 829 1214 l 697 1104 q 664 1193 697 1154 q 578 1232 631 1232 q 487 1194 515 1232 q 458 1104 458 1157 l 325 1104 z "},"Ō":{"ha":1156,"x_min":65,"x_max":1090,"o":"m 578 -14 q 322 51 439 -14 q 135 235 204 115 q 65 513 65 354 q 135 791 65 672 q 322 974 204 910 q 578 1038 439 1038 q 834 974 717 1038 q 1021 791 951 910 q 1090 513 1090 672 q 1021 235 1090 354 q 834 51 951 115 q 578 -14 717 -14 m 578 126 q 753 172 674 126 q 878 303 832 217 q 925 511 925 390 q 878 720 925 633 q 753 851 832 807 q 578 896 675 896 q 401 851 481 896 q 276 720 322 807 q 231 511 231 633 q 278 303 231 390 q 405 172 325 217 q 578 126 485 126 m 343 1249 l 813 1249 l 813 1133 l 343 1133 l 343 1249 z "},"Ṓ":{"ha":1156,"x_min":65,"x_max":1090,"o":"m 578 -14 q 322 51 439 -14 q 135 235 204 115 q 65 513 65 354 q 135 791 65 672 q 322 974 204 910 q 578 1038 439 1038 q 834 974 717 1038 q 1021 791 951 910 q 1090 513 1090 672 q 1021 235 1090 354 q 834 51 951 115 q 578 -14 717 -14 m 578 126 q 753 172 674 126 q 878 303 832 217 q 925 511 925 390 q 878 720 925 633 q 753 851 832 807 q 578 896 675 896 q 401 851 481 896 q 276 720 322 807 q 231 511 231 633 q 278 303 231 390 q 405 172 325 217 q 578 126 485 126 m 343 1249 l 813 1249 l 813 1133 l 343 1133 l 343 1249 m 464 1447 l 736 1654 l 819 1539 l 524 1356 l 464 1447 z "},"Ṑ":{"ha":1156,"x_min":65,"x_max":1090,"o":"m 578 -14 q 322 51 439 -14 q 135 235 204 115 q 65 513 65 354 q 135 791 65 672 q 322 974 204 910 q 578 1038 439 1038 q 834 974 717 1038 q 1021 791 951 910 q 1090 513 1090 672 q 1021 235 1090 354 q 834 51 951 115 q 578 -14 717 -14 m 578 126 q 753 172 674 126 q 878 303 832 217 q 925 511 925 390 q 878 720 925 633 q 753 851 832 807 q 578 896 675 896 q 401 851 481 896 q 276 720 322 807 q 231 511 231 633 q 278 303 231 390 q 405 172 325 217 q 578 126 485 126 m 343 1249 l 813 1249 l 813 1133 l 343 1133 l 343 1249 m 336 1539 l 419 1654 l 692 1447 l 632 1356 l 336 1539 z "},"Ǫ":{"ha":1156,"x_min":65,"x_max":1090,"o":"m 672 -6 q 583 -60 619 -24 q 547 -150 547 -96 q 571 -208 547 -183 q 644 -233 594 -233 q 690 -231 671 -233 l 690 -360 q 622 -367 649 -367 q 469 -322 525 -367 q 413 -181 413 -276 q 508 -10 413 -79 q 283 74 383 6 q 124 255 182 142 q 65 513 65 368 q 135 791 65 672 q 322 974 204 910 q 578 1038 439 1038 q 834 974 717 1038 q 1021 791 951 910 q 1090 513 1090 672 q 1035 262 1090 372 q 885 83 981 151 q 672 -6 790 15 m 231 511 q 278 303 231 390 q 405 172 325 217 q 578 126 485 126 q 753 172 674 126 q 878 303 832 217 q 925 511 925 390 q 878 720 925 633 q 753 851 832 807 q 578 896 675 896 q 401 851 481 896 q 276 720 322 807 q 231 511 231 633 z "},"Ø":{"ha":1151,"x_min":64,"x_max":1089,"o":"m 833 974 q 1020 790 951 908 q 1089 513 1089 671 q 1019 235 1089 354 q 833 51 950 115 q 576 -14 715 -14 q 401 15 483 -14 l 326 -151 l 247 -115 l 322 50 q 133 235 203 115 q 64 513 64 354 q 133 791 64 672 q 320 974 203 910 q 576 1038 438 1038 q 756 1008 669 1038 l 819 1150 l 897 1115 l 833 974 m 229 511 q 270 315 229 399 q 383 185 311 232 l 696 876 q 576 896 638 896 q 400 851 479 896 q 275 720 321 807 q 229 511 229 633 m 576 126 q 751 172 672 126 q 877 303 831 217 q 924 511 924 390 q 883 708 924 625 q 772 839 843 792 l 460 146 q 576 126 518 126 z "},"Ǿ":{"ha":1151,"x_min":64,"x_max":1089,"o":"m 833 974 q 1020 790 951 908 q 1089 513 1089 671 q 1019 235 1089 354 q 833 51 950 115 q 576 -14 715 -14 q 401 15 483 -14 l 326 -151 l 247 -115 l 322 50 q 133 235 203 115 q 64 513 64 354 q 133 791 64 672 q 320 974 203 910 q 576 1038 438 1038 q 756 1008 669 1038 l 819 1150 l 897 1115 l 833 974 m 229 511 q 270 315 229 399 q 383 185 311 232 l 696 876 q 576 896 638 896 q 400 851 479 896 q 275 720 321 807 q 229 511 229 633 m 576 126 q 751 172 672 126 q 877 303 831 217 q 924 511 924 390 q 883 708 924 625 q 772 839 843 792 l 460 146 q 576 126 518 126 m 464 1176 l 736 1383 l 819 1268 l 524 1085 l 464 1176 z "},"Õ":{"ha":1156,"x_min":65,"x_max":1090,"o":"m 578 -14 q 322 51 439 -14 q 135 235 204 115 q 65 513 65 354 q 135 791 65 672 q 322 974 204 910 q 578 1038 439 1038 q 834 974 717 1038 q 1021 791 951 910 q 1090 513 1090 672 q 1021 235 1090 354 q 834 51 951 115 q 578 -14 717 -14 m 578 126 q 753 172 674 126 q 878 303 832 217 q 925 511 925 390 q 878 720 925 633 q 753 851 832 807 q 578 896 675 896 q 401 851 481 896 q 276 720 322 807 q 231 511 231 633 q 278 303 231 390 q 405 172 325 217 q 578 126 485 126 m 671 1119 q 605 1132 631 1119 q 551 1168 579 1144 q 508 1198 525 1189 q 465 1207 490 1207 q 427 1191 440 1207 q 393 1128 414 1175 l 333 1221 q 389 1303 344 1268 q 486 1338 433 1338 q 560 1324 533 1338 q 617 1283 588 1310 q 651 1257 638 1265 q 686 1249 665 1249 q 772 1313 747 1249 l 825 1232 q 772 1151 818 1182 q 671 1119 726 1119 z "},"Ṍ":{"ha":1156,"x_min":65,"x_max":1090,"o":"m 578 -14 q 322 51 439 -14 q 135 235 204 115 q 65 513 65 354 q 135 791 65 672 q 322 974 204 910 q 578 1038 439 1038 q 834 974 717 1038 q 1021 791 951 910 q 1090 513 1090 672 q 1021 235 1090 354 q 834 51 951 115 q 578 -14 717 -14 m 578 126 q 753 172 674 126 q 878 303 832 217 q 925 511 925 390 q 878 720 925 633 q 753 851 832 807 q 578 896 675 896 q 401 851 481 896 q 276 720 322 807 q 231 511 231 633 q 278 303 231 390 q 405 172 325 217 q 578 126 485 126 m 671 1119 q 605 1132 631 1119 q 551 1168 579 1144 q 508 1198 525 1189 q 465 1207 490 1207 q 427 1191 440 1207 q 393 1128 414 1175 l 333 1221 q 389 1303 344 1268 q 486 1338 433 1338 q 560 1324 533 1338 q 617 1283 588 1310 q 651 1257 638 1265 q 686 1249 665 1249 q 772 1313 747 1249 l 825 1232 q 772 1151 818 1182 q 671 1119 726 1119 m 464 1475 l 736 1682 l 819 1567 l 524 1383 l 464 1475 z "},"Ṏ":{"ha":1156,"x_min":65,"x_max":1090,"o":"m 578 -14 q 322 51 439 -14 q 135 235 204 115 q 65 513 65 354 q 135 791 65 672 q 322 974 204 910 q 578 1038 439 1038 q 834 974 717 1038 q 1021 791 951 910 q 1090 513 1090 672 q 1021 235 1090 354 q 834 51 951 115 q 578 -14 717 -14 m 578 126 q 753 172 674 126 q 878 303 832 217 q 925 511 925 390 q 878 720 925 633 q 753 851 832 807 q 578 896 675 896 q 401 851 481 896 q 276 720 322 807 q 231 511 231 633 q 278 303 231 390 q 405 172 325 217 q 578 126 485 126 m 671 1119 q 605 1132 631 1119 q 551 1168 579 1144 q 508 1198 525 1189 q 465 1207 490 1207 q 427 1191 440 1207 q 393 1128 414 1175 l 333 1221 q 389 1303 344 1268 q 486 1338 433 1338 q 560 1324 533 1338 q 617 1283 588 1310 q 651 1257 638 1265 q 686 1249 665 1249 q 772 1313 747 1249 l 825 1232 q 772 1151 818 1182 q 671 1119 726 1119 m 410 1410 q 339 1439 368 1410 q 310 1508 310 1468 q 338 1578 310 1550 q 410 1607 367 1607 q 481 1578 453 1607 q 510 1508 510 1550 q 481 1439 510 1468 q 410 1410 451 1410 m 744 1410 q 674 1439 703 1410 q 644 1508 644 1468 q 673 1578 644 1550 q 744 1607 701 1607 q 817 1578 788 1607 q 846 1508 846 1550 q 817 1439 846 1468 q 744 1410 788 1410 z "},"Ȭ":{"ha":1156,"x_min":65,"x_max":1090,"o":"m 578 -14 q 322 51 439 -14 q 135 235 204 115 q 65 513 65 354 q 135 791 65 672 q 322 974 204 910 q 578 1038 439 1038 q 834 974 717 1038 q 1021 791 951 910 q 1090 513 1090 672 q 1021 235 1090 354 q 834 51 951 115 q 578 -14 717 -14 m 578 126 q 753 172 674 126 q 878 303 832 217 q 925 511 925 390 q 878 720 925 633 q 753 851 832 807 q 578 896 675 896 q 401 851 481 896 q 276 720 322 807 q 231 511 231 633 q 278 303 231 390 q 405 172 325 217 q 578 126 485 126 m 671 1119 q 605 1132 631 1119 q 551 1168 579 1144 q 508 1198 525 1189 q 465 1207 490 1207 q 427 1191 440 1207 q 393 1128 414 1175 l 333 1221 q 389 1303 344 1268 q 486 1338 433 1338 q 560 1324 533 1338 q 617 1283 588 1310 q 651 1257 638 1265 q 686 1249 665 1249 q 772 1313 747 1249 l 825 1232 q 772 1151 818 1182 q 671 1119 726 1119 m 343 1547 l 813 1547 l 813 1432 l 343 1432 l 343 1547 z "},"Œ":{"ha":1450,"x_min":65,"x_max":1401,"o":"m 585 -29 q 330 35 449 -29 q 138 220 211 100 q 65 500 65 340 q 138 778 65 660 q 330 958 211 896 q 585 1021 449 1021 q 777 986 683 1021 q 943 886 871 951 l 943 1021 l 1376 1021 l 1376 885 l 1100 885 l 1100 608 l 1335 608 l 1335 465 l 1100 465 l 1100 138 l 1401 138 l 1401 0 l 943 0 l 943 106 q 777 6 871 42 q 585 -29 683 -29 m 585 119 q 755 162 675 119 q 886 284 835 204 q 943 472 938 364 l 943 521 q 886 710 938 629 q 754 833 835 790 q 585 875 674 875 q 412 831 492 875 q 284 701 332 786 q 236 500 236 615 q 284 298 236 385 q 412 165 332 211 q 585 119 492 119 z "},"P":{"ha":736,"x_min":108,"x_max":700,"o":"m 108 1021 l 333 1021 q 612 940 524 1021 q 700 717 700 858 q 604 465 700 553 q 319 378 508 378 l 265 378 l 265 0 l 108 0 l 108 1021 m 324 515 q 494 569 446 515 q 543 700 543 624 q 496 833 543 782 q 338 885 449 885 l 265 885 l 265 515 l 324 515 z "},"Þ":{"ha":769,"x_min":143,"x_max":742,"o":"m 143 1022 l 301 1022 l 301 831 l 328 831 q 640 748 538 831 q 742 525 742 665 q 638 274 742 360 q 325 188 535 188 l 299 188 l 299 0 l 143 0 l 143 1022 m 356 325 q 530 378 482 325 q 578 508 578 432 q 530 642 578 592 q 358 693 482 693 l 299 693 l 299 325 l 356 325 z "},"Q":{"ha":1156,"x_min":65,"x_max":1090,"o":"m 1090 513 q 1028 247 1090 363 q 858 65 965 132 l 985 -131 l 831 -131 l 739 10 q 578 -14 660 -14 q 322 51 439 -14 q 135 235 204 115 q 65 513 65 354 q 135 791 65 672 q 322 974 204 910 q 578 1038 439 1038 q 834 974 717 1038 q 1021 791 951 910 q 1090 513 1090 672 m 231 511 q 278 303 231 390 q 405 172 325 217 q 578 126 485 126 q 658 135 621 126 l 565 286 l 721 286 l 781 189 q 887 319 849 238 q 925 511 925 401 q 878 720 925 633 q 753 851 832 807 q 578 896 675 896 q 401 851 481 896 q 276 720 322 807 q 231 511 231 633 z "},"R":{"ha":847,"x_min":108,"x_max":797,"o":"m 618 0 l 413 386 q 299 383 349 383 l 260 383 l 260 0 l 108 0 l 108 1021 l 340 1021 q 631 948 517 1021 q 744 711 744 875 q 697 534 744 608 q 554 419 649 460 l 797 0 l 618 0 m 358 510 q 545 569 494 510 q 596 710 596 628 q 353 892 596 892 l 260 892 l 260 510 l 358 510 z "},"Ŕ":{"ha":847,"x_min":108,"x_max":797,"o":"m 618 0 l 413 386 q 299 383 349 383 l 260 383 l 260 0 l 108 0 l 108 1021 l 340 1021 q 631 948 517 1021 q 744 711 744 875 q 697 534 744 608 q 554 419 649 460 l 797 0 l 618 0 m 358 510 q 545 569 494 510 q 596 710 596 628 q 353 892 596 892 l 260 892 l 260 510 l 358 510 m 285 1176 l 557 1383 l 640 1268 l 344 1085 l 285 1176 z "},"Ř":{"ha":847,"x_min":108,"x_max":797,"o":"m 618 0 l 413 386 q 299 383 349 383 l 260 383 l 260 0 l 108 0 l 108 1021 l 340 1021 q 631 948 517 1021 q 744 711 744 875 q 697 534 744 608 q 554 419 649 460 l 797 0 l 618 0 m 358 510 q 545 569 494 510 q 596 710 596 628 q 353 892 596 892 l 260 892 l 260 510 l 358 510 m 135 1290 l 211 1365 l 399 1244 l 586 1365 l 661 1290 l 399 1076 l 135 1290 z "},"Ŗ":{"ha":847,"x_min":108,"x_max":797,"o":"m 618 0 l 413 386 q 299 383 349 383 l 260 383 l 260 0 l 108 0 l 108 1021 l 340 1021 q 631 948 517 1021 q 744 711 744 875 q 697 534 744 608 q 554 419 649 460 l 797 0 l 618 0 m 358 510 q 545 569 494 510 q 596 710 596 628 q 353 892 596 892 l 260 892 l 260 510 l 358 510 m 318 -367 q 335 -317 322 -356 q 353 -243 349 -278 q 308 -161 308 -214 q 338 -90 308 -118 q 410 -62 367 -62 q 481 -90 453 -62 q 508 -161 508 -118 q 472 -278 508 -215 q 404 -367 436 -340 l 318 -367 z "},"Ȑ":{"ha":847,"x_min":19,"x_max":797,"o":"m 618 0 l 413 386 q 299 383 349 383 l 260 383 l 260 0 l 108 0 l 108 1021 l 340 1021 q 631 948 517 1021 q 744 711 744 875 q 697 534 744 608 q 554 419 649 460 l 797 0 l 618 0 m 358 510 q 545 569 494 510 q 596 710 596 628 q 353 892 596 892 l 260 892 l 260 510 l 358 510 m 322 1338 l 458 1406 l 597 1119 l 497 1076 l 322 1338 m 19 1336 l 156 1404 l 308 1119 l 208 1076 l 19 1336 z "},"Ṛ":{"ha":847,"x_min":108,"x_max":797,"o":"m 618 0 l 413 386 q 299 383 349 383 l 260 383 l 260 0 l 108 0 l 108 1021 l 340 1021 q 631 948 517 1021 q 744 711 744 875 q 697 534 744 608 q 554 419 649 460 l 797 0 l 618 0 m 358 510 q 545 569 494 510 q 596 710 596 628 q 353 892 596 892 l 260 892 l 260 510 l 358 510 m 418 -303 q 346 -274 375 -303 q 317 -201 317 -244 q 346 -135 317 -162 q 418 -107 375 -107 q 489 -135 460 -107 q 518 -201 518 -162 q 490 -274 518 -244 q 418 -303 461 -303 z "},"Ȓ":{"ha":847,"x_min":108,"x_max":797,"o":"m 618 0 l 413 386 q 299 383 349 383 l 260 383 l 260 0 l 108 0 l 108 1021 l 340 1021 q 631 948 517 1021 q 744 711 744 875 q 697 534 744 608 q 554 419 649 460 l 797 0 l 618 0 m 358 510 q 545 569 494 510 q 596 710 596 628 q 353 892 596 892 l 260 892 l 260 510 l 358 510 m 146 1104 q 214 1284 146 1214 q 399 1354 282 1354 q 582 1284 514 1354 q 650 1104 650 1214 l 518 1104 q 485 1193 518 1154 q 399 1232 451 1232 q 308 1194 336 1232 q 279 1104 279 1157 l 146 1104 z "},"Ṟ":{"ha":847,"x_min":108,"x_max":797,"o":"m 618 0 l 413 386 q 299 383 349 383 l 260 383 l 260 0 l 108 0 l 108 1021 l 340 1021 q 631 948 517 1021 q 744 711 744 875 q 697 534 744 608 q 554 419 649 460 l 797 0 l 618 0 m 358 510 q 545 569 494 510 q 596 710 596 628 q 353 892 596 892 l 260 892 l 260 510 l 358 510 m 181 -112 l 650 -112 l 650 -228 l 181 -228 l 181 -112 z "},"S":{"ha":729,"x_min":60,"x_max":671,"o":"m 343 -14 q 178 15 260 -14 q 60 81 96 44 l 133 213 q 224 158 163 186 q 343 129 286 129 q 463 164 417 129 q 510 260 510 199 q 485 342 510 307 q 424 399 460 376 q 321 456 388 422 q 213 514 242 494 q 78 764 78 604 q 165 966 78 896 q 386 1036 253 1036 q 629 954 529 1036 l 556 828 q 481 876 529 856 q 379 896 433 896 q 270 865 310 896 q 231 772 231 833 q 256 695 231 729 q 319 636 281 661 q 422 575 357 611 q 518 520 485 540 q 581 472 551 500 q 646 386 621 436 q 671 276 671 336 q 628 118 671 183 q 512 19 586 53 q 343 -14 438 -14 z "},"Ś":{"ha":729,"x_min":60,"x_max":671,"o":"m 343 -14 q 178 15 260 -14 q 60 81 96 44 l 133 213 q 224 158 163 186 q 343 129 286 129 q 463 164 417 129 q 510 260 510 199 q 485 342 510 307 q 424 399 460 376 q 321 456 388 422 q 213 514 242 494 q 78 764 78 604 q 165 966 78 896 q 386 1036 253 1036 q 629 954 529 1036 l 556 828 q 481 876 529 856 q 379 896 433 896 q 270 865 310 896 q 231 772 231 833 q 256 695 231 729 q 319 636 281 661 q 422 575 357 611 q 518 520 485 540 q 581 472 551 500 q 646 386 621 436 q 671 276 671 336 q 628 118 671 183 q 512 19 586 53 q 343 -14 438 -14 m 242 1176 l 514 1383 l 597 1268 l 301 1085 l 242 1176 z "},"Ṥ":{"ha":729,"x_min":60,"x_max":671,"o":"m 343 -14 q 178 15 260 -14 q 60 81 96 44 l 133 213 q 224 158 163 186 q 343 129 286 129 q 463 164 417 129 q 510 260 510 199 q 485 342 510 307 q 424 399 460 376 q 321 456 388 422 q 213 514 242 494 q 78 764 78 604 q 165 966 78 896 q 386 1036 253 1036 q 629 954 529 1036 l 556 828 q 481 876 529 856 q 379 896 433 896 q 270 865 310 896 q 231 772 231 833 q 256 695 231 729 q 319 636 281 661 q 422 575 357 611 q 518 520 485 540 q 581 472 551 500 q 646 386 621 436 q 671 276 671 336 q 628 118 671 183 q 512 19 586 53 q 343 -14 438 -14 m 242 1176 l 514 1383 l 597 1268 l 301 1085 l 242 1176 m 356 1393 q 284 1422 313 1393 q 256 1492 256 1450 q 284 1563 256 1535 q 356 1592 313 1592 q 427 1563 399 1592 q 456 1492 456 1535 q 426 1422 456 1450 q 356 1393 397 1393 z "},"Š":{"ha":729,"x_min":60,"x_max":671,"o":"m 343 -14 q 178 15 260 -14 q 60 81 96 44 l 133 213 q 224 158 163 186 q 343 129 286 129 q 463 164 417 129 q 510 260 510 199 q 485 342 510 307 q 424 399 460 376 q 321 456 388 422 q 213 514 242 494 q 78 764 78 604 q 165 966 78 896 q 386 1036 253 1036 q 629 954 529 1036 l 556 828 q 481 876 529 856 q 379 896 433 896 q 270 865 310 896 q 231 772 231 833 q 256 695 231 729 q 319 636 281 661 q 422 575 357 611 q 518 520 485 540 q 581 472 551 500 q 646 386 621 436 q 671 276 671 336 q 628 118 671 183 q 512 19 586 53 q 343 -14 438 -14 m 92 1290 l 168 1365 l 356 1244 l 543 1365 l 618 1290 l 356 1076 l 92 1290 z "},"Ṧ":{"ha":729,"x_min":60,"x_max":671,"o":"m 343 -14 q 178 15 260 -14 q 60 81 96 44 l 133 213 q 224 158 163 186 q 343 129 286 129 q 463 164 417 129 q 510 260 510 199 q 485 342 510 307 q 424 399 460 376 q 321 456 388 422 q 213 514 242 494 q 78 764 78 604 q 165 966 78 896 q 386 1036 253 1036 q 629 954 529 1036 l 556 828 q 481 876 529 856 q 379 896 433 896 q 270 865 310 896 q 231 772 231 833 q 256 695 231 729 q 319 636 281 661 q 422 575 357 611 q 518 520 485 540 q 581 472 551 500 q 646 386 621 436 q 671 276 671 336 q 628 118 671 183 q 512 19 586 53 q 343 -14 438 -14 m 92 1290 l 168 1365 l 356 1244 l 543 1365 l 618 1290 l 356 1076 l 92 1290 m 356 1407 q 284 1435 313 1407 q 256 1506 256 1464 q 284 1577 256 1549 q 356 1606 313 1606 q 427 1577 399 1606 q 456 1506 456 1549 q 426 1435 456 1464 q 356 1407 397 1407 z "},"Ş":{"ha":729,"x_min":60,"x_max":671,"o":"m 671 276 q 599 81 671 156 q 408 -10 526 7 q 431 -44 417 -26 q 465 -101 453 -74 q 478 -167 478 -128 q 422 -308 478 -262 q 268 -353 365 -353 q 193 -346 235 -353 l 206 -217 q 244 -219 225 -219 q 343 -157 343 -219 q 338 -131 343 -144 q 327 -110 332 -118 q 321 -100 322 -103 q 301 -65 308 -82 q 293 -28 293 -49 q 294 -11 293 -15 q 156 24 221 -3 q 60 81 90 50 l 133 213 q 224 158 163 186 q 343 129 286 129 q 463 164 417 129 q 510 260 510 199 q 485 342 510 307 q 424 399 460 376 q 321 456 388 422 q 213 514 242 494 q 78 764 78 604 q 165 966 78 896 q 386 1036 253 1036 q 629 954 529 1036 l 556 828 q 481 876 529 856 q 379 896 433 896 q 270 865 310 896 q 231 772 231 833 q 256 695 231 729 q 319 636 281 661 q 422 575 357 611 q 518 520 485 540 q 581 472 551 500 q 646 386 621 436 q 671 276 671 336 z "},"Ŝ":{"ha":729,"x_min":60,"x_max":671,"o":"m 343 -14 q 178 15 260 -14 q 60 81 96 44 l 133 213 q 224 158 163 186 q 343 129 286 129 q 463 164 417 129 q 510 260 510 199 q 485 342 510 307 q 424 399 460 376 q 321 456 388 422 q 213 514 242 494 q 78 764 78 604 q 165 966 78 896 q 386 1036 253 1036 q 629 954 529 1036 l 556 828 q 481 876 529 856 q 379 896 433 896 q 270 865 310 896 q 231 772 231 833 q 256 695 231 729 q 319 636 281 661 q 422 575 357 611 q 518 520 485 540 q 581 472 551 500 q 646 386 621 436 q 671 276 671 336 q 628 118 671 183 q 512 19 586 53 q 343 -14 438 -14 m 92 1163 l 356 1376 l 618 1163 l 543 1088 l 356 1208 l 168 1088 l 92 1163 z "},"Ș":{"ha":729,"x_min":60,"x_max":671,"o":"m 343 -14 q 178 15 260 -14 q 60 81 96 44 l 133 213 q 224 158 163 186 q 343 129 286 129 q 463 164 417 129 q 510 260 510 199 q 485 342 510 307 q 424 399 460 376 q 321 456 388 422 q 213 514 242 494 q 78 764 78 604 q 165 966 78 896 q 386 1036 253 1036 q 629 954 529 1036 l 556 828 q 481 876 529 856 q 379 896 433 896 q 270 865 310 896 q 231 772 231 833 q 256 695 231 729 q 319 636 281 661 q 422 575 357 611 q 518 520 485 540 q 581 472 551 500 q 646 386 621 436 q 671 276 671 336 q 628 118 671 183 q 512 19 586 53 q 343 -14 438 -14 m 258 -367 q 276 -317 263 -356 q 293 -243 289 -278 q 249 -161 249 -214 q 278 -90 249 -118 q 350 -62 307 -62 q 421 -90 393 -62 q 449 -161 449 -118 q 413 -278 449 -215 q 344 -367 376 -340 l 258 -367 z "},"Ṡ":{"ha":729,"x_min":60,"x_max":671,"o":"m 343 -14 q 178 15 260 -14 q 60 81 96 44 l 133 213 q 224 158 163 186 q 343 129 286 129 q 463 164 417 129 q 510 260 510 199 q 485 342 510 307 q 424 399 460 376 q 321 456 388 422 q 213 514 242 494 q 78 764 78 604 q 165 966 78 896 q 386 1036 253 1036 q 629 954 529 1036 l 556 828 q 481 876 529 856 q 379 896 433 896 q 270 865 310 896 q 231 772 231 833 q 256 695 231 729 q 319 636 281 661 q 422 575 357 611 q 518 520 485 540 q 581 472 551 500 q 646 386 621 436 q 671 276 671 336 q 628 118 671 183 q 512 19 586 53 q 343 -14 438 -14 m 356 1122 q 284 1151 313 1122 q 256 1221 256 1179 q 284 1292 256 1264 q 356 1321 313 1321 q 427 1292 399 1321 q 456 1221 456 1264 q 426 1151 456 1179 q 356 1122 397 1122 z "},"Ṣ":{"ha":729,"x_min":60,"x_max":671,"o":"m 343 -14 q 178 15 260 -14 q 60 81 96 44 l 133 213 q 224 158 163 186 q 343 129 286 129 q 463 164 417 129 q 510 260 510 199 q 485 342 510 307 q 424 399 460 376 q 321 456 388 422 q 213 514 242 494 q 78 764 78 604 q 165 966 78 896 q 386 1036 253 1036 q 629 954 529 1036 l 556 828 q 481 876 529 856 q 379 896 433 896 q 270 865 310 896 q 231 772 231 833 q 256 695 231 729 q 319 636 281 661 q 422 575 357 611 q 518 520 485 540 q 581 472 551 500 q 646 386 621 436 q 671 276 671 336 q 628 118 671 183 q 512 19 586 53 q 343 -14 438 -14 m 358 -303 q 286 -274 315 -303 q 257 -201 257 -244 q 286 -135 257 -162 q 358 -107 315 -107 q 429 -135 400 -107 q 458 -201 458 -162 q 430 -274 458 -244 q 358 -303 401 -303 z "},"Ṩ":{"ha":729,"x_min":60,"x_max":671,"o":"m 343 -14 q 178 15 260 -14 q 60 81 96 44 l 133 213 q 224 158 163 186 q 343 129 286 129 q 463 164 417 129 q 510 260 510 199 q 485 342 510 307 q 424 399 460 376 q 321 456 388 422 q 213 514 242 494 q 78 764 78 604 q 165 966 78 896 q 386 1036 253 1036 q 629 954 529 1036 l 556 828 q 481 876 529 856 q 379 896 433 896 q 270 865 310 896 q 231 772 231 833 q 256 695 231 729 q 319 636 281 661 q 422 575 357 611 q 518 520 485 540 q 581 472 551 500 q 646 386 621 436 q 671 276 671 336 q 628 118 671 183 q 512 19 586 53 q 343 -14 438 -14 m 358 -303 q 286 -274 315 -303 q 257 -201 257 -244 q 286 -135 257 -162 q 358 -107 315 -107 q 429 -135 400 -107 q 458 -201 458 -162 q 430 -274 458 -244 q 358 -303 401 -303 m 356 1122 q 284 1151 313 1122 q 256 1221 256 1179 q 284 1292 256 1264 q 356 1321 313 1321 q 427 1292 399 1321 q 456 1221 456 1264 q 426 1151 456 1179 q 356 1122 397 1122 z "},"ẞ":{"ha":892,"x_min":107,"x_max":818,"o":"m 107 1021 l 772 1021 l 772 900 l 543 582 q 685 542 622 582 q 783 442 749 503 q 818 322 818 382 q 727 92 818 183 q 442 0 636 0 l 378 0 l 378 136 l 443 136 q 601 183 546 136 q 657 311 657 231 q 603 429 657 386 q 450 472 549 472 l 378 472 l 378 576 l 599 892 l 258 892 l 258 0 l 107 0 l 107 1021 z "},"Ə":{"ha":1032,"x_min":57,"x_max":967,"o":"m 449 1036 q 715 969 597 1036 q 900 782 833 901 q 967 513 967 663 q 910 242 967 361 q 744 54 853 122 q 485 -14 635 -14 q 57 533 57 -14 l 800 533 q 753 715 797 633 q 633 845 710 797 q 454 893 556 893 q 288 871 354 893 q 185 825 222 849 l 125 956 q 248 1009 165 982 q 449 1036 331 1036 m 482 129 q 688 203 610 129 q 790 410 767 278 l 235 410 q 306 196 235 263 q 482 129 378 129 z "},"T":{"ha":763,"x_min":42,"x_max":721,"o":"m 303 885 l 42 885 l 42 1021 l 721 1021 l 721 885 l 457 885 l 457 0 l 303 0 l 303 885 z "},"Ŧ":{"ha":763,"x_min":42,"x_max":721,"o":"m 457 885 l 457 617 l 618 617 l 618 501 l 457 501 l 457 0 l 303 0 l 303 501 l 146 501 l 146 617 l 303 617 l 303 885 l 42 885 l 42 1021 l 721 1021 l 721 885 l 457 885 z "},"Ť":{"ha":763,"x_min":42,"x_max":721,"o":"m 303 885 l 42 885 l 42 1021 l 721 1021 l 721 885 l 457 885 l 457 0 l 303 0 l 303 885 m 117 1290 l 193 1365 l 381 1244 l 568 1365 l 643 1290 l 381 1076 l 117 1290 z "},"Ţ":{"ha":763,"x_min":42,"x_max":721,"o":"m 457 0 l 429 0 q 444 -28 433 -14 q 456 -44 454 -42 q 490 -101 478 -74 q 503 -167 503 -128 q 447 -308 503 -262 q 293 -353 390 -353 q 218 -346 260 -353 l 231 -217 q 269 -219 250 -219 q 368 -157 368 -219 q 363 -131 368 -144 q 352 -110 357 -118 q 346 -100 347 -103 q 326 -65 333 -82 q 318 -28 318 -49 q 321 0 318 -11 l 303 0 l 303 885 l 42 885 l 42 1021 l 721 1021 l 721 885 l 457 885 l 457 0 z "},"Ț":{"ha":763,"x_min":42,"x_max":721,"o":"m 303 885 l 42 885 l 42 1021 l 721 1021 l 721 885 l 457 885 l 457 0 l 303 0 l 303 885 m 283 -367 q 301 -317 288 -356 q 318 -243 314 -278 q 274 -161 274 -214 q 303 -90 274 -118 q 375 -62 332 -62 q 446 -90 418 -62 q 474 -161 474 -118 q 438 -278 474 -215 q 369 -367 401 -340 l 283 -367 z "},"Ṭ":{"ha":763,"x_min":42,"x_max":721,"o":"m 303 885 l 42 885 l 42 1021 l 721 1021 l 721 885 l 457 885 l 457 0 l 303 0 l 303 885 m 383 -303 q 311 -274 340 -303 q 282 -201 282 -244 q 311 -135 282 -162 q 383 -107 340 -107 q 454 -135 425 -107 q 483 -201 483 -162 q 455 -274 483 -244 q 383 -303 426 -303 z "},"Ṯ":{"ha":763,"x_min":42,"x_max":721,"o":"m 303 885 l 42 885 l 42 1021 l 721 1021 l 721 885 l 457 885 l 457 0 l 303 0 l 303 885 m 146 -112 l 615 -112 l 615 -228 l 146 -228 l 146 -112 z "},"U":{"ha":919,"x_min":96,"x_max":824,"o":"m 460 -14 q 182 101 268 -14 q 96 436 96 217 l 96 1021 l 251 1021 l 251 433 q 300 201 251 271 q 460 131 349 131 q 619 199 571 131 q 667 433 667 268 l 667 1021 l 824 1021 l 824 436 q 733 102 824 218 q 460 -14 642 -14 z "},"Ú":{"ha":919,"x_min":96,"x_max":824,"o":"m 460 -14 q 182 101 268 -14 q 96 436 96 217 l 96 1021 l 251 1021 l 251 433 q 300 201 251 271 q 460 131 349 131 q 619 199 571 131 q 667 433 667 268 l 667 1021 l 824 1021 l 824 436 q 733 102 824 218 q 460 -14 642 -14 m 351 1176 l 624 1383 l 707 1268 l 411 1085 l 351 1176 z "},"Ŭ":{"ha":919,"x_min":96,"x_max":824,"o":"m 460 -14 q 182 101 268 -14 q 96 436 96 217 l 96 1021 l 251 1021 l 251 433 q 300 201 251 271 q 460 131 349 131 q 619 199 571 131 q 667 433 667 268 l 667 1021 l 824 1021 l 824 436 q 733 102 824 218 q 460 -14 642 -14 m 465 1096 q 281 1166 349 1096 q 213 1346 213 1236 l 346 1346 q 374 1256 346 1293 q 465 1218 403 1218 q 551 1257 518 1218 q 585 1346 585 1296 l 717 1346 q 649 1166 717 1236 q 465 1096 581 1096 z "},"Û":{"ha":919,"x_min":96,"x_max":824,"o":"m 460 -14 q 182 101 268 -14 q 96 436 96 217 l 96 1021 l 251 1021 l 251 433 q 300 201 251 271 q 460 131 349 131 q 619 199 571 131 q 667 433 667 268 l 667 1021 l 824 1021 l 824 436 q 733 102 824 218 q 460 -14 642 -14 m 201 1163 l 465 1376 l 728 1163 l 653 1088 l 465 1208 l 278 1088 l 201 1163 z "},"Ȕ":{"ha":919,"x_min":86,"x_max":824,"o":"m 460 -14 q 182 101 268 -14 q 96 436 96 217 l 96 1021 l 251 1021 l 251 433 q 300 201 251 271 q 460 131 349 131 q 619 199 571 131 q 667 433 667 268 l 667 1021 l 824 1021 l 824 436 q 733 102 824 218 q 460 -14 642 -14 m 389 1338 l 525 1406 l 664 1119 l 564 1076 l 389 1338 m 86 1336 l 222 1404 l 375 1119 l 275 1076 l 86 1336 z "},"Ü":{"ha":919,"x_min":96,"x_max":824,"o":"m 460 -14 q 182 101 268 -14 q 96 436 96 217 l 96 1021 l 251 1021 l 251 433 q 300 201 251 271 q 460 131 349 131 q 619 199 571 131 q 667 433 667 268 l 667 1021 l 824 1021 l 824 436 q 733 102 824 218 q 460 -14 642 -14 m 297 1111 q 226 1140 256 1111 q 197 1210 197 1169 q 226 1280 197 1251 q 297 1308 254 1308 q 369 1280 340 1308 q 397 1210 397 1251 q 368 1140 397 1169 q 297 1111 339 1111 m 632 1111 q 561 1140 590 1111 q 532 1210 532 1169 q 560 1280 532 1251 q 632 1308 589 1308 q 704 1280 675 1308 q 733 1210 733 1251 q 704 1140 733 1169 q 632 1111 675 1111 z "},"Ụ":{"ha":919,"x_min":96,"x_max":824,"o":"m 460 -14 q 182 101 268 -14 q 96 436 96 217 l 96 1021 l 251 1021 l 251 433 q 300 201 251 271 q 460 131 349 131 q 619 199 571 131 q 667 433 667 268 l 667 1021 l 824 1021 l 824 436 q 733 102 824 218 q 460 -14 642 -14 m 463 -303 q 390 -274 419 -303 q 361 -201 361 -244 q 390 -135 361 -162 q 463 -107 419 -107 q 533 -135 504 -107 q 563 -201 563 -162 q 534 -274 563 -244 q 463 -303 506 -303 z "},"Ù":{"ha":919,"x_min":96,"x_max":824,"o":"m 460 -14 q 182 101 268 -14 q 96 436 96 217 l 96 1021 l 251 1021 l 251 433 q 300 201 251 271 q 460 131 349 131 q 619 199 571 131 q 667 433 667 268 l 667 1021 l 824 1021 l 824 436 q 733 102 824 218 q 460 -14 642 -14 m 224 1268 l 307 1383 l 579 1176 l 519 1085 l 224 1268 z "},"Ủ":{"ha":919,"x_min":96,"x_max":824,"o":"m 460 -14 q 182 101 268 -14 q 96 436 96 217 l 96 1021 l 251 1021 l 251 433 q 300 201 251 271 q 460 131 349 131 q 619 199 571 131 q 667 433 667 268 l 667 1021 l 824 1021 l 824 436 q 733 102 824 218 q 460 -14 642 -14 m 481 1086 q 437 1088 457 1086 q 397 1094 417 1089 l 374 1182 q 415 1178 393 1178 q 490 1193 457 1178 q 524 1243 524 1208 q 502 1279 524 1267 q 440 1292 481 1292 q 382 1285 403 1292 q 328 1263 361 1279 l 299 1349 q 361 1385 321 1368 q 460 1401 401 1401 q 592 1365 532 1401 q 651 1243 651 1328 q 631 1169 651 1206 q 572 1110 610 1133 q 481 1086 533 1086 z "},"Ư":{"ha":911,"x_min":96,"x_max":940,"o":"m 940 1085 q 906 1006 940 1038 q 824 960 871 974 l 824 436 q 733 102 824 218 q 460 -14 642 -14 q 182 101 268 -14 q 96 436 96 217 l 96 1021 l 251 1021 l 251 433 q 300 201 251 271 q 460 131 349 131 q 619 199 571 131 q 667 433 667 268 l 667 1021 q 763 1036 715 1021 q 811 1106 811 1051 q 800 1185 811 1157 l 931 1185 q 938 1147 936 1167 q 940 1085 940 1126 z "},"Ứ":{"ha":911,"x_min":96,"x_max":940,"o":"m 940 1085 q 906 1006 940 1038 q 824 960 871 974 l 824 436 q 733 102 824 218 q 460 -14 642 -14 q 182 101 268 -14 q 96 436 96 217 l 96 1021 l 251 1021 l 251 433 q 300 201 251 271 q 460 131 349 131 q 619 199 571 131 q 667 433 667 268 l 667 1021 q 763 1036 715 1021 q 811 1106 811 1051 q 800 1185 811 1157 l 931 1185 q 938 1147 936 1167 q 940 1085 940 1126 m 351 1176 l 624 1383 l 707 1268 l 411 1085 l 351 1176 z "},"Ự":{"ha":911,"x_min":96,"x_max":940,"o":"m 940 1085 q 906 1006 940 1038 q 824 960 871 974 l 824 436 q 733 102 824 218 q 460 -14 642 -14 q 182 101 268 -14 q 96 436 96 217 l 96 1021 l 251 1021 l 251 433 q 300 201 251 271 q 460 131 349 131 q 619 199 571 131 q 667 433 667 268 l 667 1021 q 763 1036 715 1021 q 811 1106 811 1051 q 800 1185 811 1157 l 931 1185 q 938 1147 936 1167 q 940 1085 940 1126 m 461 -303 q 389 -274 418 -303 q 360 -201 360 -244 q 389 -135 360 -162 q 461 -107 418 -107 q 531 -135 503 -107 q 560 -201 560 -162 q 532 -274 560 -244 q 461 -303 504 -303 z "},"Ừ":{"ha":911,"x_min":96,"x_max":940,"o":"m 940 1085 q 906 1006 940 1038 q 824 960 871 974 l 824 436 q 733 102 824 218 q 460 -14 642 -14 q 182 101 268 -14 q 96 436 96 217 l 96 1021 l 251 1021 l 251 433 q 300 201 251 271 q 460 131 349 131 q 619 199 571 131 q 667 433 667 268 l 667 1021 q 763 1036 715 1021 q 811 1106 811 1051 q 800 1185 811 1157 l 931 1185 q 938 1147 936 1167 q 940 1085 940 1126 m 224 1268 l 307 1383 l 579 1176 l 519 1085 l 224 1268 z "},"Ử":{"ha":911,"x_min":96,"x_max":940,"o":"m 940 1085 q 906 1006 940 1038 q 824 960 871 974 l 824 436 q 733 102 824 218 q 460 -14 642 -14 q 182 101 268 -14 q 96 436 96 217 l 96 1021 l 251 1021 l 251 433 q 300 201 251 271 q 460 131 349 131 q 619 199 571 131 q 667 433 667 268 l 667 1021 q 763 1036 715 1021 q 811 1106 811 1051 q 800 1185 811 1157 l 931 1185 q 938 1147 936 1167 q 940 1085 940 1126 m 481 1086 q 437 1088 457 1086 q 397 1094 417 1089 l 374 1182 q 415 1178 393 1178 q 490 1193 457 1178 q 524 1243 524 1208 q 502 1279 524 1267 q 440 1292 481 1292 q 382 1285 403 1292 q 328 1263 361 1279 l 299 1349 q 361 1385 321 1368 q 460 1401 401 1401 q 592 1365 532 1401 q 651 1243 651 1328 q 631 1169 651 1206 q 572 1110 610 1133 q 481 1086 533 1086 z "},"Ữ":{"ha":911,"x_min":96,"x_max":940,"o":"m 940 1085 q 906 1006 940 1038 q 824 960 871 974 l 824 436 q 733 102 824 218 q 460 -14 642 -14 q 182 101 268 -14 q 96 436 96 217 l 96 1021 l 251 1021 l 251 433 q 300 201 251 271 q 460 131 349 131 q 619 199 571 131 q 667 433 667 268 l 667 1021 q 763 1036 715 1021 q 811 1106 811 1051 q 800 1185 811 1157 l 931 1185 q 938 1147 936 1167 q 940 1085 940 1126 m 558 1119 q 492 1132 518 1119 q 439 1168 467 1144 q 395 1198 413 1189 q 353 1207 378 1207 q 315 1191 328 1207 q 281 1128 301 1175 l 221 1221 q 276 1303 232 1268 q 374 1338 321 1338 q 448 1324 421 1338 q 504 1283 475 1310 q 539 1257 525 1265 q 574 1249 553 1249 q 660 1313 635 1249 l 713 1232 q 660 1151 706 1182 q 558 1119 614 1119 z "},"Ű":{"ha":919,"x_min":96,"x_max":824,"o":"m 460 -14 q 182 101 268 -14 q 96 436 96 217 l 96 1021 l 251 1021 l 251 433 q 300 201 251 271 q 460 131 349 131 q 619 199 571 131 q 667 433 667 268 l 667 1021 l 824 1021 l 824 436 q 733 102 824 218 q 460 -14 642 -14 m 246 1104 l 383 1393 l 522 1325 l 346 1060 l 246 1104 m 533 1104 l 672 1393 l 811 1325 l 633 1060 l 533 1104 z "},"Ȗ":{"ha":919,"x_min":96,"x_max":824,"o":"m 460 -14 q 182 101 268 -14 q 96 436 96 217 l 96 1021 l 251 1021 l 251 433 q 300 201 251 271 q 460 131 349 131 q 619 199 571 131 q 667 433 667 268 l 667 1021 l 824 1021 l 824 436 q 733 102 824 218 q 460 -14 642 -14 m 213 1104 q 281 1284 213 1214 q 465 1354 349 1354 q 649 1284 581 1354 q 717 1104 717 1214 l 585 1104 q 551 1193 585 1154 q 465 1232 518 1232 q 374 1194 403 1232 q 346 1104 346 1157 l 213 1104 z "},"Ū":{"ha":919,"x_min":96,"x_max":824,"o":"m 460 -14 q 182 101 268 -14 q 96 436 96 217 l 96 1021 l 251 1021 l 251 433 q 300 201 251 271 q 460 131 349 131 q 619 199 571 131 q 667 433 667 268 l 667 1021 l 824 1021 l 824 436 q 733 102 824 218 q 460 -14 642 -14 m 231 1249 l 700 1249 l 700 1133 l 231 1133 l 231 1249 z "},"Ṻ":{"ha":919,"x_min":96,"x_max":824,"o":"m 460 -14 q 182 101 268 -14 q 96 436 96 217 l 96 1021 l 251 1021 l 251 433 q 300 201 251 271 q 460 131 349 131 q 619 199 571 131 q 667 433 667 268 l 667 1021 l 824 1021 l 824 436 q 733 102 824 218 q 460 -14 642 -14 m 231 1249 l 700 1249 l 700 1133 l 231 1133 l 231 1249 m 297 1382 q 226 1411 256 1382 q 197 1481 197 1440 q 226 1551 197 1522 q 297 1579 254 1579 q 369 1551 340 1579 q 397 1481 397 1522 q 368 1411 397 1440 q 297 1382 339 1382 m 632 1382 q 561 1411 590 1382 q 532 1481 532 1440 q 560 1551 532 1522 q 632 1579 589 1579 q 704 1551 675 1579 q 733 1481 733 1522 q 704 1411 733 1440 q 632 1382 675 1382 z "},"Ų":{"ha":919,"x_min":96,"x_max":824,"o":"m 824 1021 l 824 436 q 754 133 824 246 q 546 -7 685 19 q 458 -61 494 -25 q 422 -150 422 -97 q 446 -208 422 -183 q 519 -233 469 -233 q 565 -231 546 -233 l 565 -360 q 497 -367 524 -367 q 344 -322 400 -367 q 288 -181 288 -276 q 385 -8 288 -82 q 165 126 233 14 q 96 436 96 239 l 96 1021 l 251 1021 l 251 433 q 300 201 251 271 q 460 131 349 131 q 619 199 571 131 q 667 433 667 268 l 667 1021 l 824 1021 z "},"Ů":{"ha":919,"x_min":96,"x_max":824,"o":"m 460 -14 q 182 101 268 -14 q 96 436 96 217 l 96 1021 l 251 1021 l 251 433 q 300 201 251 271 q 460 131 349 131 q 619 199 571 131 q 667 433 667 268 l 667 1021 l 824 1021 l 824 436 q 733 102 824 218 q 460 -14 642 -14 m 465 1054 q 363 1077 410 1054 q 288 1141 315 1100 q 260 1235 260 1182 q 320 1362 260 1313 q 465 1411 381 1411 q 567 1389 519 1411 q 642 1326 614 1367 q 671 1235 671 1285 q 642 1142 671 1183 q 567 1078 614 1101 q 465 1054 519 1054 m 465 1154 q 524 1177 500 1154 q 549 1235 549 1200 q 524 1290 549 1268 q 465 1311 500 1311 q 407 1290 431 1311 q 383 1235 383 1268 q 407 1177 383 1200 q 465 1154 431 1154 z "},"Ũ":{"ha":919,"x_min":96,"x_max":824,"o":"m 460 -14 q 182 101 268 -14 q 96 436 96 217 l 96 1021 l 251 1021 l 251 433 q 300 201 251 271 q 460 131 349 131 q 619 199 571 131 q 667 433 667 268 l 667 1021 l 824 1021 l 824 436 q 733 102 824 218 q 460 -14 642 -14 m 558 1119 q 492 1132 518 1119 q 439 1168 467 1144 q 395 1198 413 1189 q 353 1207 378 1207 q 315 1191 328 1207 q 281 1128 301 1175 l 221 1221 q 276 1303 232 1268 q 374 1338 321 1338 q 448 1324 421 1338 q 504 1283 475 1310 q 539 1257 525 1265 q 574 1249 553 1249 q 660 1313 635 1249 l 713 1232 q 660 1151 706 1182 q 558 1119 614 1119 z "},"Ṹ":{"ha":919,"x_min":96,"x_max":824,"o":"m 460 -14 q 182 101 268 -14 q 96 436 96 217 l 96 1021 l 251 1021 l 251 433 q 300 201 251 271 q 460 131 349 131 q 619 199 571 131 q 667 433 667 268 l 667 1021 l 824 1021 l 824 436 q 733 102 824 218 q 460 -14 642 -14 m 558 1119 q 492 1132 518 1119 q 439 1168 467 1144 q 395 1198 413 1189 q 353 1207 378 1207 q 315 1191 328 1207 q 281 1128 301 1175 l 221 1221 q 276 1303 232 1268 q 374 1338 321 1338 q 448 1324 421 1338 q 504 1283 475 1310 q 539 1257 525 1265 q 574 1249 553 1249 q 660 1313 635 1249 l 713 1232 q 660 1151 706 1182 q 558 1119 614 1119 m 351 1475 l 624 1682 l 707 1567 l 411 1383 l 351 1475 z "},"V":{"ha":919,"x_min":-22,"x_max":942,"o":"m -22 1021 l 154 1021 l 460 319 l 767 1021 l 942 1021 l 471 0 l 450 0 l -22 1021 z "},"W":{"ha":1365,"x_min":-11,"x_max":1376,"o":"m 967 364 l 1211 1021 l 1376 1021 l 979 0 l 960 0 l 682 661 l 406 1 l 386 1 l -11 1021 l 154 1021 l 399 364 l 679 1026 l 688 1026 l 967 364 z "},"Ẃ":{"ha":1365,"x_min":-11,"x_max":1376,"o":"m 967 364 l 1211 1021 l 1376 1021 l 979 0 l 960 0 l 682 661 l 406 1 l 386 1 l -11 1021 l 154 1021 l 399 364 l 679 1026 l 688 1026 l 967 364 m 569 1176 l 842 1383 l 925 1268 l 629 1085 l 569 1176 z "},"Ŵ":{"ha":1365,"x_min":-11,"x_max":1376,"o":"m 967 364 l 1211 1021 l 1376 1021 l 979 0 l 960 0 l 682 661 l 406 1 l 386 1 l -11 1021 l 154 1021 l 399 364 l 679 1026 l 688 1026 l 967 364 m 419 1163 l 683 1376 l 946 1163 l 871 1088 l 683 1208 l 496 1088 l 419 1163 z "},"Ẅ":{"ha":1365,"x_min":-11,"x_max":1376,"o":"m 967 364 l 1211 1021 l 1376 1021 l 979 0 l 960 0 l 682 661 l 406 1 l 386 1 l -11 1021 l 154 1021 l 399 364 l 679 1026 l 688 1026 l 967 364 m 515 1111 q 444 1140 474 1111 q 415 1210 415 1169 q 444 1280 415 1251 q 515 1308 472 1308 q 587 1280 558 1308 q 615 1210 615 1251 q 586 1140 615 1169 q 515 1111 557 1111 m 850 1111 q 779 1140 808 1111 q 750 1210 750 1169 q 778 1280 750 1251 q 850 1308 807 1308 q 922 1280 893 1308 q 951 1210 951 1251 q 922 1140 951 1169 q 850 1111 893 1111 z "},"Ẁ":{"ha":1365,"x_min":-11,"x_max":1376,"o":"m 967 364 l 1211 1021 l 1376 1021 l 979 0 l 960 0 l 682 661 l 406 1 l 386 1 l -11 1021 l 154 1021 l 399 364 l 679 1026 l 688 1026 l 967 364 m 442 1268 l 525 1383 l 797 1176 l 738 1085 l 442 1268 z "},"X":{"ha":838,"x_min":14,"x_max":824,"o":"m 326 532 l 32 1021 l 219 1021 l 413 664 l 611 1021 l 794 1021 l 499 535 l 824 0 l 639 0 l 414 404 l 193 0 l 14 0 l 326 532 z "},"Y":{"ha":818,"x_min":-22,"x_max":840,"o":"m 332 476 l -22 1021 l 164 1021 l 410 618 l 656 1021 l 840 1021 l 488 474 l 488 0 l 332 0 l 332 476 z "},"Ý":{"ha":818,"x_min":-22,"x_max":840,"o":"m 332 476 l -22 1021 l 164 1021 l 410 618 l 656 1021 l 840 1021 l 488 474 l 488 0 l 332 0 l 332 476 m 296 1176 l 568 1383 l 651 1268 l 356 1085 l 296 1176 z "},"Ŷ":{"ha":818,"x_min":-22,"x_max":840,"o":"m 332 476 l -22 1021 l 164 1021 l 410 618 l 656 1021 l 840 1021 l 488 474 l 488 0 l 332 0 l 332 476 m 146 1163 l 410 1376 l 672 1163 l 597 1088 l 410 1208 l 222 1088 l 146 1163 z "},"Ÿ":{"ha":818,"x_min":-22,"x_max":840,"o":"m 332 476 l -22 1021 l 164 1021 l 410 618 l 656 1021 l 840 1021 l 488 474 l 488 0 l 332 0 l 332 476 m 242 1111 q 171 1140 200 1111 q 142 1210 142 1169 q 170 1280 142 1251 q 242 1308 199 1308 q 313 1280 285 1308 q 342 1210 342 1251 q 313 1140 342 1169 q 242 1111 283 1111 m 576 1111 q 506 1140 535 1111 q 476 1210 476 1169 q 505 1280 476 1251 q 576 1308 533 1308 q 649 1280 619 1308 q 678 1210 678 1251 q 649 1140 678 1169 q 576 1111 619 1111 z "},"Ẏ":{"ha":818,"x_min":-22,"x_max":840,"o":"m 332 476 l -22 1021 l 164 1021 l 410 618 l 656 1021 l 840 1021 l 488 474 l 488 0 l 332 0 l 332 476 m 410 1122 q 338 1151 367 1122 q 310 1221 310 1179 q 338 1292 310 1264 q 410 1321 367 1321 q 481 1292 453 1321 q 510 1221 510 1264 q 481 1151 510 1179 q 410 1122 451 1122 z "},"Ỵ":{"ha":818,"x_min":-22,"x_max":840,"o":"m 332 476 l -22 1021 l 164 1021 l 410 618 l 656 1021 l 840 1021 l 488 474 l 488 0 l 332 0 l 332 476 m 413 -317 q 340 -287 369 -317 q 311 -215 311 -258 q 340 -149 311 -176 q 413 -121 369 -121 q 483 -149 454 -121 q 513 -215 513 -176 q 484 -287 513 -258 q 413 -317 456 -317 z "},"Ỳ":{"ha":818,"x_min":-22,"x_max":840,"o":"m 332 476 l -22 1021 l 164 1021 l 410 618 l 656 1021 l 840 1021 l 488 474 l 488 0 l 332 0 l 332 476 m 168 1268 l 251 1383 l 524 1176 l 464 1085 l 168 1268 z "},"Ỷ":{"ha":818,"x_min":-22,"x_max":840,"o":"m 332 476 l -22 1021 l 164 1021 l 410 618 l 656 1021 l 840 1021 l 488 474 l 488 0 l 332 0 l 332 476 m 425 1086 q 381 1088 401 1086 q 342 1094 361 1089 l 318 1182 q 360 1178 338 1178 q 435 1193 401 1178 q 468 1243 468 1208 q 447 1279 468 1267 q 385 1292 425 1292 q 326 1285 347 1292 q 272 1263 306 1279 l 243 1349 q 306 1385 265 1368 q 404 1401 346 1401 q 536 1365 476 1401 q 596 1243 596 1328 q 575 1169 596 1206 q 516 1110 554 1133 q 425 1086 478 1086 z "},"Ȳ":{"ha":818,"x_min":-22,"x_max":840,"o":"m 332 476 l -22 1021 l 164 1021 l 410 618 l 656 1021 l 840 1021 l 488 474 l 488 0 l 332 0 l 332 476 m 175 1249 l 644 1249 l 644 1133 l 175 1133 l 175 1249 z "},"Ỹ":{"ha":818,"x_min":-22,"x_max":840,"o":"m 332 476 l -22 1021 l 164 1021 l 410 618 l 656 1021 l 840 1021 l 488 474 l 488 0 l 332 0 l 332 476 m 503 1119 q 437 1132 463 1119 q 383 1168 411 1144 q 340 1198 357 1189 q 297 1207 322 1207 q 259 1191 272 1207 q 225 1128 246 1175 l 165 1221 q 221 1303 176 1268 q 318 1338 265 1338 q 392 1324 365 1338 q 449 1283 419 1310 q 483 1257 469 1265 q 518 1249 497 1249 q 604 1313 579 1249 l 657 1232 q 604 1151 650 1182 q 503 1119 558 1119 z "},"Z":{"ha":806,"x_min":11,"x_max":767,"o":"m 522 888 l 76 888 l 76 1021 l 767 1021 l 263 136 l 746 136 l 746 0 l 11 0 l 522 888 z "},"Ź":{"ha":806,"x_min":11,"x_max":767,"o":"m 522 888 l 76 888 l 76 1021 l 767 1021 l 263 136 l 746 136 l 746 0 l 11 0 l 522 888 m 293 1176 l 565 1383 l 649 1268 l 353 1085 l 293 1176 z "},"Ž":{"ha":806,"x_min":11,"x_max":767,"o":"m 522 888 l 76 888 l 76 1021 l 767 1021 l 263 136 l 746 136 l 746 0 l 11 0 l 522 888 m 143 1290 l 219 1365 l 407 1244 l 594 1365 l 669 1290 l 407 1076 l 143 1290 z "},"Ż":{"ha":806,"x_min":11,"x_max":767,"o":"m 522 888 l 76 888 l 76 1021 l 767 1021 l 263 136 l 746 136 l 746 0 l 11 0 l 522 888 m 407 1122 q 335 1151 364 1122 q 307 1221 307 1179 q 335 1292 307 1264 q 407 1321 364 1321 q 478 1292 450 1321 q 507 1221 507 1264 q 478 1151 507 1179 q 407 1122 449 1122 z "},"Ẓ":{"ha":806,"x_min":11,"x_max":767,"o":"m 522 888 l 76 888 l 76 1021 l 767 1021 l 263 136 l 746 136 l 746 0 l 11 0 l 522 888 m 397 -303 q 325 -274 354 -303 q 296 -201 296 -244 q 325 -135 296 -162 q 397 -107 354 -107 q 468 -135 439 -107 q 497 -201 497 -162 q 469 -274 497 -244 q 397 -303 440 -303 z "},"a":{"ha":854,"x_min":61,"x_max":751,"o":"m 381 -14 q 222 27 294 -14 q 105 144 149 68 q 61 321 61 219 q 99 496 61 421 q 208 613 138 571 q 375 654 279 654 q 479 635 431 654 q 561 587 528 615 q 606 531 594 558 l 608 638 l 751 638 l 751 0 l 610 0 l 607 113 q 521 24 583 63 q 381 -14 458 -14 m 406 111 q 539 166 485 111 q 593 310 593 221 l 593 319 q 568 426 593 379 q 500 500 543 474 q 406 526 457 526 q 268 469 317 526 q 219 319 219 411 q 267 169 219 226 q 406 111 315 111 z "},"á":{"ha":854,"x_min":61,"x_max":751,"o":"m 381 -14 q 222 27 294 -14 q 105 144 149 68 q 61 321 61 219 q 99 496 61 421 q 208 613 138 571 q 375 654 279 654 q 479 635 431 654 q 561 587 528 615 q 606 531 594 558 l 608 638 l 751 638 l 751 0 l 610 0 l 607 113 q 521 24 583 63 q 381 -14 458 -14 m 406 111 q 539 166 485 111 q 593 310 593 221 l 593 319 q 568 426 593 379 q 500 500 543 474 q 406 526 457 526 q 268 469 317 526 q 219 319 219 411 q 267 169 219 226 q 406 111 315 111 m 317 814 l 529 1132 l 661 1047 l 418 757 l 317 814 z "},"ă":{"ha":854,"x_min":61,"x_max":751,"o":"m 381 -14 q 222 27 294 -14 q 105 144 149 68 q 61 321 61 219 q 99 496 61 421 q 208 613 138 571 q 375 654 279 654 q 479 635 431 654 q 561 587 528 615 q 606 531 594 558 l 608 638 l 751 638 l 751 0 l 610 0 l 607 113 q 521 24 583 63 q 381 -14 458 -14 m 406 111 q 539 166 485 111 q 593 310 593 221 l 593 319 q 568 426 593 379 q 500 500 543 474 q 406 526 457 526 q 268 469 317 526 q 219 319 219 411 q 267 169 219 226 q 406 111 315 111 m 421 767 q 237 835 304 767 q 169 1014 169 904 l 303 1014 q 331 924 303 961 q 421 888 358 888 q 507 926 474 888 q 540 1014 540 965 l 672 1014 q 604 835 672 904 q 421 767 536 767 z "},"ắ":{"ha":854,"x_min":61,"x_max":751,"o":"m 381 -14 q 222 27 294 -14 q 105 144 149 68 q 61 321 61 219 q 99 496 61 421 q 208 613 138 571 q 375 654 279 654 q 479 635 431 654 q 561 587 528 615 q 606 531 594 558 l 608 638 l 751 638 l 751 0 l 610 0 l 607 113 q 521 24 583 63 q 381 -14 458 -14 m 406 111 q 539 166 485 111 q 593 310 593 221 l 593 319 q 568 426 593 379 q 500 500 543 474 q 406 526 457 526 q 268 469 317 526 q 219 319 219 411 q 267 169 219 226 q 406 111 315 111 m 361 1104 l 526 1340 l 644 1269 l 463 1053 l 361 1104 m 421 786 q 251 849 313 786 q 189 1014 189 913 l 313 1014 q 338 931 313 964 q 421 897 364 897 q 501 933 471 897 q 531 1014 531 968 l 653 1014 q 590 849 653 913 q 421 786 528 786 z "},"ặ":{"ha":854,"x_min":61,"x_max":751,"o":"m 381 -14 q 222 27 294 -14 q 105 144 149 68 q 61 321 61 219 q 99 496 61 421 q 208 613 138 571 q 375 654 279 654 q 479 635 431 654 q 561 587 528 615 q 606 531 594 558 l 608 638 l 751 638 l 751 0 l 610 0 l 607 113 q 521 24 583 63 q 381 -14 458 -14 m 406 111 q 539 166 485 111 q 593 310 593 221 l 593 319 q 568 426 593 379 q 500 500 543 474 q 406 526 457 526 q 268 469 317 526 q 219 319 219 411 q 267 169 219 226 q 406 111 315 111 m 396 -303 q 324 -274 353 -303 q 294 -201 294 -244 q 324 -135 294 -162 q 396 -107 353 -107 q 466 -135 438 -107 q 494 -201 494 -162 q 467 -274 494 -244 q 396 -303 439 -303 m 421 767 q 237 835 304 767 q 169 1014 169 904 l 303 1014 q 331 924 303 961 q 421 888 358 888 q 507 926 474 888 q 540 1014 540 965 l 672 1014 q 604 835 672 904 q 421 767 536 767 z "},"ằ":{"ha":854,"x_min":61,"x_max":751,"o":"m 381 -14 q 222 27 294 -14 q 105 144 149 68 q 61 321 61 219 q 99 496 61 421 q 208 613 138 571 q 375 654 279 654 q 479 635 431 654 q 561 587 528 615 q 606 531 594 558 l 608 638 l 751 638 l 751 0 l 610 0 l 607 113 q 521 24 583 63 q 381 -14 458 -14 m 406 111 q 539 166 485 111 q 593 310 593 221 l 593 319 q 568 426 593 379 q 500 500 543 474 q 406 526 457 526 q 268 469 317 526 q 219 319 219 411 q 267 169 219 226 q 406 111 315 111 m 253 1269 l 371 1340 l 536 1104 l 435 1053 l 253 1269 m 421 786 q 251 849 313 786 q 189 1014 189 913 l 313 1014 q 338 931 313 964 q 421 897 364 897 q 501 933 471 897 q 531 1014 531 968 l 653 1014 q 590 849 653 913 q 421 786 528 786 z "},"ẳ":{"ha":854,"x_min":61,"x_max":751,"o":"m 381 -14 q 222 27 294 -14 q 105 144 149 68 q 61 321 61 219 q 99 496 61 421 q 208 613 138 571 q 375 654 279 654 q 479 635 431 654 q 561 587 528 615 q 606 531 594 558 l 608 638 l 751 638 l 751 0 l 610 0 l 607 113 q 521 24 583 63 q 381 -14 458 -14 m 406 111 q 539 166 485 111 q 593 310 593 221 l 593 319 q 568 426 593 379 q 500 500 543 474 q 406 526 457 526 q 268 469 317 526 q 219 319 219 411 q 267 169 219 226 q 406 111 315 111 m 436 1071 q 396 1072 414 1071 q 358 1078 378 1074 l 338 1146 q 375 1143 349 1143 q 436 1157 411 1143 q 461 1204 461 1171 q 439 1243 461 1226 q 381 1260 417 1260 q 294 1233 347 1260 l 268 1313 q 329 1345 285 1329 q 417 1361 374 1361 q 539 1327 485 1361 q 593 1215 593 1293 q 574 1147 593 1181 q 519 1092 556 1114 q 436 1071 483 1071 m 421 786 q 251 849 313 786 q 189 1014 189 913 l 313 1014 q 338 931 313 964 q 421 897 364 897 q 500 933 469 897 q 531 1014 531 969 l 653 1014 q 590 849 653 913 q 421 786 528 786 z "},"ẵ":{"ha":854,"x_min":61,"x_max":751,"o":"m 381 -14 q 222 27 294 -14 q 105 144 149 68 q 61 321 61 219 q 99 496 61 421 q 208 613 138 571 q 375 654 279 654 q 479 635 431 654 q 561 587 528 615 q 606 531 594 558 l 608 638 l 751 638 l 751 0 l 610 0 l 607 113 q 521 24 583 63 q 381 -14 458 -14 m 406 111 q 539 166 485 111 q 593 310 593 221 l 593 319 q 568 426 593 379 q 500 500 543 474 q 406 526 457 526 q 268 469 317 526 q 219 319 219 411 q 267 169 219 226 q 406 111 315 111 m 500 1107 q 441 1118 463 1107 q 396 1151 419 1129 q 367 1174 379 1167 q 338 1181 356 1181 q 290 1164 314 1181 q 250 1114 265 1147 l 197 1186 q 247 1258 208 1224 q 340 1292 286 1292 q 402 1280 379 1292 q 447 1247 425 1268 q 475 1224 463 1232 q 506 1217 488 1217 q 552 1233 528 1217 q 592 1286 576 1250 l 644 1211 q 595 1139 635 1171 q 500 1107 556 1107 m 421 786 q 251 849 313 786 q 189 1014 189 913 l 313 1014 q 338 931 313 964 q 421 897 364 897 q 500 933 469 897 q 531 1014 531 969 l 653 1014 q 590 849 653 913 q 421 786 528 786 z "},"â":{"ha":854,"x_min":61,"x_max":751,"o":"m 381 -14 q 222 27 294 -14 q 105 144 149 68 q 61 321 61 219 q 99 496 61 421 q 208 613 138 571 q 375 654 279 654 q 479 635 431 654 q 561 587 528 615 q 606 531 594 558 l 608 638 l 751 638 l 751 0 l 610 0 l 607 113 q 521 24 583 63 q 381 -14 458 -14 m 406 111 q 539 166 485 111 q 593 310 593 221 l 593 319 q 568 426 593 379 q 500 500 543 474 q 406 526 457 526 q 268 469 317 526 q 219 319 219 411 q 267 169 219 226 q 406 111 315 111 m 172 818 l 421 1104 l 669 818 l 581 743 l 421 936 l 263 743 l 172 818 z "},"ấ":{"ha":854,"x_min":61,"x_max":769,"o":"m 381 -14 q 222 27 294 -14 q 105 144 149 68 q 61 321 61 219 q 99 496 61 421 q 208 613 138 571 q 375 654 279 654 q 479 635 431 654 q 561 587 528 615 q 606 531 594 558 l 608 638 l 751 638 l 751 0 l 610 0 l 607 113 q 521 24 583 63 q 381 -14 458 -14 m 406 111 q 539 166 485 111 q 593 310 593 221 l 593 319 q 568 426 593 379 q 500 500 543 474 q 406 526 457 526 q 268 469 317 526 q 219 319 219 411 q 267 169 219 226 q 406 111 315 111 m 486 1090 l 651 1326 l 769 1256 l 588 1039 l 486 1090 m 182 839 l 425 1047 l 667 839 l 597 768 l 425 892 l 253 768 l 182 839 z "},"ậ":{"ha":854,"x_min":61,"x_max":751,"o":"m 381 -14 q 222 27 294 -14 q 105 144 149 68 q 61 321 61 219 q 99 496 61 421 q 208 613 138 571 q 375 654 279 654 q 479 635 431 654 q 561 587 528 615 q 606 531 594 558 l 608 638 l 751 638 l 751 0 l 610 0 l 607 113 q 521 24 583 63 q 381 -14 458 -14 m 406 111 q 539 166 485 111 q 593 310 593 221 l 593 319 q 568 426 593 379 q 500 500 543 474 q 406 526 457 526 q 268 469 317 526 q 219 319 219 411 q 267 169 219 226 q 406 111 315 111 m 396 -303 q 324 -274 353 -303 q 294 -201 294 -244 q 324 -135 294 -162 q 396 -107 353 -107 q 466 -135 438 -107 q 494 -201 494 -162 q 467 -274 494 -244 q 396 -303 439 -303 m 172 818 l 421 1104 l 669 818 l 581 743 l 421 936 l 263 743 l 172 818 z "},"ầ":{"ha":854,"x_min":61,"x_max":751,"o":"m 381 -14 q 222 27 294 -14 q 105 144 149 68 q 61 321 61 219 q 99 496 61 421 q 208 613 138 571 q 375 654 279 654 q 479 635 431 654 q 561 587 528 615 q 606 531 594 558 l 608 638 l 751 638 l 751 0 l 610 0 l 607 113 q 521 24 583 63 q 381 -14 458 -14 m 406 111 q 539 166 485 111 q 593 310 593 221 l 593 319 q 568 426 593 379 q 500 500 543 474 q 406 526 457 526 q 268 469 317 526 q 219 319 219 411 q 267 169 219 226 q 406 111 315 111 m 433 1256 l 551 1326 l 717 1090 l 615 1039 l 433 1256 m 182 839 l 425 1047 l 667 839 l 597 768 l 425 892 l 253 768 l 182 839 z "},"ẩ":{"ha":854,"x_min":61,"x_max":751,"o":"m 381 -14 q 222 27 294 -14 q 105 144 149 68 q 61 321 61 219 q 99 496 61 421 q 208 613 138 571 q 375 654 279 654 q 479 635 431 654 q 561 587 528 615 q 606 531 594 558 l 608 638 l 751 638 l 751 0 l 610 0 l 607 113 q 521 24 583 63 q 381 -14 458 -14 m 406 111 q 539 166 485 111 q 593 310 593 221 l 593 319 q 568 426 593 379 q 500 500 543 474 q 406 526 457 526 q 268 469 317 526 q 219 319 219 411 q 267 169 219 226 q 406 111 315 111 m 436 1099 q 396 1100 414 1099 q 358 1106 378 1101 l 338 1174 q 375 1171 349 1171 q 436 1185 411 1171 q 461 1232 461 1199 q 439 1271 461 1254 q 381 1288 417 1288 q 294 1261 347 1288 l 268 1340 q 329 1373 285 1357 q 417 1389 374 1389 q 539 1355 485 1389 q 593 1243 593 1321 q 574 1175 593 1208 q 519 1120 556 1142 q 436 1099 483 1099 m 182 839 l 425 1047 l 667 839 l 597 768 l 425 892 l 253 768 l 182 839 z "},"ẫ":{"ha":854,"x_min":61,"x_max":751,"o":"m 381 -14 q 222 27 294 -14 q 105 144 149 68 q 61 321 61 219 q 99 496 61 421 q 208 613 138 571 q 375 654 279 654 q 479 635 431 654 q 561 587 528 615 q 606 531 594 558 l 608 638 l 751 638 l 751 0 l 610 0 l 607 113 q 521 24 583 63 q 381 -14 458 -14 m 406 111 q 539 166 485 111 q 593 310 593 221 l 593 319 q 568 426 593 379 q 500 500 543 474 q 406 526 457 526 q 268 469 317 526 q 219 319 219 411 q 267 169 219 226 q 406 111 315 111 m 500 1096 q 441 1107 463 1096 q 396 1140 419 1118 q 367 1163 379 1156 q 338 1169 356 1169 q 290 1153 314 1169 q 250 1103 265 1136 l 197 1175 q 247 1247 208 1213 q 340 1281 286 1281 q 402 1269 379 1281 q 447 1236 425 1257 q 475 1213 463 1221 q 506 1206 488 1206 q 552 1222 528 1206 q 592 1275 576 1239 l 644 1200 q 595 1128 635 1160 q 500 1096 556 1096 m 182 839 l 425 1047 l 667 839 l 597 768 l 425 892 l 253 768 l 182 839 z "},"ȁ":{"ha":854,"x_min":42,"x_max":751,"o":"m 381 -14 q 222 27 294 -14 q 105 144 149 68 q 61 321 61 219 q 99 496 61 421 q 208 613 138 571 q 375 654 279 654 q 479 635 431 654 q 561 587 528 615 q 606 531 594 558 l 608 638 l 751 638 l 751 0 l 610 0 l 607 113 q 521 24 583 63 q 381 -14 458 -14 m 406 111 q 539 166 485 111 q 593 310 593 221 l 593 319 q 568 426 593 379 q 500 500 543 474 q 406 526 457 526 q 268 469 317 526 q 219 319 219 411 q 267 169 219 226 q 406 111 315 111 m 344 1029 l 476 1097 l 618 782 l 522 739 l 344 1029 m 42 1028 l 174 1096 l 329 782 l 233 739 l 42 1028 z "},"ä":{"ha":854,"x_min":61,"x_max":751,"o":"m 381 -14 q 222 27 294 -14 q 105 144 149 68 q 61 321 61 219 q 99 496 61 421 q 208 613 138 571 q 375 654 279 654 q 479 635 431 654 q 561 587 528 615 q 606 531 594 558 l 608 638 l 751 638 l 751 0 l 610 0 l 607 113 q 521 24 583 63 q 381 -14 458 -14 m 406 111 q 539 166 485 111 q 593 310 593 221 l 593 319 q 568 426 593 379 q 500 500 543 474 q 406 526 457 526 q 268 469 317 526 q 219 319 219 411 q 267 169 219 226 q 406 111 315 111 m 253 757 q 182 786 211 757 q 153 857 153 815 q 181 927 153 899 q 253 956 210 956 q 324 927 296 956 q 353 857 353 899 q 324 786 353 815 q 253 757 296 757 m 588 757 q 517 786 546 757 q 488 857 488 815 q 517 927 488 899 q 588 956 546 956 q 660 926 631 956 q 689 857 689 897 q 660 786 689 815 q 588 757 631 757 z "},"ạ":{"ha":854,"x_min":61,"x_max":751,"o":"m 381 -14 q 222 27 294 -14 q 105 144 149 68 q 61 321 61 219 q 99 496 61 421 q 208 613 138 571 q 375 654 279 654 q 479 635 431 654 q 561 587 528 615 q 606 531 594 558 l 608 638 l 751 638 l 751 0 l 610 0 l 607 113 q 521 24 583 63 q 381 -14 458 -14 m 406 111 q 539 166 485 111 q 593 310 593 221 l 593 319 q 568 426 593 379 q 500 500 543 474 q 406 526 457 526 q 268 469 317 526 q 219 319 219 411 q 267 169 219 226 q 406 111 315 111 m 396 -303 q 324 -274 353 -303 q 294 -201 294 -244 q 324 -135 294 -162 q 396 -107 353 -107 q 466 -135 438 -107 q 494 -201 494 -162 q 467 -274 494 -244 q 396 -303 439 -303 z "},"à":{"ha":854,"x_min":61,"x_max":751,"o":"m 381 -14 q 222 27 294 -14 q 105 144 149 68 q 61 321 61 219 q 99 496 61 421 q 208 613 138 571 q 375 654 279 654 q 479 635 431 654 q 561 587 528 615 q 606 531 594 558 l 608 638 l 751 638 l 751 0 l 610 0 l 607 113 q 521 24 583 63 q 381 -14 458 -14 m 406 111 q 539 166 485 111 q 593 310 593 221 l 593 319 q 568 426 593 379 q 500 500 543 474 q 406 526 457 526 q 268 469 317 526 q 219 319 219 411 q 267 169 219 226 q 406 111 315 111 m 181 1047 l 313 1132 l 525 814 l 424 757 l 181 1047 z "},"ả":{"ha":854,"x_min":61,"x_max":751,"o":"m 381 -14 q 222 27 294 -14 q 105 144 149 68 q 61 321 61 219 q 99 496 61 421 q 208 613 138 571 q 375 654 279 654 q 479 635 431 654 q 561 587 528 615 q 606 531 594 558 l 608 638 l 751 638 l 751 0 l 610 0 l 607 113 q 521 24 583 63 q 381 -14 458 -14 m 406 111 q 539 166 485 111 q 593 310 593 221 l 593 319 q 568 426 593 379 q 500 500 543 474 q 406 526 457 526 q 268 469 317 526 q 219 319 219 411 q 267 169 219 226 q 406 111 315 111 m 428 754 q 390 756 406 754 q 353 763 374 757 l 329 850 q 371 846 349 846 q 444 867 408 846 q 479 925 479 889 q 457 969 479 950 q 396 988 435 988 q 338 981 358 988 q 283 958 317 975 l 254 1044 q 317 1081 276 1064 q 415 1097 357 1097 q 502 1079 458 1097 q 576 1022 546 1061 q 607 925 607 983 q 584 847 607 888 q 520 781 561 807 q 428 754 479 754 z "},"ȃ":{"ha":854,"x_min":61,"x_max":751,"o":"m 381 -14 q 222 27 294 -14 q 105 144 149 68 q 61 321 61 219 q 99 496 61 421 q 208 613 138 571 q 375 654 279 654 q 479 635 431 654 q 561 587 528 615 q 606 531 594 558 l 608 638 l 751 638 l 751 0 l 610 0 l 607 113 q 521 24 583 63 q 381 -14 458 -14 m 406 111 q 539 166 485 111 q 593 310 593 221 l 593 319 q 568 426 593 379 q 500 500 543 474 q 406 526 457 526 q 268 469 317 526 q 219 319 219 411 q 267 169 219 226 q 406 111 315 111 m 169 767 q 237 945 169 876 q 421 1014 304 1014 q 604 945 536 1014 q 672 767 672 876 l 540 767 q 507 854 540 815 q 421 893 474 893 q 331 856 358 893 q 303 767 303 819 l 169 767 z "},"ā":{"ha":854,"x_min":61,"x_max":751,"o":"m 381 -14 q 222 27 294 -14 q 105 144 149 68 q 61 321 61 219 q 99 496 61 421 q 208 613 138 571 q 375 654 279 654 q 479 635 431 654 q 561 587 528 615 q 606 531 594 558 l 608 638 l 751 638 l 751 0 l 610 0 l 607 113 q 521 24 583 63 q 381 -14 458 -14 m 406 111 q 539 166 485 111 q 593 310 593 221 l 593 319 q 568 426 593 379 q 500 500 543 474 q 406 526 457 526 q 268 469 317 526 q 219 319 219 411 q 267 169 219 226 q 406 111 315 111 m 185 910 l 657 910 l 657 796 l 185 796 l 185 910 z "},"ą":{"ha":854,"x_min":61,"x_max":751,"o":"m 751 638 l 751 0 l 746 0 q 645 -53 688 -17 q 603 -149 603 -89 q 626 -207 603 -182 q 700 -232 650 -232 q 746 -229 726 -232 l 746 -344 q 678 -351 704 -351 q 525 -309 582 -351 q 468 -179 468 -267 q 610 17 468 -64 l 607 113 q 521 24 583 63 q 381 -14 458 -14 q 222 27 294 -14 q 105 144 149 68 q 61 321 61 219 q 99 496 61 421 q 208 613 138 571 q 375 654 279 654 q 479 635 431 654 q 561 587 528 615 q 606 531 594 558 l 608 638 l 751 638 m 593 319 q 568 426 593 379 q 500 500 543 474 q 406 526 457 526 q 268 469 317 526 q 219 319 219 411 q 267 169 219 226 q 406 111 315 111 q 539 166 485 111 q 593 310 593 221 l 593 319 z "},"å":{"ha":854,"x_min":61,"x_max":751,"o":"m 381 -14 q 222 27 294 -14 q 105 144 149 68 q 61 321 61 219 q 99 496 61 421 q 208 613 138 571 q 375 654 279 654 q 479 635 431 654 q 561 587 528 615 q 606 531 594 558 l 608 638 l 751 638 l 751 0 l 610 0 l 607 113 q 521 24 583 63 q 381 -14 458 -14 m 406 111 q 539 166 485 111 q 593 310 593 221 l 593 319 q 568 426 593 379 q 500 500 543 474 q 406 526 457 526 q 268 469 317 526 q 219 319 219 411 q 267 169 219 226 q 406 111 315 111 m 421 721 q 319 744 367 721 q 242 811 271 768 q 214 910 214 854 q 242 1008 214 964 q 319 1076 271 1051 q 421 1100 367 1100 q 524 1076 476 1100 q 601 1008 572 1051 q 629 910 629 964 q 601 813 629 856 q 524 745 572 769 q 421 721 476 721 m 421 822 q 479 847 456 822 q 503 910 503 871 q 479 973 503 949 q 421 997 456 997 q 365 973 388 997 q 342 910 342 949 q 365 847 342 871 q 421 822 388 822 z "},"ǻ":{"ha":854,"x_min":61,"x_max":751,"o":"m 421 721 q 319 744 367 721 q 242 811 271 768 q 214 910 214 854 q 255 1024 214 975 q 358 1092 296 1074 l 557 1389 l 689 1304 l 504 1085 q 594 1016 560 1063 q 629 910 629 969 q 601 813 629 856 q 524 745 572 769 q 421 721 476 721 m 421 997 q 365 973 388 997 q 342 910 342 949 q 365 847 342 871 q 421 822 388 822 q 479 847 456 822 q 503 910 503 871 q 479 973 503 949 q 421 997 456 997 m 751 638 l 751 0 l 610 0 l 607 113 q 521 24 583 63 q 381 -14 458 -14 q 222 27 294 -14 q 105 144 149 68 q 61 321 61 219 q 99 496 61 421 q 208 613 138 571 q 375 654 279 654 q 479 635 431 654 q 561 587 528 615 q 606 531 594 558 l 608 638 l 751 638 m 593 319 q 568 426 593 379 q 500 500 543 474 q 406 526 457 526 q 268 469 317 526 q 219 319 219 411 q 267 169 219 226 q 406 111 315 111 q 539 166 485 111 q 593 310 593 221 l 593 319 z "},"ã":{"ha":854,"x_min":61,"x_max":751,"o":"m 381 -14 q 222 27 294 -14 q 105 144 149 68 q 61 321 61 219 q 99 496 61 421 q 208 613 138 571 q 375 654 279 654 q 479 635 431 654 q 561 587 528 615 q 606 531 594 558 l 608 638 l 751 638 l 751 0 l 610 0 l 607 113 q 521 24 583 63 q 381 -14 458 -14 m 406 111 q 539 166 485 111 q 593 310 593 221 l 593 319 q 568 426 593 379 q 500 500 543 474 q 406 526 457 526 q 268 469 317 526 q 219 319 219 411 q 267 169 219 226 q 406 111 315 111 m 510 756 q 445 768 468 756 q 400 804 422 781 q 367 833 383 824 q 325 843 350 843 q 277 824 301 843 q 235 764 253 804 l 171 861 q 223 939 183 904 q 322 974 263 974 q 386 961 361 974 q 433 925 411 949 q 470 894 453 904 q 513 885 488 885 q 563 905 538 885 q 607 967 589 925 l 671 868 q 642 819 665 846 q 584 774 619 793 q 510 756 549 756 z "},"æ":{"ha":1243,"x_min":61,"x_max":1185,"o":"m 1185 344 q 1181 267 1185 307 l 722 267 q 783 144 738 182 q 908 107 828 107 q 1018 118 975 107 q 1097 149 1061 129 l 1143 42 q 1049 3 1108 19 q 904 -14 989 -14 q 694 121 765 -14 l 694 0 l 594 0 l 567 171 q 493 37 551 88 q 353 -14 435 -14 q 201 26 268 -14 q 98 142 135 67 q 61 321 61 218 q 98 495 61 419 q 200 613 135 571 q 347 654 265 654 q 490 610 431 654 q 578 494 549 565 l 581 638 l 694 638 l 694 543 q 783 626 731 597 q 894 654 836 654 q 1113 573 1042 654 q 1185 344 1185 492 m 1039 371 q 1001 492 1040 457 q 890 528 963 528 q 722 371 744 528 l 1039 371 m 565 344 q 510 475 565 424 q 378 526 456 526 q 259 469 299 526 q 219 319 219 413 q 259 168 219 225 q 378 111 299 111 q 471 142 428 111 q 540 224 514 172 q 565 335 565 275 l 565 344 z "},"ǽ":{"ha":1243,"x_min":61,"x_max":1185,"o":"m 1185 344 q 1181 267 1185 307 l 722 267 q 783 144 738 182 q 908 107 828 107 q 1018 118 975 107 q 1097 149 1061 129 l 1143 42 q 1049 3 1108 19 q 904 -14 989 -14 q 694 121 765 -14 l 694 0 l 594 0 l 567 171 q 493 37 551 88 q 353 -14 435 -14 q 201 26 268 -14 q 98 142 135 67 q 61 321 61 218 q 98 495 61 419 q 200 613 135 571 q 347 654 265 654 q 490 610 431 654 q 578 494 549 565 l 581 638 l 694 638 l 694 543 q 783 626 731 597 q 894 654 836 654 q 1113 573 1042 654 q 1185 344 1185 492 m 1039 371 q 1001 492 1040 457 q 890 528 963 528 q 722 371 744 528 l 1039 371 m 565 344 q 510 475 565 424 q 378 526 456 526 q 259 469 299 526 q 219 319 219 413 q 259 168 219 225 q 378 111 299 111 q 471 142 428 111 q 540 224 514 172 q 565 335 565 275 l 565 344 m 633 814 l 846 1132 l 978 1047 l 735 757 l 633 814 z "},"b":{"ha":857,"x_min":104,"x_max":796,"o":"m 476 -14 q 337 24 399 -14 q 251 113 275 63 l 249 0 l 104 0 l 104 1021 l 251 1021 l 251 628 l 244 519 q 337 615 268 575 q 486 654 406 654 q 651 612 581 654 q 758 494 721 569 q 796 318 796 418 q 752 142 796 217 q 635 26 708 67 q 476 -14 563 -14 m 451 111 q 590 169 542 111 q 639 318 639 226 q 591 469 639 411 q 451 526 543 526 q 318 472 372 526 q 264 328 264 417 l 264 318 q 290 211 264 258 q 358 138 315 164 q 451 111 400 111 z "},"c":{"ha":647,"x_min":61,"x_max":603,"o":"m 396 -14 q 226 27 301 -14 q 106 145 150 68 q 61 326 61 222 q 102 499 61 425 q 217 614 143 574 q 389 654 292 654 q 516 635 463 654 q 600 589 569 617 l 533 468 q 401 526 475 526 q 266 472 313 526 q 219 328 219 418 q 267 168 219 225 q 401 111 315 111 q 485 124 444 111 q 549 153 526 136 l 603 47 q 517 5 572 24 q 396 -14 463 -14 z "},"ć":{"ha":647,"x_min":61,"x_max":603,"o":"m 396 -14 q 226 27 301 -14 q 106 145 150 68 q 61 326 61 222 q 102 499 61 425 q 217 614 143 574 q 389 654 292 654 q 516 635 463 654 q 600 589 569 617 l 533 468 q 401 526 475 526 q 266 472 313 526 q 219 328 219 418 q 267 168 219 225 q 401 111 315 111 q 485 124 444 111 q 549 153 526 136 l 603 47 q 517 5 572 24 q 396 -14 463 -14 m 258 814 l 471 1132 l 603 1047 l 360 757 l 258 814 z "},"č":{"ha":647,"x_min":61,"x_max":611,"o":"m 396 -14 q 226 27 301 -14 q 106 145 150 68 q 61 326 61 222 q 102 499 61 425 q 217 614 143 574 q 389 654 292 654 q 516 635 463 654 q 600 589 569 617 l 533 468 q 401 526 475 526 q 266 472 313 526 q 219 328 219 418 q 267 168 219 225 q 401 111 315 111 q 485 124 444 111 q 549 153 526 136 l 603 47 q 517 5 572 24 q 396 -14 463 -14 m 114 1029 l 204 1104 l 363 897 l 522 1104 l 611 1029 l 363 729 l 114 1029 z "},"ç":{"ha":647,"x_min":61,"x_max":603,"o":"m 603 47 q 533 10 576 28 q 435 -12 489 -7 q 461 -57 440 -31 q 497 -115 485 -89 q 508 -181 508 -142 q 452 -322 508 -276 q 299 -367 396 -367 q 224 -360 265 -367 l 236 -231 q 275 -233 256 -233 q 374 -171 374 -233 q 368 -145 374 -158 q 358 -124 363 -132 q 351 -114 353 -117 q 331 -79 339 -96 q 324 -42 324 -62 q 329 -8 324 -19 q 135 101 210 13 q 61 326 61 189 q 102 499 61 425 q 217 614 143 574 q 389 654 292 654 q 516 635 463 654 q 600 589 569 617 l 533 468 q 401 526 475 526 q 266 472 313 526 q 219 328 219 418 q 267 168 219 225 q 401 111 315 111 q 485 124 444 111 q 549 153 526 136 l 603 47 z "},"ḉ":{"ha":647,"x_min":61,"x_max":603,"o":"m 360 757 l 258 814 l 471 1132 l 603 1047 l 360 757 m 603 47 q 533 10 576 28 q 435 -12 489 -7 q 461 -57 440 -31 q 497 -115 485 -89 q 508 -181 508 -142 q 452 -322 508 -276 q 299 -367 396 -367 q 224 -360 265 -367 l 236 -231 q 275 -233 256 -233 q 374 -171 374 -233 q 368 -145 374 -158 q 358 -124 363 -132 q 351 -114 353 -117 q 331 -79 339 -96 q 324 -42 324 -62 q 329 -8 324 -19 q 135 101 210 13 q 61 326 61 189 q 102 499 61 425 q 217 614 143 574 q 389 654 292 654 q 516 635 463 654 q 600 589 569 617 l 533 468 q 401 526 475 526 q 266 472 313 526 q 219 328 219 418 q 267 168 219 225 q 401 111 315 111 q 485 124 444 111 q 549 153 526 136 l 603 47 z "},"ĉ":{"ha":647,"x_min":61,"x_max":611,"o":"m 396 -14 q 226 27 301 -14 q 106 145 150 68 q 61 326 61 222 q 102 499 61 425 q 217 614 143 574 q 389 654 292 654 q 516 635 463 654 q 600 589 569 617 l 533 468 q 401 526 475 526 q 266 472 313 526 q 219 328 219 418 q 267 168 219 225 q 401 111 315 111 q 485 124 444 111 q 549 153 526 136 l 603 47 q 517 5 572 24 q 396 -14 463 -14 m 114 818 l 363 1104 l 611 818 l 522 743 l 363 936 l 204 743 l 114 818 z "},"ċ":{"ha":647,"x_min":61,"x_max":603,"o":"m 396 -14 q 226 27 301 -14 q 106 145 150 68 q 61 326 61 222 q 102 499 61 425 q 217 614 143 574 q 389 654 292 654 q 516 635 463 654 q 600 589 569 617 l 533 468 q 401 526 475 526 q 266 472 313 526 q 219 328 219 418 q 267 168 219 225 q 401 111 315 111 q 485 124 444 111 q 549 153 526 136 l 603 47 q 517 5 572 24 q 396 -14 463 -14 m 363 757 q 291 786 319 757 q 263 858 263 815 q 292 925 263 897 q 363 953 321 953 q 433 925 404 953 q 463 858 463 897 q 434 786 463 815 q 363 757 406 757 z "},"d":{"ha":853,"x_min":61,"x_max":753,"o":"m 381 -14 q 222 27 294 -14 q 105 144 149 68 q 61 321 61 219 q 146 563 61 472 q 375 654 231 654 q 522 615 456 654 q 613 519 589 575 l 606 628 l 606 1021 l 753 1021 l 753 0 l 610 0 l 607 113 q 521 24 583 63 q 381 -14 458 -14 m 406 113 q 539 167 485 113 q 593 311 593 222 l 593 321 q 568 428 593 381 q 500 501 543 475 q 406 528 457 528 q 268 470 317 528 q 219 321 219 413 q 267 170 219 228 q 406 113 315 113 z "},"ð":{"ha":785,"x_min":61,"x_max":726,"o":"m 399 -12 q 227 28 304 -12 q 106 140 150 68 q 61 304 61 211 q 103 476 61 403 q 218 588 146 549 q 379 626 290 626 q 567 571 499 626 q 378 829 514 715 l 293 736 l 221 808 l 304 892 q 164 990 236 950 l 228 1072 q 378 979 294 1038 l 463 1075 l 536 1003 l 458 915 q 651 694 575 831 q 726 390 726 557 q 638 86 726 185 q 399 -12 549 -12 m 399 115 q 488 140 446 115 q 556 210 531 164 q 582 321 582 257 q 578 378 582 344 q 567 436 574 411 q 490 486 529 474 q 386 499 450 499 q 221 304 221 499 q 270 162 221 208 q 399 115 319 115 z "},"ď":{"ha":988,"x_min":61,"x_max":988,"o":"m 381 -14 q 222 27 294 -14 q 105 144 149 68 q 61 321 61 219 q 146 563 61 472 q 375 654 231 654 q 522 615 456 654 q 613 519 589 575 l 606 628 l 606 1021 l 753 1021 l 753 0 l 610 0 l 607 113 q 521 24 583 63 q 381 -14 458 -14 m 406 113 q 539 167 485 113 q 593 311 593 222 l 593 321 q 568 428 593 381 q 500 501 543 475 q 406 528 457 528 q 268 470 317 528 q 219 321 219 413 q 267 170 219 228 q 406 113 315 113 m 851 1021 l 988 1021 l 949 681 l 851 681 l 851 1021 z "},"đ":{"ha":853,"x_min":61,"x_max":850,"o":"m 850 781 l 753 781 l 753 0 l 610 0 l 607 113 q 521 24 583 63 q 381 -14 458 -14 q 222 27 294 -14 q 105 144 149 68 q 61 321 61 219 q 146 563 61 472 q 375 654 231 654 q 522 615 456 654 q 613 519 589 575 l 606 628 l 606 781 l 463 781 l 463 879 l 606 879 l 606 1021 l 753 1021 l 753 879 l 850 879 l 850 781 m 593 321 q 568 428 593 381 q 500 501 543 475 q 406 528 457 528 q 268 470 317 528 q 219 321 219 413 q 267 170 219 228 q 406 113 315 113 q 539 167 485 113 q 593 311 593 222 l 593 321 z "},"ḍ":{"ha":853,"x_min":61,"x_max":753,"o":"m 381 -14 q 222 27 294 -14 q 105 144 149 68 q 61 321 61 219 q 146 563 61 472 q 375 654 231 654 q 522 615 456 654 q 613 519 589 575 l 606 628 l 606 1021 l 753 1021 l 753 0 l 610 0 l 607 113 q 521 24 583 63 q 381 -14 458 -14 m 406 113 q 539 167 485 113 q 593 311 593 222 l 593 321 q 568 428 593 381 q 500 501 543 475 q 406 528 457 528 q 268 470 317 528 q 219 321 219 413 q 267 170 219 228 q 406 113 315 113 m 418 -303 q 346 -274 375 -303 q 317 -201 317 -244 q 346 -135 317 -162 q 418 -107 375 -107 q 488 -135 460 -107 q 517 -201 517 -162 q 489 -274 517 -244 q 418 -303 461 -303 z "},"ḏ":{"ha":853,"x_min":61,"x_max":753,"o":"m 381 -14 q 222 27 294 -14 q 105 144 149 68 q 61 321 61 219 q 146 563 61 472 q 375 654 231 654 q 522 615 456 654 q 613 519 589 575 l 606 628 l 606 1021 l 753 1021 l 753 0 l 610 0 l 607 113 q 521 24 583 63 q 381 -14 458 -14 m 406 113 q 539 167 485 113 q 593 311 593 222 l 593 321 q 568 428 593 381 q 500 501 543 475 q 406 528 457 528 q 268 470 317 528 q 219 321 219 413 q 267 170 219 228 q 406 113 315 113 m 194 -111 l 639 -111 l 639 -225 l 194 -225 l 194 -111 z "},"ǆ":{"ha":1481,"x_min":61,"x_max":1438,"o":"m 381 -14 q 222 27 294 -14 q 105 144 149 68 q 61 321 61 219 q 146 563 61 472 q 375 654 231 654 q 522 615 456 654 q 613 519 589 575 l 606 628 l 606 1021 l 753 1021 l 753 0 l 610 0 l 607 113 q 521 24 583 63 q 381 -14 458 -14 m 406 113 q 539 167 485 113 q 593 311 593 222 l 593 321 q 568 428 593 381 q 500 501 543 475 q 406 528 457 528 q 268 470 317 528 q 219 321 219 413 q 267 170 219 228 q 406 113 315 113 z "},"e":{"ha":739,"x_min":61,"x_max":681,"o":"m 400 -14 q 210 31 286 -14 q 97 152 133 76 q 61 318 61 228 q 103 496 61 419 q 221 613 146 572 q 390 654 296 654 q 609 573 538 654 q 681 344 681 492 q 676 267 681 307 l 218 267 q 278 144 233 182 q 404 107 324 107 q 514 118 471 107 q 593 149 557 129 l 639 42 q 544 3 604 19 q 400 -14 485 -14 m 535 371 q 497 492 536 457 q 386 528 458 528 q 218 371 240 528 l 535 371 z "},"é":{"ha":739,"x_min":61,"x_max":681,"o":"m 400 -14 q 210 31 286 -14 q 97 152 133 76 q 61 318 61 228 q 103 496 61 419 q 221 613 146 572 q 390 654 296 654 q 609 573 538 654 q 681 344 681 492 q 676 267 681 307 l 218 267 q 278 144 233 182 q 404 107 324 107 q 514 118 471 107 q 593 149 557 129 l 639 42 q 544 3 604 19 q 400 -14 485 -14 m 535 371 q 497 492 536 457 q 386 528 458 528 q 218 371 240 528 l 535 371 m 283 814 l 496 1132 l 628 1047 l 385 757 l 283 814 z "},"ĕ":{"ha":739,"x_min":61,"x_max":681,"o":"m 400 -14 q 210 31 286 -14 q 97 152 133 76 q 61 318 61 228 q 103 496 61 419 q 221 613 146 572 q 390 654 296 654 q 609 573 538 654 q 681 344 681 492 q 676 267 681 307 l 218 267 q 278 144 233 182 q 404 107 324 107 q 514 118 471 107 q 593 149 557 129 l 639 42 q 544 3 604 19 q 400 -14 485 -14 m 535 371 q 497 492 536 457 q 386 528 458 528 q 218 371 240 528 l 535 371 m 388 767 q 203 835 271 767 q 136 1014 136 904 l 269 1014 q 297 924 269 961 q 388 888 325 888 q 474 926 440 888 q 507 1014 507 965 l 639 1014 q 571 835 639 904 q 388 767 503 767 z "},"ě":{"ha":739,"x_min":61,"x_max":681,"o":"m 400 -14 q 210 31 286 -14 q 97 152 133 76 q 61 318 61 228 q 103 496 61 419 q 221 613 146 572 q 390 654 296 654 q 609 573 538 654 q 681 344 681 492 q 676 267 681 307 l 218 267 q 278 144 233 182 q 404 107 324 107 q 514 118 471 107 q 593 149 557 129 l 639 42 q 544 3 604 19 q 400 -14 485 -14 m 535 371 q 497 492 536 457 q 386 528 458 528 q 218 371 240 528 l 535 371 m 139 1029 l 229 1104 l 388 897 l 547 1104 l 636 1029 l 388 729 l 139 1029 z "},"ḝ":{"ha":739,"x_min":61,"x_max":681,"o":"m 388 767 q 203 835 271 767 q 136 1014 136 904 l 269 1014 q 297 924 269 961 q 388 888 325 888 q 474 926 440 888 q 507 1014 507 965 l 639 1014 q 571 835 639 904 q 388 767 503 767 m 681 344 q 676 267 681 307 l 218 267 q 278 144 233 182 q 404 107 324 107 q 514 118 471 107 q 593 149 557 129 l 639 42 q 475 -10 578 0 q 501 -58 478 -26 q 536 -115 524 -87 q 549 -181 549 -142 q 492 -322 549 -276 q 339 -367 436 -367 q 264 -360 306 -367 l 276 -231 q 315 -233 296 -233 q 414 -171 414 -233 q 408 -145 414 -158 q 398 -124 403 -132 q 392 -114 393 -117 q 372 -79 379 -96 q 364 -42 364 -62 q 368 -12 364 -24 q 138 90 215 -3 q 61 318 61 183 q 103 496 61 419 q 221 613 146 572 q 390 654 296 654 q 609 573 538 654 q 681 344 681 492 m 535 371 q 497 492 536 457 q 386 528 458 528 q 218 371 240 528 l 535 371 z "},"ê":{"ha":739,"x_min":61,"x_max":681,"o":"m 400 -14 q 210 31 286 -14 q 97 152 133 76 q 61 318 61 228 q 103 496 61 419 q 221 613 146 572 q 390 654 296 654 q 609 573 538 654 q 681 344 681 492 q 676 267 681 307 l 218 267 q 278 144 233 182 q 404 107 324 107 q 514 118 471 107 q 593 149 557 129 l 639 42 q 544 3 604 19 q 400 -14 485 -14 m 535 371 q 497 492 536 457 q 386 528 458 528 q 218 371 240 528 l 535 371 m 139 818 l 388 1104 l 636 818 l 547 743 l 388 936 l 229 743 l 139 818 z "},"ế":{"ha":739,"x_min":61,"x_max":736,"o":"m 400 -14 q 210 31 286 -14 q 97 152 133 76 q 61 318 61 228 q 103 496 61 419 q 221 613 146 572 q 390 654 296 654 q 609 573 538 654 q 681 344 681 492 q 676 267 681 307 l 218 267 q 278 144 233 182 q 404 107 324 107 q 514 118 471 107 q 593 149 557 129 l 639 42 q 544 3 604 19 q 400 -14 485 -14 m 535 371 q 497 492 536 457 q 386 528 458 528 q 218 371 240 528 l 535 371 m 453 1090 l 618 1326 l 736 1256 l 554 1039 l 453 1090 m 149 839 l 392 1047 l 633 839 l 564 768 l 392 892 l 219 768 l 149 839 z "},"ệ":{"ha":739,"x_min":61,"x_max":681,"o":"m 400 -14 q 210 31 286 -14 q 97 152 133 76 q 61 318 61 228 q 103 496 61 419 q 221 613 146 572 q 390 654 296 654 q 609 573 538 654 q 681 344 681 492 q 676 267 681 307 l 218 267 q 278 144 233 182 q 404 107 324 107 q 514 118 471 107 q 593 149 557 129 l 639 42 q 544 3 604 19 q 400 -14 485 -14 m 535 371 q 497 492 536 457 q 386 528 458 528 q 218 371 240 528 l 535 371 m 433 -303 q 361 -274 390 -303 q 332 -201 332 -244 q 361 -135 332 -162 q 433 -107 390 -107 q 503 -135 475 -107 q 532 -201 532 -162 q 504 -274 532 -244 q 433 -303 476 -303 m 139 818 l 388 1104 l 636 818 l 547 743 l 388 936 l 229 743 l 139 818 z "},"ề":{"ha":739,"x_min":61,"x_max":683,"o":"m 400 -14 q 210 31 286 -14 q 97 152 133 76 q 61 318 61 228 q 103 496 61 419 q 221 613 146 572 q 390 654 296 654 q 609 573 538 654 q 681 344 681 492 q 676 267 681 307 l 218 267 q 278 144 233 182 q 404 107 324 107 q 514 118 471 107 q 593 149 557 129 l 639 42 q 544 3 604 19 q 400 -14 485 -14 m 535 371 q 497 492 536 457 q 386 528 458 528 q 218 371 240 528 l 535 371 m 400 1256 l 518 1326 l 683 1090 l 582 1039 l 400 1256 m 149 839 l 392 1047 l 633 839 l 564 768 l 392 892 l 219 768 l 149 839 z "},"ể":{"ha":739,"x_min":61,"x_max":681,"o":"m 400 -14 q 210 31 286 -14 q 97 152 133 76 q 61 318 61 228 q 103 496 61 419 q 221 613 146 572 q 390 654 296 654 q 609 573 538 654 q 681 344 681 492 q 676 267 681 307 l 218 267 q 278 144 233 182 q 404 107 324 107 q 514 118 471 107 q 593 149 557 129 l 639 42 q 544 3 604 19 q 400 -14 485 -14 m 535 371 q 497 492 536 457 q 386 528 458 528 q 218 371 240 528 l 535 371 m 403 1099 q 363 1100 381 1099 q 325 1106 344 1101 l 304 1174 q 342 1171 315 1171 q 403 1185 378 1171 q 428 1232 428 1199 q 406 1271 428 1254 q 347 1288 383 1288 q 261 1261 314 1288 l 235 1340 q 296 1373 251 1357 q 383 1389 340 1389 q 506 1355 451 1389 q 560 1243 560 1321 q 541 1175 560 1208 q 486 1120 522 1142 q 403 1099 450 1099 m 149 839 l 392 1047 l 633 839 l 564 768 l 392 892 l 219 768 l 149 839 z "},"ễ":{"ha":739,"x_min":61,"x_max":681,"o":"m 400 -14 q 210 31 286 -14 q 97 152 133 76 q 61 318 61 228 q 103 496 61 419 q 221 613 146 572 q 390 654 296 654 q 609 573 538 654 q 681 344 681 492 q 676 267 681 307 l 218 267 q 278 144 233 182 q 404 107 324 107 q 514 118 471 107 q 593 149 557 129 l 639 42 q 544 3 604 19 q 400 -14 485 -14 m 535 371 q 497 492 536 457 q 386 528 458 528 q 218 371 240 528 l 535 371 m 467 1096 q 408 1107 429 1096 q 363 1140 386 1118 q 334 1163 346 1156 q 304 1169 322 1169 q 256 1153 281 1169 q 217 1103 232 1136 l 164 1175 q 214 1247 175 1213 q 307 1281 253 1281 q 369 1269 346 1281 q 414 1236 392 1257 q 442 1213 429 1221 q 472 1206 454 1206 q 519 1222 494 1206 q 558 1275 543 1239 l 611 1200 q 562 1128 601 1160 q 467 1096 522 1096 m 149 839 l 392 1047 l 633 839 l 564 768 l 392 892 l 219 768 l 149 839 z "},"ȅ":{"ha":739,"x_min":8,"x_max":681,"o":"m 400 -14 q 210 31 286 -14 q 97 152 133 76 q 61 318 61 228 q 103 496 61 419 q 221 613 146 572 q 390 654 296 654 q 609 573 538 654 q 681 344 681 492 q 676 267 681 307 l 218 267 q 278 144 233 182 q 404 107 324 107 q 514 118 471 107 q 593 149 557 129 l 639 42 q 544 3 604 19 q 400 -14 485 -14 m 535 371 q 497 492 536 457 q 386 528 458 528 q 218 371 240 528 l 535 371 m 311 1029 l 443 1097 l 585 782 l 489 739 l 311 1029 m 8 1028 l 140 1096 l 296 782 l 200 739 l 8 1028 z "},"ë":{"ha":739,"x_min":61,"x_max":681,"o":"m 400 -14 q 210 31 286 -14 q 97 152 133 76 q 61 318 61 228 q 103 496 61 419 q 221 613 146 572 q 390 654 296 654 q 609 573 538 654 q 681 344 681 492 q 676 267 681 307 l 218 267 q 278 144 233 182 q 404 107 324 107 q 514 118 471 107 q 593 149 557 129 l 639 42 q 544 3 604 19 q 400 -14 485 -14 m 535 371 q 497 492 536 457 q 386 528 458 528 q 218 371 240 528 l 535 371 m 219 757 q 149 786 178 757 q 119 857 119 815 q 148 927 119 899 q 219 956 176 956 q 291 927 263 956 q 319 857 319 899 q 291 786 319 815 q 219 757 263 757 m 554 757 q 483 786 513 757 q 454 857 454 815 q 483 927 454 899 q 554 956 513 956 q 626 926 597 956 q 656 857 656 897 q 626 786 656 815 q 554 757 597 757 z "},"ė":{"ha":739,"x_min":61,"x_max":681,"o":"m 400 -14 q 210 31 286 -14 q 97 152 133 76 q 61 318 61 228 q 103 496 61 419 q 221 613 146 572 q 390 654 296 654 q 609 573 538 654 q 681 344 681 492 q 676 267 681 307 l 218 267 q 278 144 233 182 q 404 107 324 107 q 514 118 471 107 q 593 149 557 129 l 639 42 q 544 3 604 19 q 400 -14 485 -14 m 535 371 q 497 492 536 457 q 386 528 458 528 q 218 371 240 528 l 535 371 m 388 757 q 316 786 344 757 q 288 858 288 815 q 317 925 288 897 q 388 953 346 953 q 458 925 429 953 q 488 858 488 897 q 459 786 488 815 q 388 757 431 757 z "},"ẹ":{"ha":739,"x_min":61,"x_max":681,"o":"m 400 -14 q 210 31 286 -14 q 97 152 133 76 q 61 318 61 228 q 103 496 61 419 q 221 613 146 572 q 390 654 296 654 q 609 573 538 654 q 681 344 681 492 q 676 267 681 307 l 218 267 q 278 144 233 182 q 404 107 324 107 q 514 118 471 107 q 593 149 557 129 l 639 42 q 544 3 604 19 q 400 -14 485 -14 m 535 371 q 497 492 536 457 q 386 528 458 528 q 218 371 240 528 l 535 371 m 433 -303 q 361 -274 390 -303 q 332 -201 332 -244 q 361 -135 332 -162 q 433 -107 390 -107 q 503 -135 475 -107 q 532 -201 532 -162 q 504 -274 532 -244 q 433 -303 476 -303 z "},"è":{"ha":739,"x_min":61,"x_max":681,"o":"m 400 -14 q 210 31 286 -14 q 97 152 133 76 q 61 318 61 228 q 103 496 61 419 q 221 613 146 572 q 390 654 296 654 q 609 573 538 654 q 681 344 681 492 q 676 267 681 307 l 218 267 q 278 144 233 182 q 404 107 324 107 q 514 118 471 107 q 593 149 557 129 l 639 42 q 544 3 604 19 q 400 -14 485 -14 m 535 371 q 497 492 536 457 q 386 528 458 528 q 218 371 240 528 l 535 371 m 147 1047 l 279 1132 l 492 814 l 390 757 l 147 1047 z "},"ẻ":{"ha":739,"x_min":61,"x_max":681,"o":"m 400 -14 q 210 31 286 -14 q 97 152 133 76 q 61 318 61 228 q 103 496 61 419 q 221 613 146 572 q 390 654 296 654 q 609 573 538 654 q 681 344 681 492 q 676 267 681 307 l 218 267 q 278 144 233 182 q 404 107 324 107 q 514 118 471 107 q 593 149 557 129 l 639 42 q 544 3 604 19 q 400 -14 485 -14 m 535 371 q 497 492 536 457 q 386 528 458 528 q 218 371 240 528 l 535 371 m 394 754 q 356 756 372 754 q 319 763 340 757 l 296 850 q 338 846 315 846 q 410 867 375 846 q 446 925 446 889 q 424 969 446 950 q 363 988 401 988 q 304 981 325 988 q 250 958 283 975 l 221 1044 q 283 1081 243 1064 q 382 1097 324 1097 q 469 1079 425 1097 q 543 1022 513 1061 q 574 925 574 983 q 551 847 574 888 q 487 781 528 807 q 394 754 446 754 z "},"ȇ":{"ha":739,"x_min":61,"x_max":681,"o":"m 400 -14 q 210 31 286 -14 q 97 152 133 76 q 61 318 61 228 q 103 496 61 419 q 221 613 146 572 q 390 654 296 654 q 609 573 538 654 q 681 344 681 492 q 676 267 681 307 l 218 267 q 278 144 233 182 q 404 107 324 107 q 514 118 471 107 q 593 149 557 129 l 639 42 q 544 3 604 19 q 400 -14 485 -14 m 535 371 q 497 492 536 457 q 386 528 458 528 q 218 371 240 528 l 535 371 m 136 767 q 203 945 136 876 q 388 1014 271 1014 q 571 945 503 1014 q 639 767 639 876 l 507 767 q 474 854 507 815 q 388 893 440 893 q 297 856 325 893 q 269 767 269 819 l 136 767 z "},"ē":{"ha":739,"x_min":61,"x_max":681,"o":"m 400 -14 q 210 31 286 -14 q 97 152 133 76 q 61 318 61 228 q 103 496 61 419 q 221 613 146 572 q 390 654 296 654 q 609 573 538 654 q 681 344 681 492 q 676 267 681 307 l 218 267 q 278 144 233 182 q 404 107 324 107 q 514 118 471 107 q 593 149 557 129 l 639 42 q 544 3 604 19 q 400 -14 485 -14 m 535 371 q 497 492 536 457 q 386 528 458 528 q 218 371 240 528 l 535 371 m 151 910 l 624 910 l 624 796 l 151 796 l 151 910 z "},"ḗ":{"ha":739,"x_min":61,"x_max":681,"o":"m 400 -14 q 210 31 286 -14 q 97 152 133 76 q 61 318 61 228 q 103 496 61 419 q 221 613 146 572 q 390 654 296 654 q 609 573 538 654 q 681 344 681 492 q 676 267 681 307 l 218 267 q 278 144 233 182 q 404 107 324 107 q 514 118 471 107 q 593 149 557 129 l 639 42 q 544 3 604 19 q 400 -14 485 -14 m 535 371 q 497 492 536 457 q 386 528 458 528 q 218 371 240 528 l 535 371 m 151 910 l 624 910 l 624 796 l 151 796 l 151 910 m 283 1085 l 496 1403 l 628 1318 l 385 1028 l 283 1085 z "},"ḕ":{"ha":739,"x_min":61,"x_max":681,"o":"m 400 -14 q 210 31 286 -14 q 97 152 133 76 q 61 318 61 228 q 103 496 61 419 q 221 613 146 572 q 390 654 296 654 q 609 573 538 654 q 681 344 681 492 q 676 267 681 307 l 218 267 q 278 144 233 182 q 404 107 324 107 q 514 118 471 107 q 593 149 557 129 l 639 42 q 544 3 604 19 q 400 -14 485 -14 m 535 371 q 497 492 536 457 q 386 528 458 528 q 218 371 240 528 l 535 371 m 151 910 l 624 910 l 624 796 l 151 796 l 151 910 m 147 1318 l 279 1403 l 492 1085 l 390 1028 l 147 1318 z "},"ę":{"ha":739,"x_min":61,"x_max":681,"o":"m 681 344 q 676 267 681 307 l 218 267 q 278 144 233 182 q 404 107 324 107 q 514 118 471 107 q 593 149 557 129 l 639 42 q 539 1 600 15 q 463 -53 493 -19 q 432 -136 432 -87 q 456 -194 432 -169 q 529 -219 479 -219 q 575 -217 556 -219 l 575 -332 q 507 -339 533 -339 q 354 -297 411 -339 q 297 -167 297 -254 q 372 -12 297 -79 q 139 89 217 -4 q 61 318 61 182 q 103 496 61 419 q 221 613 146 572 q 390 654 296 654 q 609 573 538 654 q 681 344 681 492 m 535 371 q 497 492 536 457 q 386 528 458 528 q 218 371 240 528 l 535 371 z "},"ẽ":{"ha":739,"x_min":61,"x_max":681,"o":"m 400 -14 q 210 31 286 -14 q 97 152 133 76 q 61 318 61 228 q 103 496 61 419 q 221 613 146 572 q 390 654 296 654 q 609 573 538 654 q 681 344 681 492 q 676 267 681 307 l 218 267 q 278 144 233 182 q 404 107 324 107 q 514 118 471 107 q 593 149 557 129 l 639 42 q 544 3 604 19 q 400 -14 485 -14 m 535 371 q 497 492 536 457 q 386 528 458 528 q 218 371 240 528 l 535 371 m 476 756 q 412 768 435 756 q 367 804 389 781 q 333 833 350 824 q 292 843 317 843 q 244 824 268 843 q 201 764 219 804 l 138 861 q 190 939 150 904 q 289 974 229 974 q 353 961 328 974 q 400 925 378 949 q 437 894 419 904 q 479 885 454 885 q 530 905 504 885 q 574 967 556 925 l 638 868 q 609 819 632 846 q 551 774 586 793 q 476 756 515 756 z "},"ə":{"ha":742,"x_min":61,"x_max":681,"o":"m 342 651 q 532 606 456 651 q 644 485 608 561 q 681 319 681 410 q 638 142 681 218 q 521 24 596 65 q 351 -17 446 -17 q 133 65 204 -17 q 61 293 61 146 q 65 371 61 332 l 524 371 q 463 493 508 456 q 338 531 418 531 q 228 519 271 531 q 149 489 185 508 l 103 596 q 197 635 138 618 q 342 651 257 651 m 207 267 q 244 145 206 181 q 356 110 283 110 q 524 267 501 110 l 207 267 z "},"f":{"ha":503,"x_min":56,"x_max":503,"o":"m 158 518 l 56 518 l 56 638 l 158 638 l 158 775 q 219 969 158 900 q 396 1038 279 1038 q 503 1011 443 1038 l 474 869 q 444 891 464 881 q 400 901 424 901 q 306 781 307 901 l 306 638 l 456 638 l 456 518 l 306 518 l 306 0 l 158 0 l 158 518 z "},"g":{"ha":843,"x_min":61,"x_max":750,"o":"m 408 -333 q 269 -314 338 -333 q 171 -278 200 -294 l 204 -139 q 404 -199 296 -199 q 544 -158 488 -199 q 603 -1 601 -118 l 603 113 q 508 22 574 58 q 364 -14 443 -14 q 211 27 281 -14 q 101 144 142 68 q 61 322 61 221 q 99 495 61 419 q 208 613 138 571 q 374 654 279 654 q 478 635 429 654 q 560 587 526 615 q 606 531 594 558 l 608 638 l 750 638 l 750 4 q 667 -246 750 -158 q 408 -333 583 -333 m 406 113 q 539 167 485 113 q 593 311 593 222 l 593 321 q 568 428 593 381 q 500 501 543 475 q 406 528 457 528 q 268 470 317 528 q 219 321 219 413 q 267 170 219 228 q 406 113 315 113 z "},"ğ":{"ha":843,"x_min":61,"x_max":750,"o":"m 408 -333 q 269 -314 338 -333 q 171 -278 200 -294 l 204 -139 q 404 -199 296 -199 q 544 -158 488 -199 q 603 -1 601 -118 l 603 113 q 508 22 574 58 q 364 -14 443 -14 q 211 27 281 -14 q 101 144 142 68 q 61 322 61 221 q 99 495 61 419 q 208 613 138 571 q 374 654 279 654 q 478 635 429 654 q 560 587 526 615 q 606 531 594 558 l 608 638 l 750 638 l 750 4 q 667 -246 750 -158 q 408 -333 583 -333 m 406 113 q 539 167 485 113 q 593 311 593 222 l 593 321 q 568 428 593 381 q 500 501 543 475 q 406 528 457 528 q 268 470 317 528 q 219 321 219 413 q 267 170 219 228 q 406 113 315 113 m 431 767 q 247 835 314 767 q 179 1014 179 904 l 313 1014 q 340 924 313 961 q 431 888 368 888 q 517 926 483 888 q 550 1014 550 965 l 682 1014 q 614 835 682 904 q 431 767 546 767 z "},"ǧ":{"ha":843,"x_min":61,"x_max":750,"o":"m 408 -333 q 269 -314 338 -333 q 171 -278 200 -294 l 204 -139 q 404 -199 296 -199 q 544 -158 488 -199 q 603 -1 601 -118 l 603 113 q 508 22 574 58 q 364 -14 443 -14 q 211 27 281 -14 q 101 144 142 68 q 61 322 61 221 q 99 495 61 419 q 208 613 138 571 q 374 654 279 654 q 478 635 429 654 q 560 587 526 615 q 606 531 594 558 l 608 638 l 750 638 l 750 4 q 667 -246 750 -158 q 408 -333 583 -333 m 406 113 q 539 167 485 113 q 593 311 593 222 l 593 321 q 568 428 593 381 q 500 501 543 475 q 406 528 457 528 q 268 470 317 528 q 219 321 219 413 q 267 170 219 228 q 406 113 315 113 m 182 1029 l 272 1104 l 431 897 l 590 1104 l 679 1029 l 431 729 l 182 1029 z "},"ĝ":{"ha":843,"x_min":61,"x_max":750,"o":"m 408 -333 q 269 -314 338 -333 q 171 -278 200 -294 l 204 -139 q 404 -199 296 -199 q 544 -158 488 -199 q 603 -1 601 -118 l 603 113 q 508 22 574 58 q 364 -14 443 -14 q 211 27 281 -14 q 101 144 142 68 q 61 322 61 221 q 99 495 61 419 q 208 613 138 571 q 374 654 279 654 q 478 635 429 654 q 560 587 526 615 q 606 531 594 558 l 608 638 l 750 638 l 750 4 q 667 -246 750 -158 q 408 -333 583 -333 m 406 113 q 539 167 485 113 q 593 311 593 222 l 593 321 q 568 428 593 381 q 500 501 543 475 q 406 528 457 528 q 268 470 317 528 q 219 321 219 413 q 267 170 219 228 q 406 113 315 113 m 182 818 l 431 1104 l 679 818 l 590 743 l 431 936 l 272 743 l 182 818 z "},"ģ":{"ha":843,"x_min":61,"x_max":750,"o":"m 408 -333 q 269 -314 338 -333 q 171 -278 200 -294 l 204 -139 q 404 -199 296 -199 q 544 -158 488 -199 q 603 -1 601 -118 l 603 113 q 508 22 574 58 q 364 -14 443 -14 q 211 27 281 -14 q 101 144 142 68 q 61 322 61 221 q 99 495 61 419 q 208 613 138 571 q 374 654 279 654 q 478 635 429 654 q 560 587 526 615 q 606 531 594 558 l 608 638 l 750 638 l 750 4 q 667 -246 750 -158 q 408 -333 583 -333 m 406 113 q 539 167 485 113 q 593 311 593 222 l 593 321 q 568 428 593 381 q 500 501 543 475 q 406 528 457 528 q 268 470 317 528 q 219 321 219 413 q 267 170 219 228 q 406 113 315 113 m 428 756 q 349 794 381 756 q 318 881 318 833 q 362 1044 318 960 q 457 1171 406 1128 l 544 1171 q 499 1069 515 1117 q 481 961 483 1021 q 520 921 503 949 q 538 867 538 893 q 506 789 538 822 q 428 756 475 756 z "},"ġ":{"ha":843,"x_min":61,"x_max":750,"o":"m 408 -333 q 269 -314 338 -333 q 171 -278 200 -294 l 204 -139 q 404 -199 296 -199 q 544 -158 488 -199 q 603 -1 601 -118 l 603 113 q 508 22 574 58 q 364 -14 443 -14 q 211 27 281 -14 q 101 144 142 68 q 61 322 61 221 q 99 495 61 419 q 208 613 138 571 q 374 654 279 654 q 478 635 429 654 q 560 587 526 615 q 606 531 594 558 l 608 638 l 750 638 l 750 4 q 667 -246 750 -158 q 408 -333 583 -333 m 406 113 q 539 167 485 113 q 593 311 593 222 l 593 321 q 568 428 593 381 q 500 501 543 475 q 406 528 457 528 q 268 470 317 528 q 219 321 219 413 q 267 170 219 228 q 406 113 315 113 m 431 757 q 359 786 388 757 q 331 858 331 815 q 360 925 331 897 q 431 953 389 953 q 501 925 472 953 q 531 858 531 897 q 502 786 531 815 q 431 757 474 757 z "},"ḡ":{"ha":843,"x_min":61,"x_max":750,"o":"m 408 -333 q 269 -314 338 -333 q 171 -278 200 -294 l 204 -139 q 404 -199 296 -199 q 544 -158 488 -199 q 603 -1 601 -118 l 603 113 q 508 22 574 58 q 364 -14 443 -14 q 211 27 281 -14 q 101 144 142 68 q 61 322 61 221 q 99 495 61 419 q 208 613 138 571 q 374 654 279 654 q 478 635 429 654 q 560 587 526 615 q 606 531 594 558 l 608 638 l 750 638 l 750 4 q 667 -246 750 -158 q 408 -333 583 -333 m 406 113 q 539 167 485 113 q 593 311 593 222 l 593 321 q 568 428 593 381 q 500 501 543 475 q 406 528 457 528 q 268 470 317 528 q 219 321 219 413 q 267 170 219 228 q 406 113 315 113 m 194 910 l 667 910 l 667 796 l 194 796 l 194 910 z "},"h":{"ha":799,"x_min":106,"x_max":707,"o":"m 106 1021 l 251 1021 l 251 638 l 246 519 q 331 616 272 578 q 467 654 389 654 q 618 613 565 654 q 689 499 671 572 q 707 307 707 425 l 707 0 l 558 0 l 558 308 q 549 435 558 389 q 513 504 540 481 q 435 528 486 528 q 351 503 393 528 q 281 430 308 478 q 253 317 253 382 l 253 0 l 106 0 l 106 1021 z "},"ħ":{"ha":799,"x_min":24,"x_max":707,"o":"m 467 654 q 618 613 565 654 q 689 499 671 572 q 707 307 707 425 l 707 0 l 558 0 l 558 308 q 549 435 558 389 q 513 504 540 481 q 435 528 486 528 q 351 503 393 528 q 281 430 308 478 q 253 317 253 382 l 253 0 l 106 0 l 106 781 l 24 781 l 24 879 l 106 879 l 106 1021 l 251 1021 l 251 879 l 411 879 l 411 781 l 251 781 l 251 638 l 246 519 q 331 616 272 578 q 467 654 389 654 z "},"ḫ":{"ha":799,"x_min":106,"x_max":707,"o":"m 106 1021 l 251 1021 l 251 638 l 246 519 q 331 616 272 578 q 467 654 389 654 q 618 613 565 654 q 689 499 671 572 q 707 307 707 425 l 707 0 l 558 0 l 558 308 q 549 435 558 389 q 513 504 540 481 q 435 528 486 528 q 351 503 393 528 q 281 430 308 478 q 253 317 253 382 l 253 0 l 106 0 l 106 1021 m 399 -342 q 215 -273 282 -342 q 147 -94 147 -204 l 281 -94 q 308 -184 281 -147 q 399 -221 336 -221 q 485 -182 451 -221 q 518 -94 518 -143 l 650 -94 q 582 -273 650 -204 q 399 -342 514 -342 z "},"ĥ":{"ha":799,"x_min":-83,"x_max":707,"o":"m 106 1021 l 251 1021 l 251 638 l 246 519 q 331 616 272 578 q 467 654 389 654 q 618 613 565 654 q 689 499 671 572 q 707 307 707 425 l 707 0 l 558 0 l 558 308 q 549 435 558 389 q 513 504 540 481 q 435 528 486 528 q 351 503 393 528 q 281 430 308 478 q 253 317 253 382 l 253 0 l 106 0 l 106 1021 m -83 1163 l 181 1376 l 443 1163 l 368 1088 l 181 1208 l -7 1088 l -83 1163 z "},"ḥ":{"ha":799,"x_min":106,"x_max":707,"o":"m 106 1021 l 251 1021 l 251 638 l 246 519 q 331 616 272 578 q 467 654 389 654 q 618 613 565 654 q 689 499 671 572 q 707 307 707 425 l 707 0 l 558 0 l 558 308 q 549 435 558 389 q 513 504 540 481 q 435 528 486 528 q 351 503 393 528 q 281 430 308 478 q 253 317 253 382 l 253 0 l 106 0 l 106 1021 m 400 -303 q 328 -274 357 -303 q 299 -201 299 -244 q 328 -135 299 -162 q 400 -107 357 -107 q 470 -135 442 -107 q 499 -201 499 -162 q 471 -274 499 -244 q 400 -303 443 -303 z "},"i":{"ha":375,"x_min":85,"x_max":286,"o":"m 110 638 l 265 638 l 265 0 l 110 0 l 110 638 m 186 757 q 114 786 143 757 q 85 858 85 815 q 114 925 85 897 q 186 953 143 953 q 257 925 228 953 q 286 858 286 897 q 258 786 286 815 q 186 757 229 757 z "},"ı":{"ha":375,"x_min":110,"x_max":265,"o":"m 110 638 l 265 638 l 265 0 l 110 0 l 110 638 z "},"í":{"ha":375,"x_min":83,"x_max":428,"o":"m 110 638 l 265 638 l 265 0 l 110 0 l 110 638 m 83 814 l 296 1132 l 428 1047 l 185 757 l 83 814 z "},"ĭ":{"ha":375,"x_min":-64,"x_max":439,"o":"m 110 638 l 265 638 l 265 0 l 110 0 l 110 638 m 188 767 q 3 835 71 767 q -64 1014 -64 904 l 69 1014 q 97 924 69 961 q 188 888 125 888 q 274 926 240 888 q 307 1014 307 965 l 439 1014 q 371 835 439 904 q 188 767 303 767 z "},"î":{"ha":375,"x_min":-61,"x_max":436,"o":"m 110 638 l 265 638 l 265 0 l 110 0 l 110 638 m -61 818 l 188 1104 l 436 818 l 347 743 l 188 936 l 29 743 l -61 818 z "},"ȉ":{"ha":375,"x_min":-192,"x_max":385,"o":"m 110 638 l 265 638 l 265 0 l 110 0 l 110 638 m 111 1029 l 243 1097 l 385 782 l 289 739 l 111 1029 m -192 1028 l -60 1096 l 96 782 l 0 739 l -192 1028 z "},"ï":{"ha":375,"x_min":-81,"x_max":456,"o":"m 110 638 l 265 638 l 265 0 l 110 0 l 110 638 m 19 757 q -51 786 -22 757 q -81 857 -81 815 q -52 927 -81 899 q 19 956 -24 956 q 91 927 63 956 q 119 857 119 899 q 91 786 119 815 q 19 757 63 757 m 354 757 q 283 786 313 757 q 254 857 254 815 q 283 927 254 899 q 354 956 313 956 q 426 926 397 956 q 456 857 456 897 q 426 786 456 815 q 354 757 397 757 z "},"ḯ":{"ha":375,"x_min":-81,"x_max":456,"o":"m 110 638 l 265 638 l 265 0 l 110 0 l 110 638 m 19 757 q -51 786 -22 757 q -81 857 -81 815 q -52 927 -81 899 q 19 956 -24 956 q 91 927 63 956 q 119 857 119 899 q 91 786 119 815 q 19 757 63 757 m 354 757 q 283 786 313 757 q 254 857 254 815 q 283 927 254 899 q 354 956 313 956 q 426 926 397 956 q 456 857 456 897 q 426 786 456 815 q 354 757 397 757 m 83 1085 l 296 1403 l 428 1318 l 185 1028 l 83 1085 z "},"ị":{"ha":375,"x_min":85,"x_max":290,"o":"m 110 638 l 265 638 l 265 0 l 110 0 l 110 638 m 186 757 q 114 786 143 757 q 85 858 85 815 q 114 925 85 897 q 186 953 143 953 q 257 925 228 953 q 286 858 286 897 q 258 786 286 815 q 186 757 229 757 m 192 -303 q 119 -274 149 -303 q 90 -201 90 -244 q 119 -135 90 -162 q 192 -107 149 -107 q 262 -135 233 -107 q 290 -201 290 -162 q 263 -274 290 -244 q 192 -303 235 -303 z "},"ì":{"ha":375,"x_min":-53,"x_max":292,"o":"m 110 638 l 265 638 l 265 0 l 110 0 l 110 638 m -53 1047 l 79 1132 l 292 814 l 190 757 l -53 1047 z "},"ỉ":{"ha":375,"x_min":21,"x_max":374,"o":"m 110 638 l 265 638 l 265 0 l 110 0 l 110 638 m 194 754 q 156 756 172 754 q 119 763 140 757 l 96 850 q 138 846 115 846 q 210 867 175 846 q 246 925 246 889 q 224 969 246 950 q 163 988 201 988 q 104 981 125 988 q 50 958 83 975 l 21 1044 q 83 1081 43 1064 q 182 1097 124 1097 q 269 1079 225 1097 q 343 1022 313 1061 q 374 925 374 983 q 351 847 374 888 q 287 781 328 807 q 194 754 246 754 z "},"ȋ":{"ha":375,"x_min":-64,"x_max":439,"o":"m 110 638 l 265 638 l 265 0 l 110 0 l 110 638 m -64 767 q 3 945 -64 876 q 188 1014 71 1014 q 371 945 303 1014 q 439 767 439 876 l 307 767 q 274 854 307 815 q 188 893 240 893 q 97 856 125 893 q 69 767 69 819 l -64 767 z "},"ĳ":{"ha":763,"x_min":85,"x_max":669,"o":"m 110 638 l 265 638 l 265 0 l 110 0 l 110 638 m 186 757 q 114 786 143 757 q 85 858 85 815 q 114 925 85 897 q 186 953 143 953 q 257 925 228 953 q 286 858 286 897 q 258 786 286 815 q 186 757 229 757 m 414 -339 q 303 -324 363 -339 l 335 -189 q 378 -203 357 -197 q 417 -210 399 -210 q 483 -185 463 -210 q 503 -83 503 -160 l 503 638 l 653 638 l 653 -90 q 590 -275 653 -211 q 414 -339 528 -339 m 569 757 q 497 786 526 757 q 468 858 468 815 q 497 925 468 897 q 569 953 526 953 q 640 925 611 953 q 669 858 669 897 q 641 786 669 815 q 569 757 613 757 z "},"ī":{"ha":375,"x_min":-49,"x_max":424,"o":"m 110 638 l 265 638 l 265 0 l 110 0 l 110 638 m -49 910 l 424 910 l 424 796 l -49 796 l -49 910 z "},"į":{"ha":375,"x_min":-12,"x_max":286,"o":"m 186 757 q 114 786 143 757 q 85 858 85 815 q 114 925 85 897 q 186 953 143 953 q 257 925 228 953 q 286 858 286 897 q 258 786 286 815 q 186 757 229 757 m 110 638 l 265 638 l 265 0 q 165 -53 207 -17 q 122 -149 122 -89 q 146 -207 122 -182 q 219 -232 169 -232 q 265 -229 246 -232 l 265 -344 q 197 -351 224 -351 q 44 -309 101 -351 q -12 -179 -12 -267 q 110 6 -12 -72 l 110 638 z "},"ĩ":{"ha":375,"x_min":-62,"x_max":438,"o":"m 110 638 l 265 638 l 265 0 l 110 0 l 110 638 m 276 756 q 212 768 235 756 q 167 804 189 781 q 133 833 150 824 q 92 843 117 843 q 44 824 68 843 q 1 764 19 804 l -62 861 q -10 939 -50 904 q 89 974 29 974 q 153 961 128 974 q 200 925 178 949 q 237 894 219 904 q 279 885 254 885 q 330 905 304 885 q 374 967 356 925 l 438 868 q 409 819 432 846 q 351 774 386 793 q 276 756 315 756 z "},"j":{"ha":388,"x_min":-72,"x_max":294,"o":"m 39 -339 q -72 -324 -12 -339 l -40 -189 q 3 -203 -18 -197 q 42 -210 24 -210 q 108 -185 88 -210 q 128 -83 128 -160 l 128 638 l 278 638 l 278 -90 q 215 -275 278 -211 q 39 -339 153 -339 m 194 757 q 122 786 151 757 q 93 858 93 815 q 122 925 93 897 q 194 953 151 953 q 265 925 236 953 q 294 858 294 897 q 266 786 294 815 q 194 757 238 757 z "},"ȷ":{"ha":388,"x_min":-72,"x_max":278,"o":"m 39 -339 q -72 -324 -12 -339 l -40 -189 q 3 -203 -18 -197 q 42 -210 24 -210 q 108 -185 88 -210 q 128 -83 128 -160 l 128 638 l 278 638 l 278 -90 q 215 -275 278 -211 q 39 -339 153 -339 z "},"ĵ":{"ha":388,"x_min":-72,"x_max":458,"o":"m 39 -339 q -72 -324 -12 -339 l -40 -189 q 3 -203 -18 -197 q 42 -210 24 -210 q 108 -185 88 -210 q 128 -83 128 -160 l 128 638 l 278 638 l 278 -90 q 215 -275 278 -211 q 39 -339 153 -339 m -68 846 l 196 1088 l 458 846 l 383 769 l 196 918 l 8 769 l -68 846 z "},"k":{"ha":696,"x_min":106,"x_max":675,"o":"m 675 0 l 499 0 l 369 208 l 333 279 l 250 189 l 250 0 l 106 0 l 106 1021 l 249 1021 l 249 461 l 246 353 l 489 638 l 674 638 l 433 371 l 675 0 z "},"ķ":{"ha":696,"x_min":106,"x_max":675,"o":"m 675 0 l 499 0 l 369 208 l 333 279 l 250 189 l 250 0 l 106 0 l 106 1021 l 249 1021 l 249 461 l 246 353 l 489 638 l 674 638 l 433 371 l 675 0 m 318 -367 q 335 -317 322 -356 q 353 -243 349 -278 q 308 -161 308 -214 q 338 -90 308 -118 q 410 -62 367 -62 q 481 -90 453 -62 q 508 -161 508 -118 q 472 -278 508 -215 q 404 -367 436 -340 l 318 -367 z "},"ĸ":{"ha":717,"x_min":99,"x_max":696,"o":"m 99 638 l 251 638 l 251 367 l 500 638 l 694 638 l 417 350 l 696 0 l 501 0 l 315 246 l 251 179 l 251 0 l 99 0 l 99 638 z "},"l":{"ha":372,"x_min":111,"x_max":260,"o":"m 111 1021 l 260 1021 l 260 0 l 111 0 l 111 1021 z "},"ĺ":{"ha":372,"x_min":74,"x_max":429,"o":"m 111 1021 l 260 1021 l 260 0 l 111 0 l 111 1021 m 74 1176 l 346 1383 l 429 1268 l 133 1085 l 74 1176 z "},"ľ":{"ha":507,"x_min":111,"x_max":507,"o":"m 111 1021 l 260 1021 l 260 0 l 111 0 l 111 1021 m 371 1021 l 507 1021 l 468 681 l 371 681 l 371 1021 z "},"ļ":{"ha":372,"x_min":92,"x_max":292,"o":"m 111 1021 l 260 1021 l 260 0 l 111 0 l 111 1021 m 101 -367 q 119 -317 106 -356 q 136 -243 132 -278 q 92 -161 92 -214 q 121 -90 92 -118 q 193 -62 150 -62 q 264 -90 236 -62 q 292 -161 292 -118 q 256 -278 292 -215 q 188 -367 219 -340 l 101 -367 z "},"ŀ":{"ha":518,"x_min":111,"x_max":551,"o":"m 111 1021 l 260 1021 l 260 0 l 111 0 l 111 1021 m 449 353 q 378 382 407 353 q 350 454 350 411 q 378 524 350 496 q 449 553 406 553 q 522 524 492 553 q 551 454 551 496 q 522 382 551 411 q 449 353 493 353 z "},"ḷ":{"ha":372,"x_min":83,"x_max":283,"o":"m 111 1021 l 260 1021 l 260 0 l 111 0 l 111 1021 m 185 -303 q 113 -274 142 -303 q 83 -201 83 -244 q 113 -135 83 -162 q 185 -107 142 -107 q 255 -135 226 -107 q 283 -201 283 -162 q 256 -274 283 -244 q 185 -303 228 -303 z "},"ǉ":{"ha":690,"x_min":111,"x_max":597,"o":"m 111 1021 l 260 1021 l 260 0 l 111 0 l 111 1021 m 342 -339 q 231 -324 290 -339 l 263 -189 q 306 -203 285 -197 q 344 -210 326 -210 q 410 -185 390 -210 q 431 -83 431 -160 l 431 638 l 581 638 l 581 -90 q 518 -275 581 -211 q 342 -339 456 -339 m 497 757 q 425 786 454 757 q 396 858 396 815 q 425 925 396 897 q 497 953 454 953 q 568 925 539 953 q 597 858 597 897 q 569 786 597 815 q 497 757 540 757 z "},"ḻ":{"ha":372,"x_min":-39,"x_max":406,"o":"m 111 1021 l 260 1021 l 260 0 l 111 0 l 111 1021 m -39 -111 l 406 -111 l 406 -225 l -39 -225 l -39 -111 z "},"ł":{"ha":401,"x_min":0,"x_max":401,"o":"m 124 401 l 0 347 l 0 476 l 124 531 l 124 1026 l 274 1026 l 274 599 l 401 654 l 401 524 l 274 468 l 274 4 l 124 4 l 124 401 z "},"m":{"ha":1235,"x_min":99,"x_max":1142,"o":"m 99 638 l 249 638 l 249 522 q 338 621 279 588 q 474 654 397 654 q 683 536 644 653 q 775 622 714 590 q 904 654 836 654 q 1056 616 1004 654 q 1124 508 1107 578 q 1142 319 1142 438 l 1142 0 l 990 0 l 990 321 q 967 482 990 433 q 879 531 944 531 q 747 472 792 531 q 701 317 701 413 l 701 0 l 551 0 l 551 343 q 546 453 551 417 q 515 510 540 489 q 435 531 490 531 q 344 501 386 531 q 276 423 301 472 q 250 317 250 374 l 250 0 l 99 0 l 99 638 z "},"ṃ":{"ha":1235,"x_min":99,"x_max":1142,"o":"m 99 638 l 249 638 l 249 522 q 338 621 279 588 q 474 654 397 654 q 683 536 644 653 q 775 622 714 590 q 904 654 836 654 q 1056 616 1004 654 q 1124 508 1107 578 q 1142 319 1142 438 l 1142 0 l 990 0 l 990 321 q 967 482 990 433 q 879 531 944 531 q 747 472 792 531 q 701 317 701 413 l 701 0 l 551 0 l 551 343 q 546 453 551 417 q 515 510 540 489 q 435 531 490 531 q 344 501 386 531 q 276 423 301 472 q 250 317 250 374 l 250 0 l 99 0 l 99 638 m 626 -303 q 554 -274 583 -303 q 525 -201 525 -244 q 554 -135 525 -162 q 626 -107 583 -107 q 697 -135 668 -107 q 725 -201 725 -162 q 697 -274 725 -244 q 626 -303 669 -303 z "},"n":{"ha":799,"x_min":99,"x_max":704,"o":"m 99 638 l 246 638 l 247 521 q 331 617 274 579 q 464 654 388 654 q 615 613 563 654 q 686 499 668 572 q 704 307 704 425 l 704 0 l 554 0 l 554 303 q 531 477 554 424 q 433 531 507 531 q 349 505 392 531 q 277 431 306 479 q 249 317 249 382 l 249 0 l 99 0 l 99 638 z "},"ń":{"ha":799,"x_min":99,"x_max":704,"o":"m 99 638 l 246 638 l 247 521 q 331 617 274 579 q 464 654 388 654 q 615 613 563 654 q 686 499 668 572 q 704 307 704 425 l 704 0 l 554 0 l 554 303 q 531 477 554 424 q 433 531 507 531 q 349 505 392 531 q 277 431 306 479 q 249 317 249 382 l 249 0 l 99 0 l 99 638 m 354 781 l 567 1099 l 699 1014 l 456 724 l 354 781 z "},"ň":{"ha":799,"x_min":99,"x_max":704,"o":"m 99 638 l 246 638 l 247 521 q 331 617 274 579 q 464 654 388 654 q 615 613 563 654 q 686 499 668 572 q 704 307 704 425 l 704 0 l 554 0 l 554 303 q 531 477 554 424 q 433 531 507 531 q 349 505 392 531 q 277 431 306 479 q 249 317 249 382 l 249 0 l 99 0 l 99 638 m 164 985 l 240 1060 l 428 911 l 615 1060 l 690 985 l 428 743 l 164 985 z "},"ņ":{"ha":799,"x_min":99,"x_max":704,"o":"m 99 638 l 246 638 l 247 521 q 331 617 274 579 q 464 654 388 654 q 615 613 563 654 q 686 499 668 572 q 704 307 704 425 l 704 0 l 554 0 l 554 303 q 531 477 554 424 q 433 531 507 531 q 349 505 392 531 q 277 431 306 479 q 249 317 249 382 l 249 0 l 99 0 l 99 638 m 333 -367 q 351 -317 338 -356 q 368 -243 364 -278 q 324 -161 324 -214 q 353 -90 324 -118 q 425 -62 382 -62 q 496 -90 468 -62 q 524 -161 524 -118 q 488 -278 524 -215 q 419 -367 451 -340 l 333 -367 z "},"ṅ":{"ha":799,"x_min":99,"x_max":704,"o":"m 99 638 l 246 638 l 247 521 q 331 617 274 579 q 464 654 388 654 q 615 613 563 654 q 686 499 668 572 q 704 307 704 425 l 704 0 l 554 0 l 554 303 q 531 477 554 424 q 433 531 507 531 q 349 505 392 531 q 277 431 306 479 q 249 317 249 382 l 249 0 l 99 0 l 99 638 m 426 757 q 354 786 383 757 q 325 858 325 815 q 354 925 325 897 q 426 953 383 953 q 497 925 468 953 q 526 858 526 897 q 498 786 526 815 q 426 757 469 757 z "},"ṇ":{"ha":799,"x_min":99,"x_max":704,"o":"m 99 638 l 246 638 l 247 521 q 331 617 274 579 q 464 654 388 654 q 615 613 563 654 q 686 499 668 572 q 704 307 704 425 l 704 0 l 554 0 l 554 303 q 531 477 554 424 q 433 531 507 531 q 349 505 392 531 q 277 431 306 479 q 249 317 249 382 l 249 0 l 99 0 l 99 638 m 417 -303 q 344 -274 374 -303 q 315 -201 315 -244 q 344 -135 315 -162 q 417 -107 374 -107 q 487 -135 458 -107 q 515 -201 515 -162 q 488 -274 515 -244 q 417 -303 460 -303 z "},"ŋ":{"ha":872,"x_min":129,"x_max":753,"o":"m 513 -354 q 434 -349 467 -354 q 392 -337 401 -343 l 421 -203 q 517 -225 481 -225 q 582 -195 561 -225 q 603 -101 603 -165 l 603 338 q 571 476 603 429 q 465 522 539 522 q 376 500 419 522 q 306 432 333 478 q 279 317 279 386 l 279 0 l 129 0 l 129 638 l 279 638 l 279 524 q 369 617 310 579 q 514 654 429 654 q 666 614 614 654 q 735 506 718 574 q 753 336 753 439 l 753 -93 q 700 -289 753 -224 q 513 -354 647 -354 z "},"ǌ":{"ha":1147,"x_min":99,"x_max":1054,"o":"m 99 638 l 246 638 l 247 521 q 331 617 274 579 q 464 654 388 654 q 615 613 563 654 q 686 499 668 572 q 704 307 704 425 l 704 0 l 554 0 l 554 303 q 531 477 554 424 q 433 531 507 531 q 349 505 392 531 q 277 431 306 479 q 249 317 249 382 l 249 0 l 99 0 l 99 638 m 799 -339 q 688 -324 747 -339 l 719 -189 q 763 -203 742 -197 q 801 -210 783 -210 q 867 -185 847 -210 q 888 -83 888 -160 l 888 638 l 1038 638 l 1038 -90 q 975 -275 1038 -211 q 799 -339 913 -339 m 954 757 q 882 786 911 757 q 853 858 853 815 q 882 925 853 897 q 954 953 911 953 q 1025 925 996 953 q 1054 858 1054 897 q 1026 786 1054 815 q 954 757 997 757 z "},"ṉ":{"ha":799,"x_min":99,"x_max":704,"o":"m 99 638 l 246 638 l 247 521 q 331 617 274 579 q 464 654 388 654 q 615 613 563 654 q 686 499 668 572 q 704 307 704 425 l 704 0 l 554 0 l 554 303 q 531 477 554 424 q 433 531 507 531 q 349 505 392 531 q 277 431 306 479 q 249 317 249 382 l 249 0 l 99 0 l 99 638 m 193 -111 l 638 -111 l 638 -225 l 193 -225 l 193 -111 z "},"ñ":{"ha":799,"x_min":99,"x_max":715,"o":"m 99 638 l 246 638 l 247 521 q 331 617 274 579 q 464 654 388 654 q 615 613 563 654 q 686 499 668 572 q 704 307 704 425 l 704 0 l 554 0 l 554 303 q 531 477 554 424 q 433 531 507 531 q 349 505 392 531 q 277 431 306 479 q 249 317 249 382 l 249 0 l 99 0 l 99 638 m 526 797 q 453 810 479 797 q 400 847 428 822 q 363 874 379 865 q 321 883 346 883 q 261 865 290 883 q 213 803 232 846 l 144 890 q 180 945 154 917 q 245 994 206 974 q 332 1014 285 1014 q 405 1001 379 1014 q 460 964 431 989 q 498 935 482 944 q 540 926 514 926 q 599 946 569 926 q 647 1007 628 965 l 715 921 q 649 835 701 872 q 526 797 597 797 z "},"o":{"ha":790,"x_min":61,"x_max":729,"o":"m 396 -14 q 221 31 297 -14 q 103 151 144 75 q 61 321 61 228 q 102 489 61 413 q 219 610 143 565 q 396 654 296 654 q 572 610 496 654 q 688 489 647 565 q 729 321 729 413 q 688 151 729 228 q 570 31 646 75 q 396 -14 494 -14 m 400 108 q 527 168 481 108 q 574 318 574 228 q 524 470 574 408 q 392 532 474 532 q 265 471 313 532 q 217 318 217 410 q 268 169 217 229 q 400 108 319 108 z "},"ó":{"ha":790,"x_min":61,"x_max":729,"o":"m 396 -14 q 221 31 297 -14 q 103 151 144 75 q 61 321 61 228 q 102 489 61 413 q 219 610 143 565 q 396 654 296 654 q 572 610 496 654 q 688 489 647 565 q 729 321 729 413 q 688 151 729 228 q 570 31 646 75 q 396 -14 494 -14 m 400 108 q 527 168 481 108 q 574 318 574 228 q 524 470 574 408 q 392 532 474 532 q 265 471 313 532 q 217 318 217 410 q 268 169 217 229 q 400 108 319 108 m 322 781 l 535 1099 l 667 1014 l 424 724 l 322 781 z "},"ŏ":{"ha":790,"x_min":61,"x_max":729,"o":"m 396 -14 q 221 31 297 -14 q 103 151 144 75 q 61 321 61 228 q 102 489 61 413 q 219 610 143 565 q 396 654 296 654 q 572 610 496 654 q 688 489 647 565 q 729 321 729 413 q 688 151 729 228 q 570 31 646 75 q 396 -14 494 -14 m 400 108 q 527 168 481 108 q 574 318 574 228 q 524 470 574 408 q 392 532 474 532 q 265 471 313 532 q 217 318 217 410 q 268 169 217 229 q 400 108 319 108 m 396 767 q 210 835 278 767 q 143 1014 143 904 l 276 1014 q 305 924 276 961 q 396 888 333 888 q 482 926 449 888 q 515 1014 515 965 l 647 1014 q 579 835 647 904 q 396 767 511 767 z "},"ô":{"ha":790,"x_min":61,"x_max":729,"o":"m 396 -14 q 221 31 297 -14 q 103 151 144 75 q 61 321 61 228 q 102 489 61 413 q 219 610 143 565 q 396 654 296 654 q 572 610 496 654 q 688 489 647 565 q 729 321 729 413 q 688 151 729 228 q 570 31 646 75 q 396 -14 494 -14 m 400 108 q 527 168 481 108 q 574 318 574 228 q 524 470 574 408 q 392 532 474 532 q 265 471 313 532 q 217 318 217 410 q 268 169 217 229 q 400 108 319 108 m 132 846 l 396 1088 l 658 846 l 583 769 l 396 918 l 208 769 l 132 846 z "},"ố":{"ha":790,"x_min":61,"x_max":744,"o":"m 396 -14 q 221 31 297 -14 q 103 151 144 75 q 61 321 61 228 q 102 489 61 413 q 219 610 143 565 q 396 654 296 654 q 572 610 496 654 q 688 489 647 565 q 729 321 729 413 q 688 151 729 228 q 570 31 646 75 q 396 -14 494 -14 m 400 108 q 527 168 481 108 q 574 318 574 228 q 524 470 574 408 q 392 532 474 532 q 265 471 313 532 q 217 318 217 410 q 268 169 217 229 q 400 108 319 108 m 461 1090 l 626 1326 l 744 1256 l 563 1039 l 461 1090 m 157 839 l 400 1047 l 642 839 l 572 768 l 400 892 l 228 768 l 157 839 z "},"ộ":{"ha":790,"x_min":61,"x_max":729,"o":"m 396 -14 q 221 31 297 -14 q 103 151 144 75 q 61 321 61 228 q 102 489 61 413 q 219 610 143 565 q 396 654 296 654 q 572 610 496 654 q 688 489 647 565 q 729 321 729 413 q 688 151 729 228 q 570 31 646 75 q 396 -14 494 -14 m 400 108 q 527 168 481 108 q 574 318 574 228 q 524 470 574 408 q 392 532 474 532 q 265 471 313 532 q 217 318 217 410 q 268 169 217 229 q 400 108 319 108 m 397 -303 q 325 -274 354 -303 q 296 -201 296 -244 q 325 -135 296 -162 q 397 -107 354 -107 q 467 -135 439 -107 q 496 -201 496 -162 q 468 -274 496 -244 q 397 -303 440 -303 m 132 846 l 396 1088 l 658 846 l 583 769 l 396 918 l 208 769 l 132 846 z "},"ồ":{"ha":790,"x_min":61,"x_max":729,"o":"m 396 -14 q 221 31 297 -14 q 103 151 144 75 q 61 321 61 228 q 102 489 61 413 q 219 610 143 565 q 396 654 296 654 q 572 610 496 654 q 688 489 647 565 q 729 321 729 413 q 688 151 729 228 q 570 31 646 75 q 396 -14 494 -14 m 400 108 q 527 168 481 108 q 574 318 574 228 q 524 470 574 408 q 392 532 474 532 q 265 471 313 532 q 217 318 217 410 q 268 169 217 229 q 400 108 319 108 m 408 1256 l 526 1326 l 692 1090 l 590 1039 l 408 1256 m 157 839 l 400 1047 l 642 839 l 572 768 l 400 892 l 228 768 l 157 839 z "},"ổ":{"ha":790,"x_min":61,"x_max":729,"o":"m 396 -14 q 221 31 297 -14 q 103 151 144 75 q 61 321 61 228 q 102 489 61 413 q 219 610 143 565 q 396 654 296 654 q 572 610 496 654 q 688 489 647 565 q 729 321 729 413 q 688 151 729 228 q 570 31 646 75 q 396 -14 494 -14 m 400 108 q 527 168 481 108 q 574 318 574 228 q 524 470 574 408 q 392 532 474 532 q 265 471 313 532 q 217 318 217 410 q 268 169 217 229 q 400 108 319 108 m 411 1099 q 371 1100 389 1099 q 333 1106 353 1101 l 313 1174 q 350 1171 324 1171 q 411 1185 386 1171 q 436 1232 436 1199 q 414 1271 436 1254 q 356 1288 392 1288 q 269 1261 322 1288 l 243 1340 q 304 1373 260 1357 q 392 1389 349 1389 q 514 1355 460 1389 q 568 1243 568 1321 q 549 1175 568 1208 q 494 1120 531 1142 q 411 1099 458 1099 m 157 839 l 400 1047 l 642 839 l 572 768 l 400 892 l 228 768 l 157 839 z "},"ỗ":{"ha":790,"x_min":61,"x_max":729,"o":"m 396 -14 q 221 31 297 -14 q 103 151 144 75 q 61 321 61 228 q 102 489 61 413 q 219 610 143 565 q 396 654 296 654 q 572 610 496 654 q 688 489 647 565 q 729 321 729 413 q 688 151 729 228 q 570 31 646 75 q 396 -14 494 -14 m 400 108 q 527 168 481 108 q 574 318 574 228 q 524 470 574 408 q 392 532 474 532 q 265 471 313 532 q 217 318 217 410 q 268 169 217 229 q 400 108 319 108 m 475 1096 q 416 1107 438 1096 q 371 1140 394 1118 q 342 1163 354 1156 q 313 1169 331 1169 q 265 1153 289 1169 q 225 1103 240 1136 l 172 1175 q 222 1247 183 1213 q 315 1281 261 1281 q 377 1269 354 1281 q 422 1236 400 1257 q 450 1213 438 1221 q 481 1206 463 1206 q 527 1222 503 1206 q 567 1275 551 1239 l 619 1200 q 570 1128 610 1160 q 475 1096 531 1096 m 157 839 l 400 1047 l 642 839 l 572 768 l 400 892 l 228 768 l 157 839 z "},"ȍ":{"ha":790,"x_min":17,"x_max":729,"o":"m 396 -14 q 221 31 297 -14 q 103 151 144 75 q 61 321 61 228 q 102 489 61 413 q 219 610 143 565 q 396 654 296 654 q 572 610 496 654 q 688 489 647 565 q 729 321 729 413 q 688 151 729 228 q 570 31 646 75 q 396 -14 494 -14 m 400 108 q 527 168 481 108 q 574 318 574 228 q 524 470 574 408 q 392 532 474 532 q 265 471 313 532 q 217 318 217 410 q 268 169 217 229 q 400 108 319 108 m 319 1029 l 451 1097 l 593 782 l 497 739 l 319 1029 m 17 1028 l 149 1096 l 304 782 l 208 739 l 17 1028 z "},"ö":{"ha":790,"x_min":61,"x_max":729,"o":"m 396 -14 q 221 31 297 -14 q 103 151 144 75 q 61 321 61 228 q 102 489 61 413 q 219 610 143 565 q 396 654 296 654 q 572 610 496 654 q 688 489 647 565 q 729 321 729 413 q 688 151 729 228 q 570 31 646 75 q 396 -14 494 -14 m 400 108 q 527 168 481 108 q 574 318 574 228 q 524 470 574 408 q 392 532 474 532 q 265 471 313 532 q 217 318 217 410 q 268 169 217 229 q 400 108 319 108 m 228 799 q 157 828 186 799 q 128 899 128 857 q 157 969 128 940 q 228 997 186 997 q 299 969 271 997 q 328 899 328 940 q 299 828 328 857 q 228 799 271 799 m 564 799 q 493 828 522 799 q 464 899 464 857 q 493 969 464 940 q 564 997 522 997 q 636 968 607 997 q 665 899 665 939 q 636 828 665 857 q 564 799 607 799 z "},"ȫ":{"ha":790,"x_min":61,"x_max":729,"o":"m 396 -14 q 221 31 297 -14 q 103 151 144 75 q 61 321 61 228 q 102 489 61 413 q 219 610 143 565 q 396 654 296 654 q 572 610 496 654 q 688 489 647 565 q 729 321 729 413 q 688 151 729 228 q 570 31 646 75 q 396 -14 494 -14 m 400 108 q 527 168 481 108 q 574 318 574 228 q 524 470 574 408 q 392 532 474 532 q 265 471 313 532 q 217 318 217 410 q 268 169 217 229 q 400 108 319 108 m 228 757 q 157 786 186 757 q 128 857 128 815 q 156 927 128 899 q 228 956 185 956 q 299 927 271 956 q 328 857 328 899 q 299 786 328 815 q 228 757 271 757 m 563 757 q 492 786 521 757 q 463 857 463 815 q 492 927 463 899 q 563 956 521 956 q 635 926 606 956 q 664 857 664 897 q 635 786 664 815 q 563 757 606 757 m 160 1181 l 632 1181 l 632 1067 l 160 1067 l 160 1181 z "},"ȱ":{"ha":790,"x_min":61,"x_max":729,"o":"m 396 -14 q 221 31 297 -14 q 103 151 144 75 q 61 321 61 228 q 102 489 61 413 q 219 610 143 565 q 396 654 296 654 q 572 610 496 654 q 688 489 647 565 q 729 321 729 413 q 688 151 729 228 q 570 31 646 75 q 396 -14 494 -14 m 400 108 q 527 168 481 108 q 574 318 574 228 q 524 470 574 408 q 392 532 474 532 q 265 471 313 532 q 217 318 217 410 q 268 169 217 229 q 400 108 319 108 m 396 757 q 324 786 353 757 q 296 858 296 815 q 325 925 296 897 q 396 953 354 953 q 467 925 438 953 q 496 858 496 897 q 467 786 496 815 q 396 757 439 757 m 160 1181 l 632 1181 l 632 1067 l 160 1067 l 160 1181 z "},"ọ":{"ha":790,"x_min":61,"x_max":729,"o":"m 396 -14 q 221 31 297 -14 q 103 151 144 75 q 61 321 61 228 q 102 489 61 413 q 219 610 143 565 q 396 654 296 654 q 572 610 496 654 q 688 489 647 565 q 729 321 729 413 q 688 151 729 228 q 570 31 646 75 q 396 -14 494 -14 m 400 108 q 527 168 481 108 q 574 318 574 228 q 524 470 574 408 q 392 532 474 532 q 265 471 313 532 q 217 318 217 410 q 268 169 217 229 q 400 108 319 108 m 397 -303 q 325 -274 354 -303 q 296 -201 296 -244 q 325 -135 296 -162 q 397 -107 354 -107 q 467 -135 439 -107 q 496 -201 496 -162 q 468 -274 496 -244 q 397 -303 440 -303 z "},"ò":{"ha":790,"x_min":61,"x_max":729,"o":"m 396 -14 q 221 31 297 -14 q 103 151 144 75 q 61 321 61 228 q 102 489 61 413 q 219 610 143 565 q 396 654 296 654 q 572 610 496 654 q 688 489 647 565 q 729 321 729 413 q 688 151 729 228 q 570 31 646 75 q 396 -14 494 -14 m 400 108 q 527 168 481 108 q 574 318 574 228 q 524 470 574 408 q 392 532 474 532 q 265 471 313 532 q 217 318 217 410 q 268 169 217 229 q 400 108 319 108 m 144 1014 l 278 1099 l 489 781 l 388 724 l 144 1014 z "},"ỏ":{"ha":790,"x_min":61,"x_max":729,"o":"m 396 -14 q 221 31 297 -14 q 103 151 144 75 q 61 321 61 228 q 102 489 61 413 q 219 610 143 565 q 396 654 296 654 q 572 610 496 654 q 688 489 647 565 q 729 321 729 413 q 688 151 729 228 q 570 31 646 75 q 396 -14 494 -14 m 400 108 q 527 168 481 108 q 574 318 574 228 q 524 470 574 408 q 392 532 474 532 q 265 471 313 532 q 217 318 217 410 q 268 169 217 229 q 400 108 319 108 m 403 754 q 365 756 381 754 q 328 763 349 757 l 304 850 q 346 846 324 846 q 419 867 383 846 q 454 925 454 889 q 432 969 454 950 q 371 988 410 988 q 313 981 333 988 q 258 958 292 975 l 229 1044 q 292 1081 251 1064 q 390 1097 332 1097 q 477 1079 433 1097 q 551 1022 521 1061 q 582 925 582 983 q 559 847 582 888 q 495 781 536 807 q 403 754 454 754 z "},"ơ":{"ha":790,"x_min":61,"x_max":775,"o":"m 775 701 q 750 633 775 663 q 690 588 725 604 q 626 569 656 572 q 702 459 675 524 q 729 321 729 394 q 688 151 729 228 q 570 31 646 75 q 396 -14 494 -14 q 221 31 297 -14 q 103 151 144 75 q 61 321 61 228 q 102 489 61 413 q 219 610 143 565 q 396 654 296 654 q 508 638 457 654 q 601 654 556 638 q 646 722 646 671 q 635 801 646 774 l 765 801 q 773 763 771 783 q 775 701 775 743 m 400 108 q 527 168 481 108 q 574 318 574 228 q 524 470 574 408 q 392 532 474 532 q 265 471 313 532 q 217 318 217 410 q 268 169 217 229 q 400 108 319 108 z "},"ớ":{"ha":790,"x_min":61,"x_max":775,"o":"m 775 701 q 750 633 775 663 q 690 588 725 604 q 626 569 656 572 q 702 459 675 524 q 729 321 729 394 q 688 151 729 228 q 570 31 646 75 q 396 -14 494 -14 q 221 31 297 -14 q 103 151 144 75 q 61 321 61 228 q 102 489 61 413 q 219 610 143 565 q 396 654 296 654 q 508 638 457 654 q 601 654 556 638 q 646 722 646 671 q 635 801 646 774 l 765 801 q 773 763 771 783 q 775 701 775 743 m 400 108 q 527 168 481 108 q 574 318 574 228 q 524 470 574 408 q 392 532 474 532 q 265 471 313 532 q 217 318 217 410 q 268 169 217 229 q 400 108 319 108 m 292 814 l 504 1132 l 636 1047 l 393 757 l 292 814 z "},"ợ":{"ha":790,"x_min":61,"x_max":775,"o":"m 775 701 q 750 633 775 663 q 690 588 725 604 q 626 569 656 572 q 702 459 675 524 q 729 321 729 394 q 688 151 729 228 q 570 31 646 75 q 396 -14 494 -14 q 221 31 297 -14 q 103 151 144 75 q 61 321 61 228 q 102 489 61 413 q 219 610 143 565 q 396 654 296 654 q 508 638 457 654 q 601 654 556 638 q 646 722 646 671 q 635 801 646 774 l 765 801 q 773 763 771 783 q 775 701 775 743 m 400 108 q 527 168 481 108 q 574 318 574 228 q 524 470 574 408 q 392 532 474 532 q 265 471 313 532 q 217 318 217 410 q 268 169 217 229 q 400 108 319 108 m 397 -303 q 325 -274 354 -303 q 296 -201 296 -244 q 325 -135 296 -162 q 397 -107 354 -107 q 467 -135 439 -107 q 496 -201 496 -162 q 468 -274 496 -244 q 397 -303 440 -303 z "},"ờ":{"ha":790,"x_min":61,"x_max":775,"o":"m 775 701 q 750 633 775 663 q 690 588 725 604 q 626 569 656 572 q 702 459 675 524 q 729 321 729 394 q 688 151 729 228 q 570 31 646 75 q 396 -14 494 -14 q 221 31 297 -14 q 103 151 144 75 q 61 321 61 228 q 102 489 61 413 q 219 610 143 565 q 396 654 296 654 q 508 638 457 654 q 601 654 556 638 q 646 722 646 671 q 635 801 646 774 l 765 801 q 773 763 771 783 q 775 701 775 743 m 400 108 q 527 168 481 108 q 574 318 574 228 q 524 470 574 408 q 392 532 474 532 q 265 471 313 532 q 217 318 217 410 q 268 169 217 229 q 400 108 319 108 m 156 1047 l 288 1132 l 500 814 l 399 757 l 156 1047 z "},"ở":{"ha":790,"x_min":61,"x_max":775,"o":"m 775 701 q 750 633 775 663 q 690 588 725 604 q 626 569 656 572 q 702 459 675 524 q 729 321 729 394 q 688 151 729 228 q 570 31 646 75 q 396 -14 494 -14 q 221 31 297 -14 q 103 151 144 75 q 61 321 61 228 q 102 489 61 413 q 219 610 143 565 q 396 654 296 654 q 508 638 457 654 q 601 654 556 638 q 646 722 646 671 q 635 801 646 774 l 765 801 q 773 763 771 783 q 775 701 775 743 m 400 108 q 527 168 481 108 q 574 318 574 228 q 524 470 574 408 q 392 532 474 532 q 265 471 313 532 q 217 318 217 410 q 268 169 217 229 q 400 108 319 108 m 403 754 q 365 756 381 754 q 328 763 349 757 l 304 850 q 346 846 324 846 q 419 867 383 846 q 454 925 454 889 q 432 969 454 950 q 371 988 410 988 q 313 981 333 988 q 258 958 292 975 l 229 1044 q 292 1081 251 1064 q 390 1097 332 1097 q 477 1079 433 1097 q 551 1022 521 1061 q 582 925 582 983 q 559 847 582 888 q 495 781 536 807 q 403 754 454 754 z "},"ỡ":{"ha":790,"x_min":61,"x_max":775,"o":"m 775 701 q 750 633 775 663 q 690 588 725 604 q 626 569 656 572 q 702 459 675 524 q 729 321 729 394 q 688 151 729 228 q 570 31 646 75 q 396 -14 494 -14 q 221 31 297 -14 q 103 151 144 75 q 61 321 61 228 q 102 489 61 413 q 219 610 143 565 q 396 654 296 654 q 508 638 457 654 q 601 654 556 638 q 646 722 646 671 q 635 801 646 774 l 765 801 q 773 763 771 783 q 775 701 775 743 m 400 108 q 527 168 481 108 q 574 318 574 228 q 524 470 574 408 q 392 532 474 532 q 265 471 313 532 q 217 318 217 410 q 268 169 217 229 q 400 108 319 108 m 485 756 q 420 768 443 756 q 375 804 397 781 q 342 833 358 824 q 300 843 325 843 q 252 824 276 843 q 210 764 228 804 l 146 861 q 198 939 158 904 q 297 974 238 974 q 361 961 336 974 q 408 925 386 949 q 445 894 428 904 q 488 885 463 885 q 538 905 513 885 q 582 967 564 925 l 646 868 q 617 819 640 846 q 559 774 594 793 q 485 756 524 756 z "},"ő":{"ha":790,"x_min":61,"x_max":778,"o":"m 396 -14 q 221 31 297 -14 q 103 151 144 75 q 61 321 61 228 q 102 489 61 413 q 219 610 143 565 q 396 654 296 654 q 572 610 496 654 q 688 489 647 565 q 729 321 729 413 q 688 151 729 228 q 570 31 646 75 q 396 -14 494 -14 m 400 108 q 527 168 481 108 q 574 318 574 228 q 524 470 574 408 q 392 532 474 532 q 265 471 313 532 q 217 318 217 410 q 268 169 217 229 q 400 108 319 108 m 197 782 l 339 1097 l 475 1029 l 297 739 l 197 782 m 486 782 l 642 1096 l 778 1028 l 586 739 l 486 782 z "},"ȏ":{"ha":790,"x_min":61,"x_max":729,"o":"m 396 -14 q 221 31 297 -14 q 103 151 144 75 q 61 321 61 228 q 102 489 61 413 q 219 610 143 565 q 396 654 296 654 q 572 610 496 654 q 688 489 647 565 q 729 321 729 413 q 688 151 729 228 q 570 31 646 75 q 396 -14 494 -14 m 400 108 q 527 168 481 108 q 574 318 574 228 q 524 470 574 408 q 392 532 474 532 q 265 471 313 532 q 217 318 217 410 q 268 169 217 229 q 400 108 319 108 m 144 767 q 212 945 144 876 q 396 1014 279 1014 q 579 945 511 1014 q 647 767 647 876 l 515 767 q 482 854 515 815 q 396 893 449 893 q 306 856 333 893 q 278 767 278 819 l 144 767 z "},"ō":{"ha":790,"x_min":61,"x_max":729,"o":"m 396 -14 q 221 31 297 -14 q 103 151 144 75 q 61 321 61 228 q 102 489 61 413 q 219 610 143 565 q 396 654 296 654 q 572 610 496 654 q 688 489 647 565 q 729 321 729 413 q 688 151 729 228 q 570 31 646 75 q 396 -14 494 -14 m 400 108 q 527 168 481 108 q 574 318 574 228 q 524 470 574 408 q 392 532 474 532 q 265 471 313 532 q 217 318 217 410 q 268 169 217 229 q 400 108 319 108 m 160 885 l 632 885 l 632 771 l 160 771 l 160 885 z "},"ṓ":{"ha":790,"x_min":61,"x_max":729,"o":"m 396 -14 q 221 31 297 -14 q 103 151 144 75 q 61 321 61 228 q 102 489 61 413 q 219 610 143 565 q 396 654 296 654 q 572 610 496 654 q 688 489 647 565 q 729 321 729 413 q 688 151 729 228 q 570 31 646 75 q 396 -14 494 -14 m 400 108 q 527 168 481 108 q 574 318 574 228 q 524 470 574 408 q 392 532 474 532 q 265 471 313 532 q 217 318 217 410 q 268 169 217 229 q 400 108 319 108 m 160 910 l 632 910 l 632 796 l 160 796 l 160 910 m 292 1085 l 504 1403 l 636 1318 l 393 1028 l 292 1085 z "},"ṑ":{"ha":790,"x_min":61,"x_max":729,"o":"m 396 -14 q 221 31 297 -14 q 103 151 144 75 q 61 321 61 228 q 102 489 61 413 q 219 610 143 565 q 396 654 296 654 q 572 610 496 654 q 688 489 647 565 q 729 321 729 413 q 688 151 729 228 q 570 31 646 75 q 396 -14 494 -14 m 400 108 q 527 168 481 108 q 574 318 574 228 q 524 470 574 408 q 392 532 474 532 q 265 471 313 532 q 217 318 217 410 q 268 169 217 229 q 400 108 319 108 m 160 910 l 632 910 l 632 796 l 160 796 l 160 910 m 156 1318 l 288 1403 l 500 1085 l 399 1028 l 156 1318 z "},"ǫ":{"ha":790,"x_min":61,"x_max":729,"o":"m 476 -6 q 383 -150 383 -53 q 407 -208 383 -183 q 481 -233 431 -233 q 526 -231 507 -233 l 526 -360 q 458 -367 485 -367 q 305 -322 361 -367 q 249 -181 249 -276 q 272 -85 249 -129 q 332 -8 296 -42 q 190 51 251 4 q 94 167 128 97 q 61 321 61 238 q 102 489 61 413 q 219 610 143 565 q 396 654 296 654 q 572 610 496 654 q 688 489 647 565 q 729 321 729 413 q 661 109 729 199 q 476 -6 593 19 m 217 318 q 268 169 217 229 q 400 108 319 108 q 527 168 481 108 q 574 318 574 228 q 524 470 574 408 q 392 532 474 532 q 265 471 313 532 q 217 318 217 410 z "},"ø":{"ha":799,"x_min":64,"x_max":732,"o":"m 582 606 q 692 486 653 561 q 732 321 732 411 q 690 151 732 228 q 573 31 649 75 q 399 -14 497 -14 q 307 -3 354 -14 l 239 -153 l 160 -117 l 226 29 q 107 149 150 72 q 64 321 64 226 q 105 489 64 413 q 222 610 146 565 q 399 654 299 654 q 504 640 449 654 l 572 790 l 650 754 l 582 606 m 219 318 q 236 227 219 269 q 283 156 253 185 l 450 524 q 394 532 425 532 q 267 471 315 532 q 219 318 219 410 m 403 108 q 530 168 483 108 q 576 318 576 228 q 563 404 576 364 q 524 474 549 444 l 360 114 q 403 108 378 108 z "},"ǿ":{"ha":799,"x_min":64,"x_max":732,"o":"m 582 606 q 692 486 653 561 q 732 321 732 411 q 690 151 732 228 q 573 31 649 75 q 399 -14 497 -14 q 307 -3 354 -14 l 239 -153 l 160 -117 l 226 29 q 107 149 150 72 q 64 321 64 226 q 105 489 64 413 q 222 610 146 565 q 399 654 299 654 q 504 640 449 654 l 572 790 l 650 754 l 582 606 m 219 318 q 236 227 219 269 q 283 156 253 185 l 450 524 q 394 532 425 532 q 267 471 315 532 q 219 318 219 410 m 403 108 q 530 168 483 108 q 576 318 576 228 q 563 404 576 364 q 524 474 549 444 l 360 114 q 403 108 378 108 m 294 814 l 507 1132 l 639 1047 l 396 757 l 294 814 z "},"õ":{"ha":790,"x_min":61,"x_max":729,"o":"m 396 -14 q 221 31 297 -14 q 103 151 144 75 q 61 321 61 228 q 102 489 61 413 q 219 610 143 565 q 396 654 296 654 q 572 610 496 654 q 688 489 647 565 q 729 321 729 413 q 688 151 729 228 q 570 31 646 75 q 396 -14 494 -14 m 400 108 q 527 168 481 108 q 574 318 574 228 q 524 470 574 408 q 392 532 474 532 q 265 471 313 532 q 217 318 217 410 q 268 169 217 229 q 400 108 319 108 m 485 756 q 420 768 443 756 q 375 804 397 781 q 342 833 358 824 q 300 843 325 843 q 252 824 276 843 q 210 764 228 804 l 146 861 q 198 939 158 904 q 297 974 238 974 q 361 961 336 974 q 408 925 386 949 q 445 894 428 904 q 488 885 463 885 q 538 905 513 885 q 582 967 564 925 l 646 868 q 617 819 640 846 q 559 774 594 793 q 485 756 524 756 z "},"ṍ":{"ha":790,"x_min":61,"x_max":729,"o":"m 396 -14 q 221 31 297 -14 q 103 151 144 75 q 61 321 61 228 q 102 489 61 413 q 219 610 143 565 q 396 654 296 654 q 572 610 496 654 q 688 489 647 565 q 729 321 729 413 q 688 151 729 228 q 570 31 646 75 q 396 -14 494 -14 m 400 108 q 527 168 481 108 q 574 318 574 228 q 524 470 574 408 q 392 532 474 532 q 265 471 313 532 q 217 318 217 410 q 268 169 217 229 q 400 108 319 108 m 485 756 q 420 768 443 756 q 375 804 397 781 q 342 833 358 824 q 300 843 325 843 q 252 824 276 843 q 210 764 228 804 l 146 861 q 198 939 158 904 q 297 974 238 974 q 361 961 336 974 q 408 925 386 949 q 445 894 428 904 q 488 885 463 885 q 538 905 513 885 q 582 967 564 925 l 646 868 q 617 819 640 846 q 559 774 594 793 q 485 756 524 756 m 292 1126 l 504 1444 l 636 1360 l 393 1069 l 292 1126 z "},"ṏ":{"ha":790,"x_min":61,"x_max":729,"o":"m 396 -14 q 221 31 297 -14 q 103 151 144 75 q 61 321 61 228 q 102 489 61 413 q 219 610 143 565 q 396 654 296 654 q 572 610 496 654 q 688 489 647 565 q 729 321 729 413 q 688 151 729 228 q 570 31 646 75 q 396 -14 494 -14 m 400 108 q 527 168 481 108 q 574 318 574 228 q 524 470 574 408 q 392 532 474 532 q 265 471 313 532 q 217 318 217 410 q 268 169 217 229 q 400 108 319 108 m 485 756 q 420 768 443 756 q 375 804 397 781 q 342 833 358 824 q 300 843 325 843 q 252 824 276 843 q 210 764 228 804 l 146 861 q 198 939 158 904 q 297 974 238 974 q 361 961 336 974 q 408 925 386 949 q 445 894 428 904 q 488 885 463 885 q 538 905 513 885 q 582 967 564 925 l 646 868 q 617 819 640 846 q 559 774 594 793 q 485 756 524 756 m 228 1069 q 157 1099 186 1069 q 128 1169 128 1128 q 156 1240 128 1211 q 228 1268 185 1268 q 299 1240 271 1268 q 328 1169 328 1211 q 299 1099 328 1128 q 228 1069 271 1069 m 563 1069 q 492 1099 521 1069 q 463 1169 463 1128 q 492 1240 463 1211 q 563 1268 521 1268 q 635 1239 606 1268 q 664 1169 664 1210 q 635 1099 664 1128 q 563 1069 606 1069 z "},"ȭ":{"ha":790,"x_min":61,"x_max":729,"o":"m 396 -14 q 221 31 297 -14 q 103 151 144 75 q 61 321 61 228 q 102 489 61 413 q 219 610 143 565 q 396 654 296 654 q 572 610 496 654 q 688 489 647 565 q 729 321 729 413 q 688 151 729 228 q 570 31 646 75 q 396 -14 494 -14 m 400 108 q 527 168 481 108 q 574 318 574 228 q 524 470 574 408 q 392 532 474 532 q 265 471 313 532 q 217 318 217 410 q 268 169 217 229 q 400 108 319 108 m 485 756 q 420 768 443 756 q 375 804 397 781 q 342 833 358 824 q 300 843 325 843 q 252 824 276 843 q 210 764 228 804 l 146 861 q 198 939 158 904 q 297 974 238 974 q 361 961 336 974 q 408 925 386 949 q 445 894 428 904 q 488 885 463 885 q 538 905 513 885 q 582 967 564 925 l 646 868 q 617 819 640 846 q 559 774 594 793 q 485 756 524 756 m 160 1222 l 632 1222 l 632 1108 l 160 1108 l 160 1222 z "},"œ":{"ha":1268,"x_min":61,"x_max":1207,"o":"m 394 -12 q 220 31 296 -12 q 103 151 144 75 q 61 321 61 228 q 102 489 61 413 q 219 610 143 565 q 394 654 294 654 q 542 623 476 654 q 653 538 608 592 q 768 624 699 594 q 921 654 838 654 q 1137 574 1067 654 q 1207 346 1207 493 q 1203 272 1207 313 l 735 272 q 793 151 740 189 q 931 113 846 113 q 1121 151 1040 113 l 1172 38 q 1074 1 1129 14 q 938 -12 1019 -12 q 769 17 842 -12 q 651 101 697 46 q 542 17 608 47 q 394 -12 476 -12 m 393 111 q 525 170 475 111 q 575 318 575 229 q 525 469 575 408 q 393 529 475 529 q 264 469 314 529 q 214 318 214 408 q 263 170 214 229 q 393 111 313 111 m 1060 383 q 1018 496 1053 464 q 908 528 983 528 q 735 383 761 528 l 1060 383 z "},"p":{"ha":847,"x_min":101,"x_max":786,"o":"m 101 638 l 246 638 l 246 519 q 485 654 322 654 q 703 569 619 654 q 786 322 786 483 q 745 146 786 222 q 634 28 704 69 q 478 -14 564 -14 q 338 15 397 -14 q 246 96 279 43 l 247 -337 l 101 -337 l 101 638 m 443 113 q 582 170 533 113 q 631 318 631 228 q 583 469 631 413 q 443 525 535 525 q 349 501 393 525 q 280 431 306 476 q 254 326 254 386 l 254 317 q 280 210 254 257 q 349 138 306 164 q 443 113 392 113 z "},"þ":{"ha":849,"x_min":101,"x_max":788,"o":"m 771 208 q 704 86 749 138 q 597 10 660 35 q 531 -10 561 -6 q 478 -14 504 -14 q 338 15 397 -14 q 246 96 279 43 l 247 -337 l 101 -337 l 101 638 l 103 638 l 103 1022 l 246 1022 l 246 521 q 268 554 260 543 q 485 654 347 654 l 489 654 l 492 654 q 644 616 576 654 q 749 503 711 578 q 788 322 788 428 q 771 208 788 261 m 443 113 q 582 170 533 113 q 631 318 631 228 q 583 469 631 413 q 443 525 535 525 q 393 518 418 525 q 306 466 343 504 q 258 372 269 428 q 254 326 254 351 l 254 318 q 295 189 254 243 q 399 118 336 135 q 443 113 419 113 z "},"q":{"ha":851,"x_min":61,"x_max":751,"o":"m 606 96 q 513 15 572 43 q 371 -14 453 -14 q 214 28 285 -14 q 102 146 143 69 q 61 322 61 222 q 103 505 61 431 q 215 617 144 579 q 371 654 285 654 q 606 521 532 654 l 607 638 l 751 638 l 751 -337 l 604 -337 l 606 96 m 406 111 q 539 166 485 111 q 593 310 593 221 l 593 319 q 568 426 593 379 q 500 500 543 474 q 406 526 457 526 q 268 469 317 526 q 219 319 219 411 q 267 169 219 226 q 406 111 315 111 z "},"r":{"ha":499,"x_min":94,"x_max":492,"o":"m 94 638 l 244 638 l 244 513 q 317 615 267 576 q 431 654 367 654 q 492 646 475 654 l 471 494 q 417 503 458 503 q 298 461 351 503 q 244 328 244 419 l 244 0 l 94 0 l 94 638 z "},"ŕ":{"ha":499,"x_min":94,"x_max":521,"o":"m 94 638 l 244 638 l 244 513 q 317 615 267 576 q 431 654 367 654 q 492 646 475 654 l 471 494 q 417 503 458 503 q 298 461 351 503 q 244 328 244 419 l 244 0 l 94 0 l 94 638 m 176 814 l 389 1132 l 521 1047 l 278 757 l 176 814 z "},"ř":{"ha":499,"x_min":32,"x_max":529,"o":"m 94 638 l 244 638 l 244 513 q 317 615 267 576 q 431 654 367 654 q 492 646 475 654 l 471 494 q 417 503 458 503 q 298 461 351 503 q 244 328 244 419 l 244 0 l 94 0 l 94 638 m 32 1029 l 122 1104 l 281 897 l 440 1104 l 529 1029 l 281 729 l 32 1029 z "},"ŗ":{"ha":499,"x_min":94,"x_max":492,"o":"m 94 638 l 244 638 l 244 513 q 317 615 267 576 q 431 654 367 654 q 492 646 475 654 l 471 494 q 417 503 458 503 q 298 461 351 503 q 244 328 244 419 l 244 0 l 94 0 l 94 638 m 113 -367 q 130 -317 117 -356 q 147 -243 143 -278 q 103 -161 103 -214 q 132 -90 103 -118 q 204 -62 161 -62 q 275 -90 247 -62 q 303 -161 303 -118 q 267 -278 303 -215 q 199 -367 231 -340 l 113 -367 z "},"ȑ":{"ha":499,"x_min":-99,"x_max":492,"o":"m 94 638 l 244 638 l 244 513 q 317 615 267 576 q 431 654 367 654 q 492 646 475 654 l 471 494 q 417 503 458 503 q 298 461 351 503 q 244 328 244 419 l 244 0 l 94 0 l 94 638 m 204 1029 l 336 1097 l 478 782 l 382 739 l 204 1029 m -99 1028 l 33 1096 l 189 782 l 93 739 l -99 1028 z "},"ṛ":{"ha":499,"x_min":93,"x_max":492,"o":"m 94 638 l 244 638 l 244 513 q 317 615 267 576 q 431 654 367 654 q 492 646 475 654 l 471 494 q 417 503 458 503 q 298 461 351 503 q 244 328 244 419 l 244 0 l 94 0 l 94 638 m 194 -303 q 122 -274 151 -303 q 93 -201 93 -244 q 122 -135 93 -162 q 194 -107 151 -107 q 265 -135 236 -107 q 293 -201 293 -162 q 265 -274 293 -244 q 194 -303 238 -303 z "},"ȓ":{"ha":499,"x_min":29,"x_max":532,"o":"m 94 638 l 244 638 l 244 513 q 317 615 267 576 q 431 654 367 654 q 492 646 475 654 l 471 494 q 417 503 458 503 q 298 461 351 503 q 244 328 244 419 l 244 0 l 94 0 l 94 638 m 29 767 q 97 945 29 876 q 281 1014 164 1014 q 464 945 396 1014 q 532 767 532 876 l 400 767 q 367 854 400 815 q 281 893 333 893 q 190 856 218 893 q 163 767 163 819 l 29 767 z "},"ṟ":{"ha":499,"x_min":-29,"x_max":492,"o":"m 94 638 l 244 638 l 244 513 q 317 615 267 576 q 431 654 367 654 q 492 646 475 654 l 471 494 q 417 503 458 503 q 298 461 351 503 q 244 328 244 419 l 244 0 l 94 0 l 94 638 m -29 -111 l 415 -111 l 415 -225 l -29 -225 l -29 -111 z "},"s":{"ha":628,"x_min":78,"x_max":571,"o":"m 318 -14 q 180 3 251 -14 q 78 44 108 21 l 128 163 q 318 104 211 104 q 425 167 425 104 q 403 210 425 194 q 324 246 381 225 l 271 265 q 139 345 188 299 q 90 468 90 392 q 159 605 90 556 q 343 654 228 654 q 455 642 400 654 q 539 610 510 629 l 485 490 q 427 522 467 508 q 339 535 388 535 q 240 475 240 535 q 267 424 240 442 q 353 386 293 407 q 396 371 358 385 q 528 292 485 336 q 571 178 571 247 q 499 35 571 83 q 318 -14 428 -14 z "},"ś":{"ha":628,"x_min":78,"x_max":576,"o":"m 318 -14 q 180 3 251 -14 q 78 44 108 21 l 128 163 q 318 104 211 104 q 425 167 425 104 q 403 210 425 194 q 324 246 381 225 l 271 265 q 139 345 188 299 q 90 468 90 392 q 159 605 90 556 q 343 654 228 654 q 455 642 400 654 q 539 610 510 629 l 485 490 q 427 522 467 508 q 339 535 388 535 q 240 475 240 535 q 267 424 240 442 q 353 386 293 407 q 396 371 358 385 q 528 292 485 336 q 571 178 571 247 q 499 35 571 83 q 318 -14 428 -14 m 232 814 l 444 1132 l 576 1047 l 333 757 l 232 814 z "},"ṥ":{"ha":628,"x_min":78,"x_max":576,"o":"m 318 -14 q 180 3 251 -14 q 78 44 108 21 l 128 163 q 318 104 211 104 q 425 167 425 104 q 403 210 425 194 q 324 246 381 225 l 271 265 q 139 345 188 299 q 90 468 90 392 q 159 605 90 556 q 343 654 228 654 q 455 642 400 654 q 539 610 510 629 l 485 490 q 427 522 467 508 q 339 535 388 535 q 240 475 240 535 q 267 424 240 442 q 353 386 293 407 q 396 371 358 385 q 528 292 485 336 q 571 178 571 247 q 499 35 571 83 q 318 -14 428 -14 m 232 814 l 444 1132 l 576 1047 l 333 757 l 232 814 m 267 1057 q 195 1086 224 1057 q 167 1158 167 1115 q 196 1225 167 1197 q 267 1253 225 1253 q 338 1225 308 1253 q 367 1158 367 1197 q 338 1086 367 1115 q 267 1057 310 1057 z "},"š":{"ha":628,"x_min":78,"x_max":585,"o":"m 318 -14 q 180 3 251 -14 q 78 44 108 21 l 128 163 q 318 104 211 104 q 425 167 425 104 q 403 210 425 194 q 324 246 381 225 l 271 265 q 139 345 188 299 q 90 468 90 392 q 159 605 90 556 q 343 654 228 654 q 455 642 400 654 q 539 610 510 629 l 485 490 q 427 522 467 508 q 339 535 388 535 q 240 475 240 535 q 267 424 240 442 q 353 386 293 407 q 396 371 358 385 q 528 292 485 336 q 571 178 571 247 q 499 35 571 83 q 318 -14 428 -14 m 88 1029 l 178 1104 l 336 897 l 496 1104 l 585 1029 l 336 729 l 88 1029 z "},"ṧ":{"ha":628,"x_min":78,"x_max":585,"o":"m 318 -14 q 180 3 251 -14 q 78 44 108 21 l 128 163 q 318 104 211 104 q 425 167 425 104 q 403 210 425 194 q 324 246 381 225 l 271 265 q 139 345 188 299 q 90 468 90 392 q 159 605 90 556 q 343 654 228 654 q 455 642 400 654 q 539 610 510 629 l 485 490 q 427 522 467 508 q 339 535 388 535 q 240 475 240 535 q 267 424 240 442 q 353 386 293 407 q 396 371 358 385 q 528 292 485 336 q 571 178 571 247 q 499 35 571 83 q 318 -14 428 -14 m 88 1029 l 178 1104 l 336 897 l 496 1104 l 585 1029 l 336 729 l 88 1029 m 336 1119 q 265 1149 293 1119 q 236 1221 236 1178 q 265 1288 236 1260 q 336 1315 294 1315 q 407 1288 378 1315 q 436 1221 436 1260 q 408 1149 436 1178 q 336 1119 379 1119 z "}}}
